<ttFont>
    <TTGlyph name=".notdef" xMin="78" yMin="0" xMax="522" yMax="660">
      <contour>
        <pt x="78" y="660" on="1"/>
        <pt x="522" y="660" on="1"/>
        <pt x="522" y="0" on="1"/>
        <pt x="78" y="0" on="1"/>
      </contour>
      <contour>
        <pt x="270" y="340" on="1"/>
        <pt x="123" y="600" on="1"/>
        <pt x="123" y="84" on="1"/>
      </contour>
      <contour>
        <pt x="475" y="84" on="1"/>
        <pt x="475" y="600" on="1"/>
        <pt x="330" y="340" on="1"/>
      </contour>
      <contour>
        <pt x="454" y="39" on="1"/>
        <pt x="361" y="203" on="1"/>
        <pt x="302" y="308" on="1"/>
        <pt x="298" y="308" on="1"/>
        <pt x="237" y="203" on="1"/>
        <pt x="142" y="39" on="1"/>
      </contour>
      <contour>
        <pt x="302" y="372" on="1"/>
        <pt x="355" y="464" on="1"/>
        <pt x="441" y="619" on="1"/>
        <pt x="157" y="619" on="1"/>
        <pt x="244" y="464" on="1"/>
        <pt x="298" y="372" on="1"/>
      </contour>
    </TTGlyph>
    <TTGlyph name="A" xMin="45" yMin="0" xMax="555" yMax="659">
      <contour>
        <pt x="417" y="265" on="1"/>
        <pt x="375" y="388" on="1"/>
        <pt x="355" y="447" on="0"/>
        <pt x="319" y="555" on="0"/>
        <pt x="302" y="616" on="1"/>
        <pt x="298" y="616" on="1"/>
        <pt x="281" y="555" on="0"/>
        <pt x="245" y="447" on="0"/>
        <pt x="225" y="388" on="1"/>
        <pt x="183" y="265" on="1"/>
      </contour>
      <contour>
        <pt x="430" y="226" on="1"/>
        <pt x="169" y="226" on="1"/>
        <pt x="91" y="0" on="1"/>
        <pt x="45" y="0" on="1"/>
        <pt x="277" y="659" on="1"/>
        <pt x="323" y="659" on="1"/>
        <pt x="555" y="0" on="1"/>
        <pt x="506" y="0" on="1"/>
      </contour>
    </TTGlyph>
    <TTGlyph name="AE" xMin="0" yMin="0" xMax="589" yMax="659">
      <contour>
        <pt x="321" y="255" on="1"/>
        <pt x="321" y="619" on="1"/>
        <pt x="317" y="619" on="1"/>
        <pt x="293" y="562" on="0"/>
        <pt x="243" y="449" on="0"/>
        <pt x="217" y="389" on="1"/>
        <pt x="159" y="255" on="1"/>
      </contour>
      <contour>
        <pt x="589" y="40" on="1"/>
        <pt x="589" y="0" on="1"/>
        <pt x="321" y="0" on="1"/>
        <pt x="321" y="217" on="1"/>
        <pt x="143" y="217" on="1"/>
        <pt x="50" y="0" on="1"/>
        <pt x="0" y="0" on="1"/>
        <pt x="290" y="659" on="1"/>
        <pt x="579" y="659" on="1"/>
        <pt x="579" y="619" on="1"/>
        <pt x="365" y="619" on="1"/>
        <pt x="365" y="370" on="1"/>
        <pt x="528" y="370" on="1"/>
        <pt x="528" y="330" on="1"/>
        <pt x="365" y="330" on="1"/>
        <pt x="365" y="40" on="1"/>
      </contour>
    </TTGlyph>
    <TTGlyph name="Aacute" xMin="45" yMin="0" xMax="555" yMax="815">
      <component glyphName="A" x="0" y="0" flags="0x204"/>
      <component glyphName="uni0301.cap" x="0" y="0" flags="0x4"/>
    </TTGlyph>
    <TTGlyph name="Abreve" xMin="45" yMin="0" xMax="555" yMax="815">
      <component glyphName="A" x="0" y="0" flags="0x204"/>
      <component glyphName="uni0306.cap" x="0" y="0" flags="0x4"/>
    </TTGlyph>
    <TTGlyph name="Acircumflex" xMin="45" yMin="0" xMax="555" yMax="815">
      <component glyphName="A" x="0" y="0" flags="0x204"/>
      <component glyphName="uni0302.cap" x="0" y="0" flags="0x4"/>
    </TTGlyph>
    <TTGlyph name="Adieresis" xMin="45" yMin="0" xMax="555" yMax="798">
      <component glyphName="A" x="0" y="0" flags="0x204"/>
      <component glyphName="uni0308.cap" x="0" y="0" flags="0x4"/>
    </TTGlyph>
    <TTGlyph name="Agrave" xMin="45" yMin="0" xMax="555" yMax="815">
      <component glyphName="A" x="0" y="0" flags="0x204"/>
      <component glyphName="uni0300.cap" x="0" y="0" flags="0x4"/>
    </TTGlyph>
    <TTGlyph name="Amacron" xMin="45" yMin="0" xMax="555" yMax="770">
      <component glyphName="A" x="0" y="0" flags="0x204"/>
      <component glyphName="uni0304.cap" x="0" y="0" flags="0x4"/>
    </TTGlyph>
    <TTGlyph name="Aogonek" xMin="45" yMin="-205" xMax="591" yMax="659">
      <contour>
        <pt x="417" y="265" on="1"/>
        <pt x="375" y="388" on="1"/>
        <pt x="355" y="447" on="0"/>
        <pt x="319" y="555" on="0"/>
        <pt x="302" y="616" on="1"/>
        <pt x="298" y="616" on="1"/>
        <pt x="281" y="555" on="0"/>
        <pt x="245" y="447" on="0"/>
        <pt x="225" y="388" on="1"/>
        <pt x="183" y="265" on="1"/>
      </contour>
      <contour>
        <pt x="591" y="-181" on="1"/>
        <pt x="580" y="-191" on="0"/>
        <pt x="542" y="-205" on="0"/>
        <pt x="526" y="-205" on="1"/>
        <pt x="491" y="-205" on="0"/>
        <pt x="441" y="-165" on="0"/>
        <pt x="441" y="-123" on="1"/>
        <pt x="441" y="-85" on="0"/>
        <pt x="486" y="-19" on="0"/>
        <pt x="513" y="0" on="1"/>
        <pt x="506" y="0" on="1"/>
        <pt x="430" y="226" on="1"/>
        <pt x="169" y="226" on="1"/>
        <pt x="91" y="0" on="1"/>
        <pt x="45" y="0" on="1"/>
        <pt x="277" y="659" on="1"/>
        <pt x="323" y="659" on="1"/>
        <pt x="555" y="0" on="1"/>
        <pt x="523" y="-20" on="0"/>
        <pt x="481" y="-85" on="0"/>
        <pt x="481" y="-116" on="1"/>
        <pt x="481" y="-142" on="0"/>
        <pt x="512" y="-168" on="0"/>
        <pt x="531" y="-168" on="1"/>
        <pt x="545" y="-168" on="0"/>
        <pt x="564" y="-162" on="0"/>
        <pt x="575" y="-154" on="1"/>
      </contour>
    </TTGlyph>
    <TTGlyph name="Aring" xMin="45" yMin="0" xMax="555" yMax="864">
      <component glyphName="A" x="0" y="0" flags="0x204"/>
      <component glyphName="uni030A.cap" x="0" y="0" flags="0x4"/>
    </TTGlyph>
    <TTGlyph name="Atilde" xMin="45" yMin="0" xMax="555" yMax="808">
      <component glyphName="A" x="0" y="0" flags="0x204"/>
      <component glyphName="uni0303.cap" x="0" y="0" flags="0x4"/>
    </TTGlyph>
    <TTGlyph name="B" xMin="115" yMin="0" xMax="538" yMax="659">
      <contour>
        <pt x="115" y="659" on="1"/>
        <pt x="280" y="659" on="1"/>
        <pt x="380" y="659" on="0"/>
        <pt x="497" y="582" on="0"/>
        <pt x="497" y="499" on="1"/>
        <pt x="497" y="447" on="0"/>
        <pt x="439" y="370" on="0"/>
        <pt x="380" y="355" on="1"/>
        <pt x="380" y="351" on="1"/>
        <pt x="453" y="340" on="0"/>
        <pt x="538" y="261" on="0"/>
        <pt x="538" y="192" on="1"/>
        <pt x="538" y="144" on="0"/>
        <pt x="503" y="72" on="0"/>
        <pt x="439" y="24" on="0"/>
        <pt x="349" y="0" on="0"/>
        <pt x="293" y="0" on="1"/>
        <pt x="115" y="0" on="1"/>
      </contour>
      <contour>
        <pt x="262" y="369" on="1"/>
        <pt x="363" y="369" on="0"/>
        <pt x="451" y="435" on="0"/>
        <pt x="451" y="500" on="1"/>
        <pt x="451" y="564" on="0"/>
        <pt x="358" y="621" on="0"/>
        <pt x="267" y="621" on="1"/>
        <pt x="161" y="621" on="1"/>
        <pt x="161" y="369" on="1"/>
      </contour>
      <contour>
        <pt x="281" y="38" on="1"/>
        <pt x="380" y="38" on="0"/>
        <pt x="492" y="112" on="0"/>
        <pt x="492" y="192" on="1"/>
        <pt x="492" y="263" on="0"/>
        <pt x="382" y="332" on="0"/>
        <pt x="281" y="332" on="1"/>
        <pt x="161" y="332" on="1"/>
        <pt x="161" y="38" on="1"/>
      </contour>
    </TTGlyph>
    <TTGlyph name="C" xMin="72" yMin="-12" xMax="544" yMax="671">
      <contour>
        <pt x="72" y="331" on="1"/>
        <pt x="72" y="409" on="0"/>
        <pt x="113" y="535" on="0"/>
        <pt x="187" y="624" on="0"/>
        <pt x="292" y="671" on="0"/>
        <pt x="355" y="671" on="1"/>
        <pt x="412" y="671" on="0"/>
        <pt x="499" y="623" on="0"/>
        <pt x="526" y="592" on="1"/>
        <pt x="498" y="562" on="1"/>
        <pt x="472" y="592" on="0"/>
        <pt x="400" y="629" on="0"/>
        <pt x="355" y="629" on="1"/>
        <pt x="301" y="629" on="0"/>
        <pt x="214" y="587" on="0"/>
        <pt x="153" y="510" on="0"/>
        <pt x="120" y="400" on="0"/>
        <pt x="120" y="331" on="1"/>
        <pt x="120" y="262" on="0"/>
        <pt x="153" y="151" on="0"/>
        <pt x="213" y="73" on="0"/>
        <pt x="299" y="30" on="0"/>
        <pt x="352" y="30" on="1"/>
        <pt x="403" y="30" on="0"/>
        <pt x="481" y="70" on="0"/>
        <pt x="517" y="111" on="1"/>
        <pt x="544" y="82" on="1"/>
        <pt x="506" y="38" on="0"/>
        <pt x="413" y="-12" on="0"/>
        <pt x="349" y="-12" on="1"/>
        <pt x="288" y="-12" on="0"/>
        <pt x="186" y="36" on="0"/>
        <pt x="113" y="125" on="0"/>
        <pt x="72" y="252" on="0"/>
      </contour>
    </TTGlyph>
    <TTGlyph name="Cacute" xMin="72" yMin="-12" xMax="544" yMax="815">
      <component glyphName="C" x="0" y="0" flags="0x204"/>
      <component glyphName="uni0301.cap" x="43" y="0" flags="0x4"/>
    </TTGlyph>
    <TTGlyph name="Ccaron" xMin="72" yMin="-12" xMax="544" yMax="815">
      <component glyphName="C" x="0" y="0" flags="0x204"/>
      <component glyphName="uni030C.cap" x="43" y="0" flags="0x4"/>
    </TTGlyph>
    <TTGlyph name="Ccedilla" xMin="72" yMin="-208" xMax="544" yMax="671">
      <component glyphName="C" x="0" y="0" flags="0x204"/>
      <component glyphName="uni0327.cap" x="46" y="0" flags="0x4"/>
    </TTGlyph>
    <TTGlyph name="Ccircumflex" xMin="72" yMin="-12" xMax="544" yMax="815">
      <component glyphName="C" x="0" y="0" flags="0x204"/>
      <component glyphName="uni0302.cap" x="43" y="0" flags="0x4"/>
    </TTGlyph>
    <TTGlyph name="Cdotaccent" xMin="72" yMin="-12" xMax="544" yMax="801">
      <component glyphName="C" x="0" y="0" flags="0x204"/>
      <component glyphName="uni0307.cap" x="43" y="0" flags="0x4"/>
    </TTGlyph>
    <TTGlyph name="D" xMin="96" yMin="0" xMax="545" yMax="659">
      <contour>
        <pt x="96" y="659" on="1"/>
        <pt x="247" y="659" on="1"/>
        <pt x="323" y="659" on="0"/>
        <pt x="435" y="613" on="0"/>
        <pt x="509" y="527" on="0"/>
        <pt x="545" y="407" on="0"/>
        <pt x="545" y="332" on="1"/>
        <pt x="545" y="257" on="0"/>
        <pt x="509" y="134" on="0"/>
        <pt x="435" y="47" on="0"/>
        <pt x="323" y="0" on="0"/>
        <pt x="248" y="0" on="1"/>
        <pt x="96" y="0" on="1"/>
      </contour>
      <contour>
        <pt x="243" y="39" on="1"/>
        <pt x="309" y="39" on="0"/>
        <pt x="405" y="82" on="0"/>
        <pt x="467" y="160" on="0"/>
        <pt x="497" y="267" on="0"/>
        <pt x="497" y="332" on="1"/>
        <pt x="497" y="396" on="0"/>
        <pt x="467" y="502" on="0"/>
        <pt x="405" y="578" on="0"/>
        <pt x="309" y="620" on="0"/>
        <pt x="243" y="620" on="1"/>
        <pt x="142" y="620" on="1"/>
        <pt x="142" y="39" on="1"/>
      </contour>
    </TTGlyph>
    <TTGlyph name="Dcaron" xMin="96" yMin="0" xMax="545" yMax="815">
      <component glyphName="D" x="0" y="0" flags="0x204"/>
      <component glyphName="uni030C.cap" x="0" y="0" flags="0x4"/>
    </TTGlyph>
    <TTGlyph name="Dcroat" xMin="25" yMin="0" xMax="551" yMax="659">
      <component glyphName="Eth" x="0" y="0" flags="0x204"/>
    </TTGlyph>
    <TTGlyph name="E" xMin="127" yMin="0" xMax="527" yMax="659">
      <contour>
        <pt x="127" y="659" on="1"/>
        <pt x="517" y="659" on="1"/>
        <pt x="517" y="619" on="1"/>
        <pt x="173" y="619" on="1"/>
        <pt x="173" y="370" on="1"/>
        <pt x="463" y="370" on="1"/>
        <pt x="463" y="330" on="1"/>
        <pt x="173" y="330" on="1"/>
        <pt x="173" y="40" on="1"/>
        <pt x="527" y="40" on="1"/>
        <pt x="527" y="0" on="1"/>
        <pt x="127" y="0" on="1"/>
      </contour>
    </TTGlyph>
    <TTGlyph name="Eacute" xMin="127" yMin="0" xMax="527" yMax="815">
      <component glyphName="E" x="0" y="0" flags="0x204"/>
      <component glyphName="uni0301.cap" x="36" y="0" flags="0x4"/>
    </TTGlyph>
    <TTGlyph name="Ebreve" xMin="127" yMin="0" xMax="527" yMax="815">
      <component glyphName="E" x="0" y="0" flags="0x204"/>
      <component glyphName="uni0306.cap" x="36" y="0" flags="0x4"/>
    </TTGlyph>
    <TTGlyph name="Ecaron" xMin="127" yMin="0" xMax="527" yMax="815">
      <component glyphName="E" x="0" y="0" flags="0x204"/>
      <component glyphName="uni030C.cap" x="36" y="0" flags="0x4"/>
    </TTGlyph>
    <TTGlyph name="Ecircumflex" xMin="127" yMin="0" xMax="527" yMax="815">
      <component glyphName="E" x="0" y="0" flags="0x204"/>
      <component glyphName="uni0302.cap" x="36" y="0" flags="0x4"/>
    </TTGlyph>
    <TTGlyph name="Edieresis" xMin="127" yMin="0" xMax="527" yMax="798">
      <component glyphName="E" x="0" y="0" flags="0x204"/>
      <component glyphName="uni0308.cap" x="36" y="0" flags="0x4"/>
    </TTGlyph>
    <TTGlyph name="Edotaccent" xMin="127" yMin="0" xMax="527" yMax="801">
      <component glyphName="E" x="0" y="0" flags="0x204"/>
      <component glyphName="uni0307.cap" x="36" y="0" flags="0x4"/>
    </TTGlyph>
    <TTGlyph name="Egrave" xMin="127" yMin="0" xMax="527" yMax="815">
      <component glyphName="E" x="0" y="0" flags="0x204"/>
      <component glyphName="uni0300.cap" x="36" y="0" flags="0x4"/>
    </TTGlyph>
    <TTGlyph name="Emacron" xMin="127" yMin="0" xMax="527" yMax="770">
      <component glyphName="E" x="0" y="0" flags="0x204"/>
      <component glyphName="uni0304.cap" x="36" y="0" flags="0x4"/>
    </TTGlyph>
    <TTGlyph name="Eogonek" xMin="127" yMin="-205" xMax="540" yMax="659">
      <contour>
        <pt x="127" y="659" on="1"/>
        <pt x="517" y="659" on="1"/>
        <pt x="517" y="619" on="1"/>
        <pt x="173" y="619" on="1"/>
        <pt x="173" y="370" on="1"/>
        <pt x="463" y="370" on="1"/>
        <pt x="463" y="330" on="1"/>
        <pt x="173" y="330" on="1"/>
        <pt x="173" y="40" on="1"/>
        <pt x="527" y="40" on="1"/>
        <pt x="527" y="0" on="1"/>
        <pt x="525" y="0" on="1"/>
        <pt x="508" y="-3" on="0"/>
        <pt x="474" y="-24" on="0"/>
        <pt x="447" y="-55" on="0"/>
        <pt x="430" y="-94" on="0"/>
        <pt x="430" y="-116" on="1"/>
        <pt x="430" y="-142" on="0"/>
        <pt x="461" y="-168" on="0"/>
        <pt x="481" y="-168" on="1"/>
        <pt x="504" y="-168" on="0"/>
        <pt x="524" y="-154" on="1"/>
        <pt x="540" y="-181" on="1"/>
        <pt x="529" y="-191" on="0"/>
        <pt x="491" y="-205" on="0"/>
        <pt x="475" y="-205" on="1"/>
        <pt x="440" y="-205" on="0"/>
        <pt x="390" y="-165" on="0"/>
        <pt x="390" y="-123" on="1"/>
        <pt x="390" y="-84" on="0"/>
        <pt x="434" y="-19" on="0"/>
        <pt x="463" y="0" on="1"/>
        <pt x="127" y="0" on="1"/>
      </contour>
    </TTGlyph>
    <TTGlyph name="Eth" xMin="25" yMin="0" xMax="551" yMax="659">
      <contour>
        <pt x="102" y="332" on="1"/>
        <pt x="25" y="332" on="1"/>
        <pt x="25" y="361" on="1"/>
        <pt x="102" y="365" on="1"/>
        <pt x="102" y="659" on="1"/>
        <pt x="253" y="659" on="1"/>
        <pt x="329" y="659" on="0"/>
        <pt x="441" y="613" on="0"/>
        <pt x="515" y="527" on="0"/>
        <pt x="551" y="407" on="0"/>
        <pt x="551" y="332" on="1"/>
        <pt x="551" y="257" on="0"/>
        <pt x="515" y="134" on="0"/>
        <pt x="441" y="47" on="0"/>
        <pt x="329" y="0" on="0"/>
        <pt x="254" y="0" on="1"/>
        <pt x="102" y="0" on="1"/>
      </contour>
      <contour>
        <pt x="249" y="39" on="1"/>
        <pt x="315" y="39" on="0"/>
        <pt x="411" y="82" on="0"/>
        <pt x="473" y="160" on="0"/>
        <pt x="503" y="267" on="0"/>
        <pt x="503" y="332" on="1"/>
        <pt x="503" y="396" on="0"/>
        <pt x="473" y="502" on="0"/>
        <pt x="411" y="578" on="0"/>
        <pt x="315" y="620" on="0"/>
        <pt x="249" y="620" on="1"/>
        <pt x="148" y="620" on="1"/>
        <pt x="148" y="365" on="1"/>
        <pt x="312" y="365" on="1"/>
        <pt x="312" y="332" on="1"/>
        <pt x="148" y="332" on="1"/>
        <pt x="148" y="39" on="1"/>
      </contour>
    </TTGlyph>
    <TTGlyph name="Euro" xMin="65" yMin="-12" xMax="556" yMax="651">
      <contour>
        <pt x="556" y="82" on="1"/>
        <pt x="520" y="38" on="0"/>
        <pt x="433" y="-12" on="0"/>
        <pt x="370" y="-12" on="1"/>
        <pt x="322" y="-12" on="0"/>
        <pt x="241" y="24" on="0"/>
        <pt x="180" y="91" on="0"/>
        <pt x="139" y="186" on="0"/>
        <pt x="131" y="246" on="1"/>
        <pt x="65" y="246" on="1"/>
        <pt x="65" y="275" on="1"/>
        <pt x="127" y="279" on="1"/>
        <pt x="126" y="290" on="0"/>
        <pt x="126" y="310" on="0"/>
        <pt x="126" y="321" on="1"/>
        <pt x="126" y="330" on="0"/>
        <pt x="126" y="348" on="0"/>
        <pt x="127" y="356" on="1"/>
        <pt x="65" y="356" on="1"/>
        <pt x="65" y="385" on="1"/>
        <pt x="130" y="389" on="1"/>
        <pt x="145" y="512" on="0"/>
        <pt x="279" y="651" on="0"/>
        <pt x="385" y="651" on="1"/>
        <pt x="436" y="651" on="0"/>
        <pt x="520" y="605" on="0"/>
        <pt x="546" y="573" on="1"/>
        <pt x="517" y="546" on="1"/>
        <pt x="490" y="576" on="0"/>
        <pt x="426" y="613" on="0"/>
        <pt x="384" y="613" on="1"/>
        <pt x="296" y="613" on="0"/>
        <pt x="191" y="494" on="0"/>
        <pt x="178" y="389" on="1"/>
        <pt x="496" y="389" on="1"/>
        <pt x="496" y="356" on="1"/>
        <pt x="175" y="356" on="1"/>
        <pt x="174" y="348" on="0"/>
        <pt x="174" y="331" on="0"/>
        <pt x="174" y="322" on="1"/>
        <pt x="174" y="311" on="0"/>
        <pt x="174" y="290" on="0"/>
        <pt x="175" y="279" on="1"/>
        <pt x="456" y="279" on="1"/>
        <pt x="456" y="246" on="1"/>
        <pt x="179" y="246" on="1"/>
        <pt x="193" y="144" on="0"/>
        <pt x="292" y="26" on="0"/>
        <pt x="372" y="26" on="1"/>
        <pt x="420" y="26" on="0"/>
        <pt x="492" y="66" on="0"/>
        <pt x="527" y="107" on="1"/>
      </contour>
    </TTGlyph>
    <TTGlyph name="F" xMin="150" yMin="0" xMax="535" yMax="659">
      <contour>
        <pt x="150" y="659" on="1"/>
        <pt x="535" y="659" on="1"/>
        <pt x="535" y="619" on="1"/>
        <pt x="195" y="619" on="1"/>
        <pt x="195" y="357" on="1"/>
        <pt x="481" y="357" on="1"/>
        <pt x="481" y="317" on="1"/>
        <pt x="195" y="317" on="1"/>
        <pt x="195" y="0" on="1"/>
        <pt x="150" y="0" on="1"/>
      </contour>
    </TTGlyph>
    <TTGlyph name="G" xMin="59" yMin="-12" xMax="525" yMax="671">
      <contour>
        <pt x="59" y="331" on="1"/>
        <pt x="59" y="409" on="0"/>
        <pt x="100" y="535" on="0"/>
        <pt x="175" y="624" on="0"/>
        <pt x="279" y="671" on="0"/>
        <pt x="343" y="671" on="1"/>
        <pt x="376" y="671" on="0"/>
        <pt x="429" y="657" on="0"/>
        <pt x="472" y="634" on="0"/>
        <pt x="505" y="606" on="0"/>
        <pt x="518" y="592" on="1"/>
        <pt x="491" y="562" on="1"/>
        <pt x="466" y="590" on="0"/>
        <pt x="396" y="629" on="0"/>
        <pt x="343" y="629" on="1"/>
        <pt x="289" y="629" on="0"/>
        <pt x="201" y="587" on="0"/>
        <pt x="140" y="510" on="0"/>
        <pt x="107" y="400" on="0"/>
        <pt x="107" y="331" on="1"/>
        <pt x="107" y="262" on="0"/>
        <pt x="138" y="151" on="0"/>
        <pt x="198" y="73" on="0"/>
        <pt x="283" y="30" on="0"/>
        <pt x="337" y="30" on="1"/>
        <pt x="381" y="30" on="0"/>
        <pt x="457" y="56" on="0"/>
        <pt x="480" y="80" on="1"/>
        <pt x="480" y="285" on="1"/>
        <pt x="328" y="285" on="1"/>
        <pt x="328" y="324" on="1"/>
        <pt x="525" y="324" on="1"/>
        <pt x="525" y="63" on="1"/>
        <pt x="495" y="30" on="0"/>
        <pt x="398" y="-12" on="0"/>
        <pt x="334" y="-12" on="1"/>
        <pt x="272" y="-12" on="0"/>
        <pt x="171" y="36" on="0"/>
        <pt x="99" y="125" on="0"/>
        <pt x="59" y="252" on="0"/>
      </contour>
    </TTGlyph>
    <TTGlyph name="Gbreve" xMin="59" yMin="-12" xMax="525" yMax="815">
      <component glyphName="G" x="0" y="0" flags="0x204"/>
      <component glyphName="uni0306.cap" x="32" y="0" flags="0x4"/>
    </TTGlyph>
    <TTGlyph name="Gcaron" xMin="59" yMin="-12" xMax="525" yMax="815">
      <component glyphName="G" x="0" y="0" flags="0x204"/>
      <component glyphName="uni030C.cap" x="32" y="0" flags="0x4"/>
    </TTGlyph>
    <TTGlyph name="Gcircumflex" xMin="59" yMin="-12" xMax="525" yMax="815">
      <component glyphName="G" x="0" y="0" flags="0x204"/>
      <component glyphName="uni0302.cap" x="32" y="0" flags="0x4"/>
    </TTGlyph>
    <TTGlyph name="Gdotaccent" xMin="59" yMin="-12" xMax="525" yMax="801">
      <component glyphName="G" x="0" y="0" flags="0x204"/>
      <component glyphName="uni0307.cap" x="32" y="0" flags="0x4"/>
    </TTGlyph>
    <TTGlyph name="H" xMin="89" yMin="0" xMax="511" yMax="659">
      <contour>
        <pt x="89" y="659" on="1"/>
        <pt x="135" y="659" on="1"/>
        <pt x="135" y="370" on="1"/>
        <pt x="465" y="370" on="1"/>
        <pt x="465" y="659" on="1"/>
        <pt x="511" y="659" on="1"/>
        <pt x="511" y="0" on="1"/>
        <pt x="465" y="0" on="1"/>
        <pt x="465" y="330" on="1"/>
        <pt x="135" y="330" on="1"/>
        <pt x="135" y="0" on="1"/>
        <pt x="89" y="0" on="1"/>
      </contour>
    </TTGlyph>
    <TTGlyph name="Hbar" xMin="14" yMin="0" xMax="586" yMax="659">
      <contour>
        <pt x="465" y="495" on="1"/>
        <pt x="135" y="495" on="1"/>
        <pt x="135" y="370" on="1"/>
        <pt x="465" y="370" on="1"/>
      </contour>
      <contour>
        <pt x="586" y="495" on="1"/>
        <pt x="511" y="495" on="1"/>
        <pt x="511" y="0" on="1"/>
        <pt x="465" y="0" on="1"/>
        <pt x="465" y="330" on="1"/>
        <pt x="135" y="330" on="1"/>
        <pt x="135" y="0" on="1"/>
        <pt x="89" y="0" on="1"/>
        <pt x="89" y="495" on="1"/>
        <pt x="14" y="495" on="1"/>
        <pt x="14" y="524" on="1"/>
        <pt x="89" y="528" on="1"/>
        <pt x="89" y="659" on="1"/>
        <pt x="135" y="659" on="1"/>
        <pt x="135" y="528" on="1"/>
        <pt x="465" y="528" on="1"/>
        <pt x="465" y="659" on="1"/>
        <pt x="511" y="659" on="1"/>
        <pt x="511" y="528" on="1"/>
        <pt x="586" y="528" on="1"/>
      </contour>
    </TTGlyph>
    <TTGlyph name="Hcircumflex" xMin="89" yMin="0" xMax="511" yMax="815">
      <component glyphName="H" x="0" y="0" flags="0x204"/>
      <component glyphName="uni0302.cap" x="0" y="0" flags="0x4"/>
    </TTGlyph>
    <TTGlyph name="I" xMin="107" yMin="0" xMax="493" yMax="659">
      <contour>
        <pt x="107" y="40" on="1"/>
        <pt x="277" y="40" on="1"/>
        <pt x="277" y="619" on="1"/>
        <pt x="107" y="619" on="1"/>
        <pt x="107" y="659" on="1"/>
        <pt x="493" y="659" on="1"/>
        <pt x="493" y="619" on="1"/>
        <pt x="323" y="619" on="1"/>
        <pt x="323" y="40" on="1"/>
        <pt x="493" y="40" on="1"/>
        <pt x="493" y="0" on="1"/>
        <pt x="107" y="0" on="1"/>
      </contour>
    </TTGlyph>
    <TTGlyph name="Iacute" xMin="107" yMin="0" xMax="493" yMax="815">
      <component glyphName="I" x="0" y="0" flags="0x204"/>
      <component glyphName="uni0301.cap" x="0" y="0" flags="0x4"/>
    </TTGlyph>
    <TTGlyph name="Icircumflex" xMin="107" yMin="0" xMax="493" yMax="815">
      <component glyphName="I" x="0" y="0" flags="0x204"/>
      <component glyphName="uni0302.cap" x="0" y="0" flags="0x4"/>
    </TTGlyph>
    <TTGlyph name="Idieresis" xMin="107" yMin="0" xMax="493" yMax="798">
      <component glyphName="I" x="0" y="0" flags="0x204"/>
      <component glyphName="uni0308.cap" x="0" y="0" flags="0x4"/>
    </TTGlyph>
    <TTGlyph name="Idotaccent" xMin="107" yMin="0" xMax="493" yMax="801">
      <component glyphName="I" x="0" y="0" flags="0x204"/>
      <component glyphName="uni0307.cap" x="0" y="0" flags="0x4"/>
    </TTGlyph>
    <TTGlyph name="Igrave" xMin="107" yMin="0" xMax="493" yMax="815">
      <component glyphName="I" x="0" y="0" flags="0x204"/>
      <component glyphName="uni0300.cap" x="0" y="0" flags="0x4"/>
    </TTGlyph>
    <TTGlyph name="Imacron" xMin="107" yMin="0" xMax="493" yMax="770">
      <component glyphName="I" x="0" y="0" flags="0x204"/>
      <component glyphName="uni0304.cap" x="0" y="0" flags="0x4"/>
    </TTGlyph>
    <TTGlyph name="Iogonek" xMin="107" yMin="-205" xMax="493" yMax="659">
      <contour>
        <pt x="107" y="40" on="1"/>
        <pt x="277" y="40" on="1"/>
        <pt x="277" y="619" on="1"/>
        <pt x="107" y="619" on="1"/>
        <pt x="107" y="659" on="1"/>
        <pt x="493" y="659" on="1"/>
        <pt x="493" y="619" on="1"/>
        <pt x="323" y="619" on="1"/>
        <pt x="323" y="40" on="1"/>
        <pt x="493" y="40" on="1"/>
        <pt x="493" y="0" on="1"/>
        <pt x="323" y="0" on="1"/>
        <pt x="297" y="-29" on="0"/>
        <pt x="263" y="-83" on="0"/>
        <pt x="263" y="-116" on="1"/>
        <pt x="263" y="-142" on="0"/>
        <pt x="294" y="-168" on="0"/>
        <pt x="314" y="-168" on="1"/>
        <pt x="337" y="-168" on="0"/>
        <pt x="357" y="-154" on="1"/>
        <pt x="373" y="-181" on="1"/>
        <pt x="362" y="-191" on="0"/>
        <pt x="325" y="-205" on="0"/>
        <pt x="308" y="-205" on="1"/>
        <pt x="273" y="-205" on="0"/>
        <pt x="224" y="-165" on="0"/>
        <pt x="224" y="-123" on="1"/>
        <pt x="224" y="-82" on="0"/>
        <pt x="260" y="-26" on="0"/>
        <pt x="285" y="0" on="1"/>
        <pt x="107" y="0" on="1"/>
      </contour>
    </TTGlyph>
    <TTGlyph name="Itilde" xMin="107" yMin="0" xMax="493" yMax="808">
      <component glyphName="I" x="0" y="0" flags="0x204"/>
      <component glyphName="uni0303.cap" x="0" y="0" flags="0x4"/>
    </TTGlyph>
    <TTGlyph name="J" xMin="93" yMin="-12" xMax="480" yMax="660">
      <contour>
        <pt x="130" y="124" on="1"/>
        <pt x="159" y="75" on="0"/>
        <pt x="236" y="29" on="0"/>
        <pt x="278" y="29" on="1"/>
        <pt x="360" y="29" on="0"/>
        <pt x="434" y="117" on="0"/>
        <pt x="434" y="208" on="1"/>
        <pt x="434" y="621" on="1"/>
        <pt x="147" y="621" on="1"/>
        <pt x="147" y="660" on="1"/>
        <pt x="480" y="660" on="1"/>
        <pt x="480" y="204" on="1"/>
        <pt x="480" y="159" on="0"/>
        <pt x="460" y="80" on="0"/>
        <pt x="412" y="22" on="0"/>
        <pt x="334" y="-12" on="0"/>
        <pt x="277" y="-12" on="1"/>
        <pt x="221" y="-12" on="0"/>
        <pt x="122" y="42" on="0"/>
        <pt x="93" y="98" on="1"/>
      </contour>
    </TTGlyph>
    <TTGlyph name="Jcircumflex" xMin="93" yMin="-12" xMax="480" yMax="815">
      <component glyphName="J" x="0" y="0" flags="0x204"/>
      <component glyphName="uni0302.cap" x="20" y="0" flags="0x4"/>
    </TTGlyph>
    <TTGlyph name="K" xMin="115" yMin="0" xMax="571" yMax="659">
      <contour>
        <pt x="115" y="659" on="1"/>
        <pt x="162" y="659" on="1"/>
        <pt x="162" y="293" on="1"/>
        <pt x="164" y="293" on="1"/>
        <pt x="489" y="659" on="1"/>
        <pt x="543" y="659" on="1"/>
        <pt x="330" y="415" on="1"/>
        <pt x="571" y="0" on="1"/>
        <pt x="518" y="0" on="1"/>
        <pt x="298" y="380" on="1"/>
        <pt x="162" y="227" on="1"/>
        <pt x="162" y="0" on="1"/>
        <pt x="115" y="0" on="1"/>
      </contour>
    </TTGlyph>
    <TTGlyph name="L" xMin="150" yMin="0" xMax="539" yMax="659">
      <contour>
        <pt x="150" y="659" on="1"/>
        <pt x="194" y="659" on="1"/>
        <pt x="194" y="40" on="1"/>
        <pt x="539" y="40" on="1"/>
        <pt x="539" y="0" on="1"/>
        <pt x="150" y="0" on="1"/>
      </contour>
    </TTGlyph>
    <TTGlyph name="Lacute" xMin="150" yMin="0" xMax="539" yMax="815">
      <component glyphName="L" x="0" y="0" flags="0x204"/>
      <component glyphName="uni0301.cap" x="-112" y="0" flags="0x4"/>
    </TTGlyph>
    <TTGlyph name="Lcaron" xMin="150" yMin="0" xMax="539" yMax="724">
      <component glyphName="L" x="0" y="0" flags="0x204"/>
      <component glyphName="uni030C.a" x="121" y="-30" flags="0x4"/>
    </TTGlyph>
    <TTGlyph name="Ldot" xMin="150" yMin="0" xMax="539" yMax="659">
      <component glyphName="L" x="0" y="0" flags="0x204"/>
      <component glyphName="uni0307" x="117" y="-300" flags="0x4"/>
    </TTGlyph>
    <TTGlyph name="Lslash" xMin="65" yMin="0" xMax="539" yMax="659">
      <contour>
        <pt x="539" y="40" on="1"/>
        <pt x="539" y="0" on="1"/>
        <pt x="150" y="0" on="1"/>
        <pt x="150" y="245" on="1"/>
        <pt x="65" y="200" on="1"/>
        <pt x="65" y="240" on="1"/>
        <pt x="150" y="285" on="1"/>
        <pt x="150" y="659" on="1"/>
        <pt x="194" y="659" on="1"/>
        <pt x="194" y="306" on="1"/>
        <pt x="431" y="429" on="1"/>
        <pt x="431" y="389" on="1"/>
        <pt x="194" y="266" on="1"/>
        <pt x="194" y="40" on="1"/>
      </contour>
    </TTGlyph>
    <TTGlyph name="M" xMin="91" yMin="0" xMax="509" yMax="659">
      <contour>
        <pt x="91" y="659" on="1"/>
        <pt x="150" y="659" on="1"/>
        <pt x="260" y="352" on="1"/>
        <pt x="299" y="235" on="1"/>
        <pt x="303" y="235" on="1"/>
        <pt x="341" y="352" on="1"/>
        <pt x="450" y="659" on="1"/>
        <pt x="509" y="659" on="1"/>
        <pt x="509" y="0" on="1"/>
        <pt x="466" y="0" on="1"/>
        <pt x="466" y="461" on="1"/>
        <pt x="466" y="494" on="0"/>
        <pt x="469" y="575" on="0"/>
        <pt x="471" y="609" on="1"/>
        <pt x="468" y="609" on="1"/>
        <pt x="430" y="491" on="1"/>
        <pt x="316" y="180" on="1"/>
        <pt x="284" y="180" on="1"/>
        <pt x="169" y="491" on="1"/>
        <pt x="129" y="609" on="1"/>
        <pt x="127" y="609" on="1"/>
        <pt x="129" y="575" on="0"/>
        <pt x="133" y="494" on="0"/>
        <pt x="133" y="461" on="1"/>
        <pt x="133" y="0" on="1"/>
        <pt x="91" y="0" on="1"/>
      </contour>
    </TTGlyph>
    <TTGlyph name="N" xMin="92" yMin="0" xMax="508" yMax="659">
      <contour>
        <pt x="92" y="659" on="1"/>
        <pt x="140" y="659" on="1"/>
        <pt x="397" y="193" on="1"/>
        <pt x="468" y="63" on="1"/>
        <pt x="470" y="63" on="1"/>
        <pt x="468" y="111" on="0"/>
        <pt x="464" y="206" on="0"/>
        <pt x="464" y="254" on="1"/>
        <pt x="464" y="659" on="1"/>
        <pt x="508" y="659" on="1"/>
        <pt x="508" y="0" on="1"/>
        <pt x="460" y="0" on="1"/>
        <pt x="203" y="466" on="1"/>
        <pt x="132" y="596" on="1"/>
        <pt x="130" y="596" on="1"/>
        <pt x="132" y="548" on="0"/>
        <pt x="136" y="456" on="0"/>
        <pt x="136" y="408" on="1"/>
        <pt x="136" y="0" on="1"/>
        <pt x="92" y="0" on="1"/>
      </contour>
    </TTGlyph>
    <TTGlyph name="Nacute" xMin="92" yMin="0" xMax="508" yMax="815">
      <component glyphName="N" x="0" y="0" flags="0x204"/>
      <component glyphName="uni0301.cap" x="6" y="0" flags="0x4"/>
    </TTGlyph>
    <TTGlyph name="Ncaron" xMin="92" yMin="0" xMax="508" yMax="815">
      <component glyphName="N" x="0" y="0" flags="0x204"/>
      <component glyphName="uni030C.cap" x="6" y="0" flags="0x4"/>
    </TTGlyph>
    <TTGlyph name="Ntilde" xMin="92" yMin="0" xMax="508" yMax="808">
      <component glyphName="N" x="0" y="0" flags="0x204"/>
      <component glyphName="uni0303.cap" x="6" y="0" flags="0x4"/>
    </TTGlyph>
    <TTGlyph name="O" xMin="54" yMin="-12" xMax="546" yMax="671">
      <contour>
        <pt x="300" y="-12" on="1"/>
        <pt x="246" y="-12" on="0"/>
        <pt x="156" y="37" on="0"/>
        <pt x="90" y="127" on="0"/>
        <pt x="54" y="254" on="0"/>
        <pt x="54" y="332" on="1"/>
        <pt x="54" y="410" on="0"/>
        <pt x="90" y="535" on="0"/>
        <pt x="156" y="624" on="0"/>
        <pt x="246" y="671" on="0"/>
        <pt x="300" y="671" on="1"/>
        <pt x="354" y="671" on="0"/>
        <pt x="444" y="624" on="0"/>
        <pt x="510" y="535" on="0"/>
        <pt x="546" y="410" on="0"/>
        <pt x="546" y="332" on="1"/>
        <pt x="546" y="254" on="0"/>
        <pt x="510" y="127" on="0"/>
        <pt x="444" y="37" on="0"/>
        <pt x="354" y="-12" on="0"/>
      </contour>
      <contour>
        <pt x="300" y="30" on="1"/>
        <pt x="344" y="30" on="0"/>
        <pt x="417" y="73" on="0"/>
        <pt x="469" y="152" on="0"/>
        <pt x="498" y="263" on="0"/>
        <pt x="498" y="332" on="1"/>
        <pt x="498" y="400" on="0"/>
        <pt x="469" y="510" on="0"/>
        <pt x="417" y="587" on="0"/>
        <pt x="344" y="629" on="0"/>
        <pt x="300" y="629" on="1"/>
        <pt x="256" y="629" on="0"/>
        <pt x="183" y="587" on="0"/>
        <pt x="131" y="510" on="0"/>
        <pt x="102" y="400" on="0"/>
        <pt x="102" y="332" on="1"/>
        <pt x="102" y="263" on="0"/>
        <pt x="131" y="152" on="0"/>
        <pt x="183" y="73" on="0"/>
        <pt x="256" y="30" on="0"/>
      </contour>
    </TTGlyph>
    <TTGlyph name="OE" xMin="41" yMin="0" xMax="589" yMax="660">
      <contour>
        <pt x="41" y="332" on="1"/>
        <pt x="41" y="407" on="0"/>
        <pt x="74" y="528" on="0"/>
        <pt x="140" y="614" on="0"/>
        <pt x="237" y="660" on="0"/>
        <pt x="301" y="660" on="1"/>
        <pt x="579" y="660" on="1"/>
        <pt x="579" y="621" on="1"/>
        <pt x="364" y="621" on="1"/>
        <pt x="364" y="370" on="1"/>
        <pt x="528" y="370" on="1"/>
        <pt x="528" y="330" on="1"/>
        <pt x="364" y="330" on="1"/>
        <pt x="364" y="40" on="1"/>
        <pt x="589" y="40" on="1"/>
        <pt x="589" y="0" on="1"/>
        <pt x="301" y="0" on="1"/>
        <pt x="237" y="0" on="0"/>
        <pt x="140" y="47" on="0"/>
        <pt x="74" y="134" on="0"/>
        <pt x="41" y="257" on="0"/>
      </contour>
      <contour>
        <pt x="88" y="332" on="1"/>
        <pt x="88" y="267" on="0"/>
        <pt x="112" y="160" on="0"/>
        <pt x="163" y="82" on="0"/>
        <pt x="242" y="39" on="0"/>
        <pt x="296" y="39" on="1"/>
        <pt x="319" y="39" on="1"/>
        <pt x="319" y="621" on="1"/>
        <pt x="296" y="621" on="1"/>
        <pt x="242" y="621" on="0"/>
        <pt x="163" y="579" on="0"/>
        <pt x="112" y="503" on="0"/>
        <pt x="88" y="396" on="0"/>
      </contour>
    </TTGlyph>
    <TTGlyph name="Oacute" xMin="54" yMin="-12" xMax="546" yMax="815">
      <component glyphName="O" x="0" y="0" flags="0x204"/>
      <component glyphName="uni0301.cap" x="0" y="0" flags="0x4"/>
    </TTGlyph>
    <TTGlyph name="Ocircumflex" xMin="54" yMin="-12" xMax="546" yMax="815">
      <component glyphName="O" x="0" y="0" flags="0x204"/>
      <component glyphName="uni0302.cap" x="0" y="0" flags="0x4"/>
    </TTGlyph>
    <TTGlyph name="Odieresis" xMin="54" yMin="-12" xMax="546" yMax="798">
      <component glyphName="O" x="0" y="0" flags="0x204"/>
      <component glyphName="uni0308.cap" x="0" y="0" flags="0x4"/>
    </TTGlyph>
    <TTGlyph name="Ograve" xMin="54" yMin="-12" xMax="546" yMax="815">
      <component glyphName="O" x="0" y="0" flags="0x204"/>
      <component glyphName="uni0300.cap" x="0" y="0" flags="0x4"/>
    </TTGlyph>
    <TTGlyph name="Ohorn" xMin="54" yMin="-12" xMax="546" yMax="766">
      <contour>
        <pt x="300" y="30" on="1"/>
        <pt x="344" y="30" on="0"/>
        <pt x="417" y="73" on="0"/>
        <pt x="469" y="152" on="0"/>
        <pt x="498" y="263" on="0"/>
        <pt x="498" y="332" on="1"/>
        <pt x="498" y="400" on="0"/>
        <pt x="469" y="510" on="0"/>
        <pt x="417" y="587" on="0"/>
        <pt x="344" y="629" on="0"/>
        <pt x="300" y="629" on="1"/>
        <pt x="256" y="629" on="0"/>
        <pt x="183" y="587" on="0"/>
        <pt x="131" y="510" on="0"/>
        <pt x="102" y="400" on="0"/>
        <pt x="102" y="332" on="1"/>
        <pt x="102" y="263" on="0"/>
        <pt x="131" y="152" on="0"/>
        <pt x="183" y="73" on="0"/>
        <pt x="256" y="30" on="0"/>
      </contour>
      <contour>
        <pt x="524" y="766" on="1"/>
        <pt x="533" y="752" on="0"/>
        <pt x="543" y="726" on="0"/>
        <pt x="543" y="711" on="1"/>
        <pt x="543" y="670" on="0"/>
        <pt x="490" y="624" on="0"/>
        <pt x="446" y="614" on="1"/>
        <pt x="493" y="571" on="0"/>
        <pt x="546" y="428" on="0"/>
        <pt x="546" y="332" on="1"/>
        <pt x="546" y="254" on="0"/>
        <pt x="510" y="127" on="0"/>
        <pt x="444" y="37" on="0"/>
        <pt x="354" y="-12" on="0"/>
        <pt x="300" y="-12" on="1"/>
        <pt x="246" y="-12" on="0"/>
        <pt x="156" y="37" on="0"/>
        <pt x="90" y="127" on="0"/>
        <pt x="54" y="254" on="0"/>
        <pt x="54" y="332" on="1"/>
        <pt x="54" y="410" on="0"/>
        <pt x="90" y="535" on="0"/>
        <pt x="156" y="624" on="0"/>
        <pt x="246" y="671" on="0"/>
        <pt x="300" y="671" on="1"/>
        <pt x="362" y="671" on="0"/>
        <pt x="413" y="640" on="1"/>
        <pt x="503" y="652" on="0"/>
        <pt x="503" y="708" on="1"/>
        <pt x="503" y="725" on="0"/>
        <pt x="489" y="747" on="1"/>
      </contour>
    </TTGlyph>
    <TTGlyph name="Ohungarumlaut" xMin="54" yMin="-12" xMax="546" yMax="815">
      <component glyphName="O" x="0" y="0" flags="0x204"/>
      <component glyphName="uni030B.cap" x="0" y="0" flags="0x4"/>
    </TTGlyph>
    <TTGlyph name="Omacron" xMin="54" yMin="-12" xMax="546" yMax="770">
      <component glyphName="O" x="0" y="0" flags="0x204"/>
      <component glyphName="uni0304.cap" x="0" y="0" flags="0x4"/>
    </TTGlyph>
    <TTGlyph name="Oslash" xMin="54" yMin="-23" xMax="546" yMax="682">
      <contour>
        <pt x="166" y="100" on="1"/>
        <pt x="192" y="66" on="0"/>
        <pt x="259" y="30" on="0"/>
        <pt x="300" y="30" on="1"/>
        <pt x="344" y="30" on="0"/>
        <pt x="417" y="73" on="0"/>
        <pt x="469" y="152" on="0"/>
        <pt x="498" y="263" on="0"/>
        <pt x="498" y="332" on="1"/>
        <pt x="498" y="392" on="0"/>
        <pt x="475" y="492" on="0"/>
        <pt x="455" y="530" on="1"/>
      </contour>
      <contour>
        <pt x="434" y="562" on="1"/>
        <pt x="408" y="594" on="0"/>
        <pt x="341" y="629" on="0"/>
        <pt x="300" y="629" on="1"/>
        <pt x="256" y="629" on="0"/>
        <pt x="183" y="587" on="0"/>
        <pt x="131" y="510" on="0"/>
        <pt x="102" y="400" on="0"/>
        <pt x="102" y="332" on="1"/>
        <pt x="102" y="271" on="0"/>
        <pt x="125" y="170" on="0"/>
        <pt x="145" y="132" on="1"/>
      </contour>
      <contour>
        <pt x="483" y="571" on="1"/>
        <pt x="513" y="527" on="0"/>
        <pt x="546" y="407" on="0"/>
        <pt x="546" y="332" on="1"/>
        <pt x="546" y="254" on="0"/>
        <pt x="510" y="127" on="0"/>
        <pt x="444" y="37" on="0"/>
        <pt x="354" y="-12" on="0"/>
        <pt x="300" y="-12" on="1"/>
        <pt x="252" y="-12" on="0"/>
        <pt x="172" y="26" on="0"/>
        <pt x="140" y="61" on="1"/>
        <pt x="83" y="-23" on="1"/>
        <pt x="55" y="-2" on="1"/>
        <pt x="117" y="90" on="1"/>
        <pt x="87" y="135" on="0"/>
        <pt x="54" y="257" on="0"/>
        <pt x="54" y="332" on="1"/>
        <pt x="54" y="410" on="0"/>
        <pt x="90" y="535" on="0"/>
        <pt x="156" y="624" on="0"/>
        <pt x="246" y="671" on="0"/>
        <pt x="300" y="671" on="1"/>
        <pt x="348" y="671" on="0"/>
        <pt x="428" y="635" on="0"/>
        <pt x="459" y="601" on="1"/>
        <pt x="514" y="682" on="1"/>
        <pt x="543" y="661" on="1"/>
      </contour>
    </TTGlyph>
    <TTGlyph name="Otilde" xMin="54" yMin="-12" xMax="546" yMax="808">
      <component glyphName="O" x="0" y="0" flags="0x204"/>
      <component glyphName="uni0303.cap" x="0" y="0" flags="0x4"/>
    </TTGlyph>
    <TTGlyph name="P" xMin="118" yMin="0" xMax="533" yMax="659">
      <contour>
        <pt x="118" y="659" on="1"/>
        <pt x="298" y="659" on="1"/>
        <pt x="353" y="659" on="0"/>
        <pt x="440" y="640" on="0"/>
        <pt x="501" y="596" on="0"/>
        <pt x="533" y="526" on="0"/>
        <pt x="533" y="475" on="1"/>
        <pt x="533" y="378" on="0"/>
        <pt x="409" y="283" on="0"/>
        <pt x="298" y="283" on="1"/>
        <pt x="164" y="283" on="1"/>
        <pt x="164" y="0" on="1"/>
        <pt x="118" y="0" on="1"/>
      </contour>
      <contour>
        <pt x="286" y="322" on="1"/>
        <pt x="388" y="322" on="0"/>
        <pt x="485" y="394" on="0"/>
        <pt x="485" y="475" on="1"/>
        <pt x="485" y="517" on="0"/>
        <pt x="460" y="572" on="0"/>
        <pt x="411" y="606" on="0"/>
        <pt x="336" y="620" on="0"/>
        <pt x="286" y="620" on="1"/>
        <pt x="164" y="620" on="1"/>
        <pt x="164" y="322" on="1"/>
      </contour>
    </TTGlyph>
    <TTGlyph name="Q" xMin="57" yMin="-153" xMax="542" yMax="672">
      <contour>
        <pt x="104" y="332" on="1"/>
        <pt x="104" y="264" on="0"/>
        <pt x="131" y="152" on="0"/>
        <pt x="182" y="72" on="0"/>
        <pt x="255" y="28" on="0"/>
        <pt x="300" y="28" on="1"/>
        <pt x="345" y="28" on="0"/>
        <pt x="417" y="72" on="0"/>
        <pt x="468" y="152" on="0"/>
        <pt x="496" y="264" on="0"/>
        <pt x="496" y="332" on="1"/>
        <pt x="496" y="400" on="0"/>
        <pt x="468" y="511" on="0"/>
        <pt x="417" y="589" on="0"/>
        <pt x="345" y="632" on="0"/>
        <pt x="300" y="632" on="1"/>
        <pt x="255" y="632" on="0"/>
        <pt x="182" y="589" on="0"/>
        <pt x="131" y="511" on="0"/>
        <pt x="104" y="400" on="0"/>
      </contour>
      <contour>
        <pt x="538" y="-144" on="1"/>
        <pt x="522" y="-149" on="0"/>
        <pt x="493" y="-153" on="0"/>
        <pt x="476" y="-153" on="1"/>
        <pt x="435" y="-153" on="0"/>
        <pt x="370" y="-131" on="0"/>
        <pt x="320" y="-93" on="0"/>
        <pt x="285" y="-41" on="0"/>
        <pt x="274" y="-11" on="1"/>
        <pt x="225" y="-5" on="0"/>
        <pt x="145" y="49" on="0"/>
        <pt x="88" y="138" on="0"/>
        <pt x="57" y="259" on="0"/>
        <pt x="57" y="332" on="1"/>
        <pt x="57" y="410" on="0"/>
        <pt x="92" y="536" on="0"/>
        <pt x="156" y="624" on="0"/>
        <pt x="246" y="672" on="0"/>
        <pt x="300" y="672" on="1"/>
        <pt x="354" y="672" on="0"/>
        <pt x="443" y="624" on="0"/>
        <pt x="507" y="536" on="0"/>
        <pt x="542" y="410" on="0"/>
        <pt x="542" y="332" on="1"/>
        <pt x="542" y="258" on="0"/>
        <pt x="511" y="137" on="0"/>
        <pt x="454" y="48" on="0"/>
        <pt x="374" y="-5" on="0"/>
        <pt x="325" y="-11" on="1"/>
        <pt x="342" y="-59" on="0"/>
        <pt x="420" y="-110" on="0"/>
        <pt x="482" y="-110" on="1"/>
        <pt x="510" y="-110" on="0"/>
        <pt x="529" y="-102" on="1"/>
      </contour>
    </TTGlyph>
    <TTGlyph name="R" xMin="117" yMin="0" xMax="535" yMax="659">
      <contour>
        <pt x="293" y="341" on="1"/>
        <pt x="381" y="341" on="0"/>
        <pt x="475" y="412" on="0"/>
        <pt x="475" y="485" on="1"/>
        <pt x="475" y="559" on="0"/>
        <pt x="381" y="620" on="0"/>
        <pt x="293" y="620" on="1"/>
        <pt x="163" y="620" on="1"/>
        <pt x="163" y="341" on="1"/>
      </contour>
      <contour>
        <pt x="481" y="0" on="1"/>
        <pt x="303" y="303" on="1"/>
        <pt x="163" y="303" on="1"/>
        <pt x="163" y="0" on="1"/>
        <pt x="117" y="0" on="1"/>
        <pt x="117" y="659" on="1"/>
        <pt x="305" y="659" on="1"/>
        <pt x="354" y="659" on="0"/>
        <pt x="434" y="640" on="0"/>
        <pt x="491" y="598" on="0"/>
        <pt x="522" y="532" on="0"/>
        <pt x="522" y="485" on="1"/>
        <pt x="522" y="406" on="0"/>
        <pt x="431" y="317" on="0"/>
        <pt x="353" y="306" on="1"/>
        <pt x="535" y="0" on="1"/>
      </contour>
    </TTGlyph>
    <TTGlyph name="Racute" xMin="117" yMin="0" xMax="535" yMax="815">
      <component glyphName="R" x="0" y="0" flags="0x204"/>
      <component glyphName="uni0301.cap" x="6" y="0" flags="0x4"/>
    </TTGlyph>
    <TTGlyph name="Rcaron" xMin="117" yMin="0" xMax="535" yMax="815">
      <component glyphName="R" x="0" y="0" flags="0x204"/>
      <component glyphName="uni030C.cap" x="6" y="0" flags="0x4"/>
    </TTGlyph>
    <TTGlyph name="S" xMin="76" yMin="-12" xMax="529" yMax="671">
      <contour>
        <pt x="106" y="119" on="1"/>
        <pt x="144" y="78" on="0"/>
        <pt x="248" y="30" on="0"/>
        <pt x="309" y="30" on="1"/>
        <pt x="390" y="30" on="0"/>
        <pt x="483" y="103" on="0"/>
        <pt x="483" y="162" on="1"/>
        <pt x="483" y="193" on="0"/>
        <pt x="462" y="235" on="0"/>
        <pt x="427" y="266" on="0"/>
        <pt x="380" y="289" on="0"/>
        <pt x="354" y="300" on="1"/>
        <pt x="254" y="345" on="1"/>
        <pt x="231" y="354" on="0"/>
        <pt x="181" y="380" on="0"/>
        <pt x="139" y="419" on="0"/>
        <pt x="111" y="472" on="0"/>
        <pt x="111" y="509" on="1"/>
        <pt x="111" y="545" on="0"/>
        <pt x="141" y="604" on="0"/>
        <pt x="195" y="647" on="0"/>
        <pt x="269" y="671" on="0"/>
        <pt x="312" y="671" on="1"/>
        <pt x="375" y="671" on="0"/>
        <pt x="474" y="624" on="0"/>
        <pt x="506" y="592" on="1"/>
        <pt x="479" y="561" on="1"/>
        <pt x="448" y="592" on="0"/>
        <pt x="365" y="629" on="0"/>
        <pt x="312" y="629" on="1"/>
        <pt x="242" y="629" on="0"/>
        <pt x="157" y="565" on="0"/>
        <pt x="157" y="511" on="1"/>
        <pt x="157" y="482" on="0"/>
        <pt x="181" y="442" on="0"/>
        <pt x="218" y="413" on="0"/>
        <pt x="261" y="392" on="0"/>
        <pt x="281" y="384" on="1"/>
        <pt x="380" y="340" on="1"/>
        <pt x="410" y="328" on="0"/>
        <pt x="464" y="298" on="0"/>
        <pt x="505" y="258" on="0"/>
        <pt x="529" y="203" on="0"/>
        <pt x="529" y="165" on="1"/>
        <pt x="529" y="127" on="0"/>
        <pt x="498" y="62" on="0"/>
        <pt x="440" y="15" on="0"/>
        <pt x="359" y="-12" on="0"/>
        <pt x="309" y="-12" on="1"/>
        <pt x="233" y="-12" on="0"/>
        <pt x="117" y="43" on="0"/>
        <pt x="76" y="87" on="1"/>
      </contour>
    </TTGlyph>
    <TTGlyph name="Sacute" xMin="76" yMin="-12" xMax="529" yMax="815">
      <component glyphName="S" x="0" y="0" flags="0x204"/>
      <component glyphName="uni0301.cap" x="13" y="0" flags="0x4"/>
    </TTGlyph>
    <TTGlyph name="Scaron" xMin="76" yMin="-12" xMax="529" yMax="815">
      <component glyphName="S" x="0" y="0" flags="0x204"/>
      <component glyphName="uni030C.cap" x="13" y="0" flags="0x4"/>
    </TTGlyph>
    <TTGlyph name="Scircumflex" xMin="76" yMin="-12" xMax="529" yMax="815">
      <component glyphName="S" x="0" y="0" flags="0x204"/>
      <component glyphName="uni0302.cap" x="13" y="0" flags="0x4"/>
    </TTGlyph>
    <TTGlyph name="T" xMin="48" yMin="0" xMax="552" yMax="659">
      <contour>
        <pt x="277" y="619" on="1"/>
        <pt x="48" y="619" on="1"/>
        <pt x="48" y="659" on="1"/>
        <pt x="552" y="659" on="1"/>
        <pt x="552" y="619" on="1"/>
        <pt x="323" y="619" on="1"/>
        <pt x="323" y="0" on="1"/>
        <pt x="277" y="0" on="1"/>
      </contour>
    </TTGlyph>
    <TTGlyph name="Tcaron" xMin="48" yMin="0" xMax="552" yMax="815">
      <component glyphName="T" x="0" y="0" flags="0x204"/>
      <component glyphName="uni030C.cap" x="0" y="0" flags="0x4"/>
    </TTGlyph>
    <TTGlyph name="Thorn" xMin="118" yMin="0" xMax="533" yMax="659">
      <contour>
        <pt x="118" y="659" on="1"/>
        <pt x="164" y="659" on="1"/>
        <pt x="164" y="542" on="1"/>
        <pt x="298" y="542" on="1"/>
        <pt x="353" y="542" on="0"/>
        <pt x="440" y="522" on="0"/>
        <pt x="501" y="479" on="0"/>
        <pt x="533" y="409" on="0"/>
        <pt x="533" y="358" on="1"/>
        <pt x="533" y="261" on="0"/>
        <pt x="409" y="166" on="0"/>
        <pt x="298" y="166" on="1"/>
        <pt x="164" y="166" on="1"/>
        <pt x="164" y="0" on="1"/>
        <pt x="118" y="0" on="1"/>
      </contour>
      <contour>
        <pt x="286" y="205" on="1"/>
        <pt x="388" y="205" on="0"/>
        <pt x="485" y="277" on="0"/>
        <pt x="485" y="358" on="1"/>
        <pt x="485" y="440" on="0"/>
        <pt x="386" y="503" on="0"/>
        <pt x="286" y="503" on="1"/>
        <pt x="164" y="503" on="1"/>
        <pt x="164" y="205" on="1"/>
      </contour>
    </TTGlyph>
    <TTGlyph name="U" xMin="89" yMin="-12" xMax="511" yMax="659">
      <contour>
        <pt x="89" y="659" on="1"/>
        <pt x="135" y="659" on="1"/>
        <pt x="135" y="252" on="1"/>
        <pt x="135" y="188" on="0"/>
        <pt x="162" y="103" on="0"/>
        <pt x="207" y="52" on="0"/>
        <pt x="267" y="30" on="0"/>
        <pt x="300" y="30" on="1"/>
        <pt x="334" y="30" on="0"/>
        <pt x="395" y="52" on="0"/>
        <pt x="441" y="103" on="0"/>
        <pt x="468" y="188" on="0"/>
        <pt x="468" y="252" on="1"/>
        <pt x="468" y="659" on="1"/>
        <pt x="511" y="659" on="1"/>
        <pt x="511" y="247" on="1"/>
        <pt x="511" y="172" on="0"/>
        <pt x="476" y="72" on="0"/>
        <pt x="418" y="13" on="0"/>
        <pt x="342" y="-12" on="0"/>
        <pt x="300" y="-12" on="1"/>
        <pt x="259" y="-12" on="0"/>
        <pt x="182" y="13" on="0"/>
        <pt x="124" y="72" on="0"/>
        <pt x="89" y="172" on="0"/>
        <pt x="89" y="247" on="1"/>
      </contour>
    </TTGlyph>
    <TTGlyph name="Uacute" xMin="89" yMin="-12" xMax="511" yMax="815">
      <component glyphName="U" x="0" y="0" flags="0x204"/>
      <component glyphName="uni0301.cap" x="0" y="0" flags="0x4"/>
    </TTGlyph>
    <TTGlyph name="Ubreve" xMin="89" yMin="-12" xMax="511" yMax="815">
      <component glyphName="U" x="0" y="0" flags="0x204"/>
      <component glyphName="uni0306.cap" x="0" y="0" flags="0x4"/>
    </TTGlyph>
    <TTGlyph name="Ucircumflex" xMin="89" yMin="-12" xMax="511" yMax="815">
      <component glyphName="U" x="0" y="0" flags="0x204"/>
      <component glyphName="uni0302.cap" x="0" y="0" flags="0x4"/>
    </TTGlyph>
    <TTGlyph name="Udieresis" xMin="89" yMin="-12" xMax="511" yMax="798">
      <component glyphName="U" x="0" y="0" flags="0x204"/>
      <component glyphName="uni0308.cap" x="0" y="0" flags="0x4"/>
    </TTGlyph>
    <TTGlyph name="Ugrave" xMin="89" yMin="-12" xMax="511" yMax="815">
      <component glyphName="U" x="0" y="0" flags="0x204"/>
      <component glyphName="uni0300.cap" x="0" y="0" flags="0x4"/>
    </TTGlyph>
    <TTGlyph name="Uhorn" xMin="89" yMin="-12" xMax="613" yMax="786">
      <contour>
        <pt x="593" y="786" on="1"/>
        <pt x="603" y="772" on="0"/>
        <pt x="613" y="746" on="0"/>
        <pt x="613" y="731" on="1"/>
        <pt x="613" y="708" on="0"/>
        <pt x="596" y="675" on="0"/>
        <pt x="568" y="652" on="0"/>
        <pt x="531" y="637" on="0"/>
        <pt x="511" y="633" on="1"/>
        <pt x="511" y="247" on="1"/>
        <pt x="511" y="172" on="0"/>
        <pt x="476" y="72" on="0"/>
        <pt x="418" y="13" on="0"/>
        <pt x="342" y="-12" on="0"/>
        <pt x="300" y="-12" on="1"/>
        <pt x="259" y="-12" on="0"/>
        <pt x="182" y="13" on="0"/>
        <pt x="124" y="72" on="0"/>
        <pt x="89" y="172" on="0"/>
        <pt x="89" y="247" on="1"/>
        <pt x="89" y="659" on="1"/>
        <pt x="135" y="659" on="1"/>
        <pt x="135" y="252" on="1"/>
        <pt x="135" y="188" on="0"/>
        <pt x="162" y="103" on="0"/>
        <pt x="207" y="52" on="0"/>
        <pt x="267" y="30" on="0"/>
        <pt x="300" y="30" on="1"/>
        <pt x="334" y="30" on="0"/>
        <pt x="395" y="52" on="0"/>
        <pt x="441" y="103" on="0"/>
        <pt x="468" y="188" on="0"/>
        <pt x="468" y="252" on="1"/>
        <pt x="468" y="659" on="1"/>
        <pt x="482" y="659" on="1"/>
        <pt x="528" y="666" on="0"/>
        <pt x="572" y="697" on="0"/>
        <pt x="572" y="728" on="1"/>
        <pt x="572" y="747" on="0"/>
        <pt x="558" y="767" on="1"/>
      </contour>
    </TTGlyph>
    <TTGlyph name="Uhungarumlaut" xMin="89" yMin="-12" xMax="511" yMax="815">
      <component glyphName="U" x="0" y="0" flags="0x204"/>
      <component glyphName="uni030B.cap" x="0" y="0" flags="0x4"/>
    </TTGlyph>
    <TTGlyph name="Umacron" xMin="89" yMin="-12" xMax="511" yMax="770">
      <component glyphName="U" x="0" y="0" flags="0x204"/>
      <component glyphName="uni0304.cap" x="0" y="0" flags="0x4"/>
    </TTGlyph>
    <TTGlyph name="Uogonek" xMin="89" yMin="-205" xMax="511" yMax="659">
      <contour>
        <pt x="89" y="659" on="1"/>
        <pt x="135" y="659" on="1"/>
        <pt x="135" y="252" on="1"/>
        <pt x="135" y="188" on="0"/>
        <pt x="161" y="103" on="0"/>
        <pt x="206" y="52" on="0"/>
        <pt x="266" y="30" on="0"/>
        <pt x="299" y="30" on="1"/>
        <pt x="332" y="30" on="0"/>
        <pt x="394" y="52" on="0"/>
        <pt x="440" y="103" on="0"/>
        <pt x="468" y="188" on="0"/>
        <pt x="468" y="252" on="1"/>
        <pt x="468" y="659" on="1"/>
        <pt x="511" y="659" on="1"/>
        <pt x="511" y="247" on="1"/>
        <pt x="511" y="193" on="0"/>
        <pt x="492" y="111" on="0"/>
        <pt x="459" y="53" on="0"/>
        <pt x="413" y="15" on="0"/>
        <pt x="387" y="3" on="1"/>
        <pt x="338" y="-19" on="0"/>
        <pt x="283" y="-86" on="0"/>
        <pt x="283" y="-116" on="1"/>
        <pt x="283" y="-142" on="0"/>
        <pt x="314" y="-168" on="0"/>
        <pt x="334" y="-168" on="1"/>
        <pt x="357" y="-168" on="0"/>
        <pt x="377" y="-154" on="1"/>
        <pt x="393" y="-181" on="1"/>
        <pt x="382" y="-191" on="0"/>
        <pt x="344" y="-205" on="0"/>
        <pt x="328" y="-205" on="1"/>
        <pt x="293" y="-205" on="0"/>
        <pt x="243" y="-165" on="0"/>
        <pt x="243" y="-123" on="1"/>
        <pt x="243" y="-104" on="0"/>
        <pt x="255" y="-72" on="0"/>
        <pt x="274" y="-45" on="0"/>
        <pt x="298" y="-22" on="0"/>
        <pt x="309" y="-11" on="1"/>
        <pt x="197" y="-13" on="0"/>
        <pt x="89" y="118" on="0"/>
        <pt x="89" y="247" on="1"/>
      </contour>
    </TTGlyph>
    <TTGlyph name="Uring" xMin="89" yMin="-12" xMax="511" yMax="864">
      <component glyphName="U" x="0" y="0" flags="0x204"/>
      <component glyphName="uni030A.cap" x="0" y="0" flags="0x4"/>
    </TTGlyph>
    <TTGlyph name="Utilde" xMin="89" yMin="-12" xMax="511" yMax="808">
      <component glyphName="U" x="0" y="0" flags="0x204"/>
      <component glyphName="uni0303.cap" x="0" y="0" flags="0x4"/>
    </TTGlyph>
    <TTGlyph name="V" xMin="59" yMin="0" xMax="541" yMax="659">
      <contour>
        <pt x="59" y="659" on="1"/>
        <pt x="108" y="659" on="1"/>
        <pt x="230" y="274" on="1"/>
        <pt x="239" y="244" on="0"/>
        <pt x="256" y="190" on="0"/>
        <pt x="272" y="137" on="0"/>
        <pt x="289" y="83" on="0"/>
        <pt x="299" y="53" on="1"/>
        <pt x="303" y="53" on="1"/>
        <pt x="323" y="113" on="0"/>
        <pt x="354" y="214" on="0"/>
        <pt x="373" y="274" on="1"/>
        <pt x="495" y="659" on="1"/>
        <pt x="541" y="659" on="1"/>
        <pt x="326" y="0" on="1"/>
        <pt x="276" y="0" on="1"/>
      </contour>
    </TTGlyph>
    <TTGlyph name="W" xMin="14" yMin="0" xMax="586" yMax="660">
      <contour>
        <pt x="14" y="660" on="1"/>
        <pt x="57" y="660" on="1"/>
        <pt x="128" y="209" on="1"/>
        <pt x="133" y="169" on="0"/>
        <pt x="144" y="91" on="0"/>
        <pt x="149" y="50" on="1"/>
        <pt x="151" y="50" on="1"/>
        <pt x="163" y="91" on="0"/>
        <pt x="187" y="169" on="0"/>
        <pt x="198" y="209" on="1"/>
        <pt x="280" y="488" on="1"/>
        <pt x="322" y="488" on="1"/>
        <pt x="406" y="209" on="1"/>
        <pt x="417" y="169" on="0"/>
        <pt x="440" y="90" on="0"/>
        <pt x="451" y="50" on="1"/>
        <pt x="455" y="50" on="1"/>
        <pt x="460" y="90" on="0"/>
        <pt x="471" y="169" on="0"/>
        <pt x="476" y="209" on="1"/>
        <pt x="544" y="660" on="1"/>
        <pt x="586" y="660" on="1"/>
        <pt x="480" y="0" on="1"/>
        <pt x="424" y="0" on="1"/>
        <pt x="330" y="316" on="1"/>
        <pt x="322" y="345" on="0"/>
        <pt x="310" y="402" on="0"/>
        <pt x="302" y="431" on="1"/>
        <pt x="299" y="431" on="1"/>
        <pt x="291" y="402" on="0"/>
        <pt x="277" y="345" on="0"/>
        <pt x="269" y="316" on="1"/>
        <pt x="178" y="0" on="1"/>
        <pt x="123" y="0" on="1"/>
      </contour>
    </TTGlyph>
    <TTGlyph name="Wacute" xMin="14" yMin="0" xMax="586" yMax="815">
      <component glyphName="W" x="0" y="0" flags="0x204"/>
      <component glyphName="uni0301.cap" x="0" y="0" flags="0x4"/>
    </TTGlyph>
    <TTGlyph name="Wcircumflex" xMin="14" yMin="0" xMax="586" yMax="815">
      <component glyphName="W" x="0" y="0" flags="0x204"/>
      <component glyphName="uni0302.cap" x="0" y="0" flags="0x4"/>
    </TTGlyph>
    <TTGlyph name="Wdieresis" xMin="14" yMin="0" xMax="586" yMax="798">
      <component glyphName="W" x="0" y="0" flags="0x204"/>
      <component glyphName="uni0308.cap" x="0" y="0" flags="0x4"/>
    </TTGlyph>
    <TTGlyph name="Wgrave" xMin="14" yMin="0" xMax="586" yMax="815">
      <component glyphName="W" x="0" y="0" flags="0x204"/>
      <component glyphName="uni0300.cap" x="0" y="0" flags="0x4"/>
    </TTGlyph>
    <TTGlyph name="X" xMin="75" yMin="0" xMax="525" yMax="659">
      <contour>
        <pt x="274" y="341" on="1"/>
        <pt x="89" y="659" on="1"/>
        <pt x="139" y="659" on="1"/>
        <pt x="248" y="465" on="1"/>
        <pt x="262" y="442" on="0"/>
        <pt x="285" y="402" on="0"/>
        <pt x="302" y="375" on="1"/>
        <pt x="306" y="375" on="1"/>
        <pt x="320" y="402" on="0"/>
        <pt x="342" y="442" on="0"/>
        <pt x="355" y="465" on="1"/>
        <pt x="464" y="659" on="1"/>
        <pt x="511" y="659" on="1"/>
        <pt x="326" y="339" on="1"/>
        <pt x="525" y="0" on="1"/>
        <pt x="475" y="0" on="1"/>
        <pt x="359" y="202" on="1"/>
        <pt x="345" y="227" on="0"/>
        <pt x="316" y="277" on="0"/>
        <pt x="298" y="307" on="1"/>
        <pt x="294" y="307" on="1"/>
        <pt x="278" y="277" on="0"/>
        <pt x="252" y="227" on="0"/>
        <pt x="238" y="202" on="1"/>
        <pt x="122" y="0" on="1"/>
        <pt x="75" y="0" on="1"/>
      </contour>
    </TTGlyph>
    <TTGlyph name="Y" xMin="51" yMin="0" xMax="549" yMax="659">
      <contour>
        <pt x="277" y="242" on="1"/>
        <pt x="51" y="659" on="1"/>
        <pt x="98" y="659" on="1"/>
        <pt x="215" y="441" on="1"/>
        <pt x="238" y="403" on="0"/>
        <pt x="277" y="326" on="0"/>
        <pt x="300" y="286" on="1"/>
        <pt x="304" y="286" on="1"/>
        <pt x="327" y="326" on="0"/>
        <pt x="369" y="404" on="0"/>
        <pt x="390" y="442" on="1"/>
        <pt x="504" y="659" on="1"/>
        <pt x="549" y="659" on="1"/>
        <pt x="323" y="242" on="1"/>
        <pt x="323" y="0" on="1"/>
        <pt x="277" y="0" on="1"/>
      </contour>
    </TTGlyph>
    <TTGlyph name="Yacute" xMin="51" yMin="0" xMax="549" yMax="815">
      <component glyphName="Y" x="0" y="0" flags="0x204"/>
      <component glyphName="uni0301.cap" x="0" y="0" flags="0x4"/>
    </TTGlyph>
    <TTGlyph name="Ycircumflex" xMin="51" yMin="0" xMax="549" yMax="815">
      <component glyphName="Y" x="0" y="0" flags="0x204"/>
      <component glyphName="uni0302.cap" x="0" y="0" flags="0x4"/>
    </TTGlyph>
    <TTGlyph name="Ydieresis" xMin="51" yMin="0" xMax="549" yMax="798">
      <component glyphName="Y" x="0" y="0" flags="0x204"/>
      <component glyphName="uni0308.cap" x="0" y="0" flags="0x4"/>
    </TTGlyph>
    <TTGlyph name="Ygrave" xMin="51" yMin="0" xMax="549" yMax="815">
      <component glyphName="Y" x="0" y="0" flags="0x204"/>
      <component glyphName="uni0300.cap" x="0" y="0" flags="0x4"/>
    </TTGlyph>
    <TTGlyph name="Z" xMin="70" yMin="0" xMax="535" yMax="660">
      <contour>
        <pt x="70" y="28" on="1"/>
        <pt x="473" y="621" on="1"/>
        <pt x="104" y="621" on="1"/>
        <pt x="104" y="660" on="1"/>
        <pt x="528" y="660" on="1"/>
        <pt x="528" y="632" on="1"/>
        <pt x="125" y="40" on="1"/>
        <pt x="535" y="40" on="1"/>
        <pt x="535" y="0" on="1"/>
        <pt x="70" y="0" on="1"/>
      </contour>
    </TTGlyph>
    <TTGlyph name="Zacute" xMin="70" yMin="0" xMax="535" yMax="815">
      <component glyphName="Z" x="0" y="0" flags="0x204"/>
      <component glyphName="uni0301.cap" x="16" y="0" flags="0x4"/>
    </TTGlyph>
    <TTGlyph name="Zcaron" xMin="70" yMin="0" xMax="535" yMax="815">
      <component glyphName="Z" x="0" y="0" flags="0x204"/>
      <component glyphName="uni030C.cap" x="16" y="0" flags="0x4"/>
    </TTGlyph>
    <TTGlyph name="Zdotaccent" xMin="70" yMin="0" xMax="535" yMax="801">
      <component glyphName="Z" x="0" y="0" flags="0x204"/>
      <component glyphName="uni0307.cap" x="16" y="0" flags="0x4"/>
    </TTGlyph>
    <TTGlyph name="a" xMin="92" yMin="-12" xMax="504" yMax="492">
      <contour>
        <pt x="92" y="120" on="1"/>
        <pt x="92" y="160" on="0"/>
        <pt x="134" y="220" on="0"/>
        <pt x="223" y="264" on="0"/>
        <pt x="362" y="292" on="0"/>
        <pt x="460" y="301" on="1"/>
        <pt x="460" y="331" on="0"/>
        <pt x="446" y="386" on="0"/>
        <pt x="413" y="428" on="0"/>
        <pt x="358" y="453" on="0"/>
        <pt x="317" y="453" on="1"/>
        <pt x="290" y="453" on="0"/>
        <pt x="238" y="441" on="0"/>
        <pt x="190" y="421" on="0"/>
        <pt x="150" y="398" on="0"/>
        <pt x="135" y="388" on="1"/>
        <pt x="115" y="421" on="1"/>
        <pt x="129" y="431" on="0"/>
        <pt x="174" y="456" on="0"/>
        <pt x="228" y="477" on="0"/>
        <pt x="290" y="492" on="0"/>
        <pt x="322" y="492" on="1"/>
        <pt x="370" y="492" on="0"/>
        <pt x="439" y="463" on="0"/>
        <pt x="483" y="413" on="0"/>
        <pt x="504" y="346" on="0"/>
        <pt x="504" y="307" on="1"/>
        <pt x="504" y="0" on="1"/>
        <pt x="467" y="0" on="1"/>
        <pt x="462" y="72" on="1"/>
        <pt x="460" y="72" on="1"/>
        <pt x="418" y="39" on="0"/>
        <pt x="313" y="-12" on="0"/>
        <pt x="259" y="-12" on="1"/>
        <pt x="227" y="-12" on="0"/>
        <pt x="166" y="4" on="0"/>
        <pt x="120" y="36" on="0"/>
        <pt x="92" y="86" on="0"/>
      </contour>
      <contour>
        <pt x="137" y="122" on="1"/>
        <pt x="137" y="96" on="0"/>
        <pt x="159" y="60" on="0"/>
        <pt x="196" y="37" on="0"/>
        <pt x="243" y="26" on="0"/>
        <pt x="267" y="26" on="1"/>
        <pt x="356" y="26" on="0"/>
        <pt x="460" y="113" on="1"/>
        <pt x="460" y="267" on="1"/>
        <pt x="368" y="259" on="0"/>
        <pt x="245" y="233" on="0"/>
        <pt x="169" y="197" on="0"/>
        <pt x="137" y="151" on="0"/>
      </contour>
    </TTGlyph>
    <TTGlyph name="a.a" xMin="67" yMin="-12" xMax="495" yMax="492">
      <component glyphName="uni0251" x="0" y="0" flags="0x204"/>
    </TTGlyph>
    <TTGlyph name="a.supa" xMin="142" yMin="252" xMax="429" yMax="586">
      <contour>
        <pt x="184" y="419" on="1"/>
        <pt x="184" y="358" on="0"/>
        <pt x="238" y="287" on="0"/>
        <pt x="289" y="287" on="1"/>
        <pt x="340" y="287" on="0"/>
        <pt x="388" y="335" on="1"/>
        <pt x="388" y="514" on="1"/>
        <pt x="363" y="534" on="0"/>
        <pt x="318" y="552" on="0"/>
        <pt x="295" y="552" on="1"/>
        <pt x="272" y="552" on="0"/>
        <pt x="231" y="532" on="0"/>
        <pt x="201" y="497" on="0"/>
        <pt x="184" y="448" on="0"/>
      </contour>
      <contour>
        <pt x="142" y="419" on="1"/>
        <pt x="142" y="458" on="0"/>
        <pt x="166" y="519" on="0"/>
        <pt x="207" y="563" on="0"/>
        <pt x="260" y="586" on="0"/>
        <pt x="290" y="586" on="1"/>
        <pt x="319" y="586" on="0"/>
        <pt x="367" y="567" on="0"/>
        <pt x="390" y="548" on="1"/>
        <pt x="392" y="548" on="1"/>
        <pt x="395" y="578" on="1"/>
        <pt x="429" y="578" on="1"/>
        <pt x="429" y="260" on="1"/>
        <pt x="395" y="260" on="1"/>
        <pt x="391" y="300" on="1"/>
        <pt x="390" y="300" on="1"/>
        <pt x="369" y="280" on="0"/>
        <pt x="313" y="252" on="0"/>
        <pt x="281" y="252" on="1"/>
        <pt x="218" y="252" on="0"/>
        <pt x="142" y="338" on="0"/>
      </contour>
    </TTGlyph>
    <TTGlyph name="a.sups" xMin="175" yMin="252" xMax="436" yMax="586">
      <contour>
        <pt x="175" y="341" on="1"/>
        <pt x="175" y="394" on="0"/>
        <pt x="283" y="449" on="0"/>
        <pt x="396" y="461" on="1"/>
        <pt x="396" y="479" on="0"/>
        <pt x="388" y="512" on="0"/>
        <pt x="370" y="538" on="0"/>
        <pt x="340" y="553" on="0"/>
        <pt x="316" y="553" on="1"/>
        <pt x="283" y="553" on="0"/>
        <pt x="227" y="529" on="0"/>
        <pt x="207" y="517" on="1"/>
        <pt x="190" y="545" on="1"/>
        <pt x="210" y="558" on="0"/>
        <pt x="280" y="586" on="0"/>
        <pt x="321" y="586" on="1"/>
        <pt x="383" y="586" on="0"/>
        <pt x="436" y="515" on="0"/>
        <pt x="436" y="460" on="1"/>
        <pt x="436" y="260" on="1"/>
        <pt x="402" y="260" on="1"/>
        <pt x="399" y="300" on="1"/>
        <pt x="398" y="300" on="1"/>
        <pt x="372" y="280" on="0"/>
        <pt x="310" y="252" on="0"/>
        <pt x="277" y="252" on="1"/>
        <pt x="236" y="252" on="0"/>
        <pt x="175" y="297" on="0"/>
      </contour>
      <contour>
        <pt x="215" y="343" on="1"/>
        <pt x="215" y="312" on="0"/>
        <pt x="258" y="285" on="0"/>
        <pt x="287" y="285" on="1"/>
        <pt x="314" y="285" on="0"/>
        <pt x="367" y="309" on="0"/>
        <pt x="396" y="332" on="1"/>
        <pt x="396" y="432" on="1"/>
        <pt x="298" y="421" on="0"/>
        <pt x="215" y="378" on="0"/>
      </contour>
    </TTGlyph>
    <TTGlyph name="aacute" xMin="92" yMin="-12" xMax="504" yMax="710">
      <component glyphName="a" x="0" y="0" flags="0x204"/>
      <component glyphName="uni0301" x="17" y="0" flags="0x4"/>
    </TTGlyph>
    <TTGlyph name="aacute.a" xMin="67" yMin="-12" xMax="495" yMax="710">
      <component glyphName="uni0251" x="0" y="0" flags="0x204"/>
      <component glyphName="uni0301" x="3" y="0" flags="0x4"/>
    </TTGlyph>
    <TTGlyph name="abreve" xMin="92" yMin="-12" xMax="504" yMax="697">
      <component glyphName="a" x="0" y="0" flags="0x204"/>
      <component glyphName="uni0306" x="17" y="0" flags="0x4"/>
    </TTGlyph>
    <TTGlyph name="abreve.a" xMin="67" yMin="-12" xMax="495" yMax="697">
      <component glyphName="uni0251" x="0" y="0" flags="0x204"/>
      <component glyphName="uni0306" x="3" y="0" flags="0x4"/>
    </TTGlyph>
    <TTGlyph name="acircumflex" xMin="92" yMin="-12" xMax="504" yMax="710">
      <component glyphName="a" x="0" y="0" flags="0x204"/>
      <component glyphName="uni0302" x="17" y="0" flags="0x4"/>
    </TTGlyph>
    <TTGlyph name="acircumflex.a" xMin="67" yMin="-12" xMax="495" yMax="710">
      <component glyphName="uni0251" x="0" y="0" flags="0x204"/>
      <component glyphName="uni0302" x="3" y="0" flags="0x4"/>
    </TTGlyph>
    <TTGlyph name="acute" xMin="244" yMin="572" xMax="389" yMax="710">
      <component glyphName="uni0301" x="0" y="0" flags="0x204"/>
    </TTGlyph>
    <TTGlyph name="adieresis" xMin="92" yMin="-12" xMax="504" yMax="681">
      <component glyphName="a" x="0" y="0" flags="0x204"/>
      <component glyphName="uni0308" x="17" y="0" flags="0x4"/>
    </TTGlyph>
    <TTGlyph name="adieresis.a" xMin="67" yMin="-12" xMax="495" yMax="681">
      <component glyphName="uni0251" x="0" y="0" flags="0x204"/>
      <component glyphName="uni0308" x="3" y="0" flags="0x4"/>
    </TTGlyph>
    <TTGlyph name="ae" xMin="17" yMin="-12" xMax="599" yMax="492">
      <contour>
        <pt x="17" y="124" on="1"/>
        <pt x="17" y="194" on="0"/>
        <pt x="149" y="284" on="0"/>
        <pt x="279" y="301" on="1"/>
        <pt x="279" y="334" on="0"/>
        <pt x="268" y="390" on="0"/>
        <pt x="244" y="431" on="0"/>
        <pt x="204" y="454" on="0"/>
        <pt x="175" y="454" on="1"/>
        <pt x="160" y="454" on="0"/>
        <pt x="127" y="446" on="0"/>
        <pt x="94" y="434" on="0"/>
        <pt x="65" y="418" on="0"/>
        <pt x="54" y="410" on="1"/>
        <pt x="35" y="442" on="1"/>
        <pt x="59" y="458" on="0"/>
        <pt x="137" y="492" on="0"/>
        <pt x="184" y="492" on="1"/>
        <pt x="235" y="492" on="0"/>
        <pt x="297" y="428" on="0"/>
        <pt x="308" y="380" on="1"/>
        <pt x="331" y="432" on="0"/>
        <pt x="406" y="492" on="0"/>
        <pt x="457" y="492" on="1"/>
        <pt x="493" y="492" on="0"/>
        <pt x="547" y="458" on="0"/>
        <pt x="582" y="399" on="0"/>
        <pt x="599" y="322" on="0"/>
        <pt x="599" y="280" on="1"/>
        <pt x="599" y="270" on="0"/>
        <pt x="599" y="248" on="0"/>
        <pt x="597" y="234" on="1"/>
        <pt x="320" y="234" on="1"/>
        <pt x="320" y="189" on="0"/>
        <pt x="338" y="113" on="0"/>
        <pt x="372" y="57" on="0"/>
        <pt x="425" y="26" on="0"/>
        <pt x="461" y="26" on="1"/>
        <pt x="493" y="26" on="0"/>
        <pt x="547" y="47" on="0"/>
        <pt x="567" y="60" on="1"/>
        <pt x="585" y="29" on="1"/>
        <pt x="562" y="14" on="0"/>
        <pt x="501" y="-12" on="0"/>
        <pt x="459" y="-12" on="1"/>
        <pt x="407" y="-12" on="0"/>
        <pt x="335" y="40" on="0"/>
        <pt x="312" y="87" on="1"/>
        <pt x="270" y="40" on="0"/>
        <pt x="184" y="-12" on="0"/>
        <pt x="143" y="-12" on="1"/>
        <pt x="88" y="-12" on="0"/>
        <pt x="17" y="56" on="0"/>
      </contour>
      <contour>
        <pt x="559" y="268" on="1"/>
        <pt x="559" y="305" on="0"/>
        <pt x="549" y="373" on="0"/>
        <pt x="524" y="424" on="0"/>
        <pt x="484" y="454" on="0"/>
        <pt x="454" y="454" on="1"/>
        <pt x="394" y="454" on="0"/>
        <pt x="324" y="354" on="0"/>
        <pt x="321" y="268" on="1"/>
      </contour>
      <contour>
        <pt x="61" y="124" on="1"/>
        <pt x="61" y="75" on="0"/>
        <pt x="110" y="26" on="0"/>
        <pt x="151" y="26" on="1"/>
        <pt x="183" y="26" on="0"/>
        <pt x="263" y="73" on="0"/>
        <pt x="296" y="118" on="1"/>
        <pt x="288" y="144" on="0"/>
        <pt x="279" y="206" on="0"/>
        <pt x="279" y="240" on="1"/>
        <pt x="279" y="267" on="1"/>
        <pt x="162" y="249" on="0"/>
        <pt x="61" y="180" on="0"/>
      </contour>
    </TTGlyph>
    <TTGlyph name="agrave" xMin="92" yMin="-12" xMax="504" yMax="710">
      <component glyphName="a" x="0" y="0" flags="0x204"/>
      <component glyphName="uni0300" x="17" y="0" flags="0x4"/>
    </TTGlyph>
    <TTGlyph name="agrave.a" xMin="67" yMin="-12" xMax="495" yMax="710">
      <component glyphName="uni0251" x="0" y="0" flags="0x204"/>
      <component glyphName="uni0300" x="3" y="0" flags="0x4"/>
    </TTGlyph>
    <TTGlyph name="amacron" xMin="92" yMin="-12" xMax="504" yMax="642">
      <component glyphName="a" x="0" y="0" flags="0x204"/>
      <component glyphName="uni0304" x="17" y="0" flags="0x4"/>
    </TTGlyph>
    <TTGlyph name="amacron.a" xMin="67" yMin="-12" xMax="495" yMax="642">
      <component glyphName="uni0251" x="0" y="0" flags="0x204"/>
      <component glyphName="uni0304" x="3" y="0" flags="0x4"/>
    </TTGlyph>
    <TTGlyph name="ampersand" xMin="53" yMin="-12" xMax="571" yMax="671">
      <contour>
        <pt x="246" y="26" on="1"/>
        <pt x="287" y="26" on="0"/>
        <pt x="359" y="65" on="0"/>
        <pt x="389" y="97" on="1"/>
        <pt x="336" y="145" on="0"/>
        <pt x="238" y="265" on="0"/>
        <pt x="203" y="328" on="1"/>
        <pt x="160" y="294" on="0"/>
        <pt x="98" y="219" on="0"/>
        <pt x="98" y="170" on="1"/>
        <pt x="98" y="137" on="0"/>
        <pt x="122" y="84" on="0"/>
        <pt x="162" y="47" on="0"/>
        <pt x="216" y="26" on="0"/>
      </contour>
      <contour>
        <pt x="182" y="526" on="1"/>
        <pt x="182" y="493" on="0"/>
        <pt x="202" y="422" on="0"/>
        <pt x="219" y="385" on="1"/>
        <pt x="244" y="403" on="0"/>
        <pt x="289" y="440" on="0"/>
        <pt x="324" y="480" on="0"/>
        <pt x="345" y="523" on="0"/>
        <pt x="345" y="549" on="1"/>
        <pt x="345" y="565" on="0"/>
        <pt x="338" y="596" on="0"/>
        <pt x="321" y="620" on="0"/>
        <pt x="294" y="635" on="0"/>
        <pt x="274" y="635" on="1"/>
        <pt x="230" y="635" on="0"/>
        <pt x="182" y="571" on="0"/>
      </contour>
      <contour>
        <pt x="556" y="-12" on="1"/>
        <pt x="525" y="-1" on="0"/>
        <pt x="456" y="40" on="0"/>
        <pt x="419" y="71" on="1"/>
        <pt x="383" y="34" on="0"/>
        <pt x="297" y="-12" on="0"/>
        <pt x="242" y="-12" on="1"/>
        <pt x="203" y="-12" on="0"/>
        <pt x="134" y="13" on="0"/>
        <pt x="83" y="60" on="0"/>
        <pt x="53" y="126" on="0"/>
        <pt x="53" y="167" on="1"/>
        <pt x="53" y="199" on="0"/>
        <pt x="75" y="253" on="0"/>
        <pt x="112" y="300" on="0"/>
        <pt x="160" y="341" on="0"/>
        <pt x="186" y="361" on="1"/>
        <pt x="165" y="403" on="0"/>
        <pt x="141" y="486" on="0"/>
        <pt x="141" y="524" on="1"/>
        <pt x="141" y="556" on="0"/>
        <pt x="161" y="610" on="0"/>
        <pt x="196" y="649" on="0"/>
        <pt x="245" y="671" on="0"/>
        <pt x="275" y="671" on="1"/>
        <pt x="329" y="671" on="0"/>
        <pt x="386" y="603" on="0"/>
        <pt x="386" y="551" on="1"/>
        <pt x="386" y="519" on="0"/>
        <pt x="360" y="465" on="0"/>
        <pt x="317" y="418" on="0"/>
        <pt x="263" y="374" on="0"/>
        <pt x="235" y="353" on="1"/>
        <pt x="270" y="290" on="0"/>
        <pt x="365" y="173" on="0"/>
        <pt x="416" y="128" on="1"/>
        <pt x="451" y="173" on="0"/>
        <pt x="501" y="282" on="0"/>
        <pt x="518" y="345" on="1"/>
        <pt x="561" y="345" on="1"/>
        <pt x="541" y="277" on="0"/>
        <pt x="484" y="154" on="0"/>
        <pt x="446" y="103" on="1"/>
        <pt x="480" y="75" on="0"/>
        <pt x="543" y="38" on="0"/>
        <pt x="571" y="27" on="1"/>
      </contour>
    </TTGlyph>
    <TTGlyph name="aogonek" xMin="92" yMin="-203" xMax="526" yMax="492">
      <contour>
        <pt x="92" y="120" on="1"/>
        <pt x="92" y="160" on="0"/>
        <pt x="134" y="220" on="0"/>
        <pt x="223" y="264" on="0"/>
        <pt x="362" y="292" on="0"/>
        <pt x="460" y="301" on="1"/>
        <pt x="460" y="331" on="0"/>
        <pt x="446" y="386" on="0"/>
        <pt x="413" y="428" on="0"/>
        <pt x="358" y="453" on="0"/>
        <pt x="317" y="453" on="1"/>
        <pt x="290" y="453" on="0"/>
        <pt x="238" y="441" on="0"/>
        <pt x="190" y="421" on="0"/>
        <pt x="150" y="398" on="0"/>
        <pt x="135" y="388" on="1"/>
        <pt x="115" y="421" on="1"/>
        <pt x="129" y="431" on="0"/>
        <pt x="174" y="456" on="0"/>
        <pt x="228" y="477" on="0"/>
        <pt x="290" y="492" on="0"/>
        <pt x="322" y="492" on="1"/>
        <pt x="370" y="492" on="0"/>
        <pt x="439" y="463" on="0"/>
        <pt x="483" y="413" on="0"/>
        <pt x="504" y="346" on="0"/>
        <pt x="504" y="307" on="1"/>
        <pt x="504" y="0" on="1"/>
        <pt x="466" y="-19" on="0"/>
        <pt x="418" y="-84" on="0"/>
        <pt x="418" y="-116" on="1"/>
        <pt x="418" y="-142" on="0"/>
        <pt x="448" y="-168" on="0"/>
        <pt x="467" y="-168" on="1"/>
        <pt x="492" y="-168" on="0"/>
        <pt x="510" y="-154" on="1"/>
        <pt x="526" y="-180" on="1"/>
        <pt x="515" y="-190" on="0"/>
        <pt x="477" y="-203" on="0"/>
        <pt x="461" y="-203" on="1"/>
        <pt x="426" y="-203" on="0"/>
        <pt x="380" y="-163" on="0"/>
        <pt x="380" y="-122" on="1"/>
        <pt x="380" y="-84" on="0"/>
        <pt x="432" y="-15" on="0"/>
        <pt x="467" y="7" on="1"/>
        <pt x="462" y="72" on="1"/>
        <pt x="460" y="72" on="1"/>
        <pt x="418" y="39" on="0"/>
        <pt x="313" y="-12" on="0"/>
        <pt x="259" y="-12" on="1"/>
        <pt x="227" y="-12" on="0"/>
        <pt x="166" y="4" on="0"/>
        <pt x="120" y="36" on="0"/>
        <pt x="92" y="86" on="0"/>
      </contour>
      <contour>
        <pt x="137" y="122" on="1"/>
        <pt x="137" y="96" on="0"/>
        <pt x="159" y="60" on="0"/>
        <pt x="196" y="37" on="0"/>
        <pt x="243" y="26" on="0"/>
        <pt x="267" y="26" on="1"/>
        <pt x="356" y="26" on="0"/>
        <pt x="460" y="113" on="1"/>
        <pt x="460" y="267" on="1"/>
        <pt x="368" y="259" on="0"/>
        <pt x="245" y="233" on="0"/>
        <pt x="169" y="197" on="0"/>
        <pt x="137" y="151" on="0"/>
      </contour>
    </TTGlyph>
    <TTGlyph name="aogonek.a" xMin="67" yMin="-203" xMax="516" yMax="492">
      <contour>
        <pt x="114" y="239" on="1"/>
        <pt x="114" y="191" on="0"/>
        <pt x="137" y="113" on="0"/>
        <pt x="181" y="58" on="0"/>
        <pt x="245" y="27" on="0"/>
        <pt x="285" y="27" on="1"/>
        <pt x="327" y="27" on="0"/>
        <pt x="410" y="73" on="0"/>
        <pt x="450" y="115" on="1"/>
        <pt x="450" y="382" on="1"/>
        <pt x="409" y="420" on="0"/>
        <pt x="334" y="453" on="0"/>
        <pt x="296" y="453" on="1"/>
        <pt x="258" y="453" on="0"/>
        <pt x="192" y="420" on="0"/>
        <pt x="142" y="363" on="0"/>
        <pt x="114" y="284" on="0"/>
      </contour>
      <contour>
        <pt x="67" y="239" on="1"/>
        <pt x="67" y="297" on="0"/>
        <pt x="104" y="391" on="0"/>
        <pt x="167" y="457" on="0"/>
        <pt x="249" y="492" on="0"/>
        <pt x="294" y="492" on="1"/>
        <pt x="339" y="492" on="0"/>
        <pt x="415" y="457" on="0"/>
        <pt x="451" y="425" on="1"/>
        <pt x="453" y="425" on="1"/>
        <pt x="458" y="480" on="1"/>
        <pt x="495" y="480" on="1"/>
        <pt x="495" y="0" on="1"/>
        <pt x="453" y="-26" on="0"/>
        <pt x="408" y="-84" on="0"/>
        <pt x="408" y="-116" on="1"/>
        <pt x="408" y="-142" on="0"/>
        <pt x="438" y="-168" on="0"/>
        <pt x="457" y="-168" on="1"/>
        <pt x="482" y="-168" on="0"/>
        <pt x="500" y="-154" on="1"/>
        <pt x="516" y="-180" on="1"/>
        <pt x="505" y="-190" on="0"/>
        <pt x="468" y="-203" on="0"/>
        <pt x="451" y="-203" on="1"/>
        <pt x="417" y="-203" on="0"/>
        <pt x="370" y="-163" on="0"/>
        <pt x="370" y="-122" on="1"/>
        <pt x="370" y="-84" on="0"/>
        <pt x="418" y="-22" on="0"/>
        <pt x="457" y="7" on="1"/>
        <pt x="452" y="71" on="1"/>
        <pt x="450" y="71" on="1"/>
        <pt x="418" y="38" on="0"/>
        <pt x="330" y="-12" on="0"/>
        <pt x="279" y="-12" on="1"/>
        <pt x="232" y="-12" on="0"/>
        <pt x="154" y="21" on="0"/>
        <pt x="98" y="85" on="0"/>
        <pt x="67" y="178" on="0"/>
      </contour>
    </TTGlyph>
    <TTGlyph name="approxequal" xMin="91" yMin="165" xMax="509" yMax="496">
      <component glyphName="asciitilde" x="0" y="102" flags="0x204"/>
      <component glyphName="asciitilde" x="0" y="-101" flags="0x4"/>
    </TTGlyph>
    <TTGlyph name="aring" xMin="92" yMin="-12" xMax="504" yMax="712">
      <component glyphName="a" x="0" y="0" flags="0x204"/>
      <component glyphName="uni030A" x="17" y="0" flags="0x4"/>
    </TTGlyph>
    <TTGlyph name="aring.a" xMin="67" yMin="-12" xMax="495" yMax="712">
      <component glyphName="uni0251" x="0" y="0" flags="0x204"/>
      <component glyphName="uni030A" x="3" y="0" flags="0x4"/>
    </TTGlyph>
    <TTGlyph name="arrowdown" xMin="34" yMin="-24" xMax="566" yMax="526">
      <contour>
        <pt x="298" y="-24" on="1"/>
        <pt x="34" y="245" on="1"/>
        <pt x="61" y="271" on="1"/>
        <pt x="281" y="40" on="1"/>
        <pt x="281" y="526" on="1"/>
        <pt x="319" y="526" on="1"/>
        <pt x="319" y="40" on="1"/>
        <pt x="539" y="271" on="1"/>
        <pt x="566" y="245" on="1"/>
        <pt x="302" y="-24" on="1"/>
      </contour>
    </TTGlyph>
    <TTGlyph name="arrowup" xMin="34" yMin="-24" xMax="566" yMax="526">
      <contour>
        <pt x="302" y="526" on="1"/>
        <pt x="566" y="257" on="1"/>
        <pt x="539" y="231" on="1"/>
        <pt x="319" y="462" on="1"/>
        <pt x="319" y="-24" on="1"/>
        <pt x="281" y="-24" on="1"/>
        <pt x="281" y="462" on="1"/>
        <pt x="61" y="231" on="1"/>
        <pt x="34" y="257" on="1"/>
        <pt x="298" y="526" on="1"/>
      </contour>
    </TTGlyph>
    <TTGlyph name="asciicircum" xMin="126" yMin="290" xMax="474" yMax="670">
      <contour>
        <pt x="277" y="670" on="1"/>
        <pt x="323" y="670" on="1"/>
        <pt x="474" y="290" on="1"/>
        <pt x="431" y="290" on="1"/>
        <pt x="353" y="493" on="1"/>
        <pt x="302" y="626" on="1"/>
        <pt x="298" y="626" on="1"/>
        <pt x="247" y="493" on="1"/>
        <pt x="169" y="290" on="1"/>
        <pt x="126" y="290" on="1"/>
      </contour>
    </TTGlyph>
    <TTGlyph name="asciitilde" xMin="91" yMin="266" xMax="509" yMax="394">
      <contour>
        <pt x="91" y="279" on="1"/>
        <pt x="113" y="346" on="0"/>
        <pt x="177" y="394" on="0"/>
        <pt x="211" y="394" on="1"/>
        <pt x="239" y="394" on="0"/>
        <pt x="287" y="366" on="0"/>
        <pt x="329" y="332" on="0"/>
        <pt x="370" y="304" on="0"/>
        <pt x="391" y="304" on="1"/>
        <pt x="404" y="304" on="0"/>
        <pt x="427" y="310" on="0"/>
        <pt x="448" y="328" on="0"/>
        <pt x="468" y="363" on="0"/>
        <pt x="478" y="393" on="1"/>
        <pt x="509" y="379" on="1"/>
        <pt x="487" y="314" on="0"/>
        <pt x="423" y="266" on="0"/>
        <pt x="389" y="266" on="1"/>
        <pt x="360" y="266" on="0"/>
        <pt x="313" y="294" on="0"/>
        <pt x="271" y="328" on="0"/>
        <pt x="230" y="356" on="0"/>
        <pt x="209" y="356" on="1"/>
        <pt x="196" y="356" on="0"/>
        <pt x="173" y="350" on="0"/>
        <pt x="152" y="331" on="0"/>
        <pt x="132" y="296" on="0"/>
        <pt x="122" y="267" on="1"/>
      </contour>
    </TTGlyph>
    <TTGlyph name="asterisk" xMin="96" yMin="123" xMax="504" yMax="550">
      <contour>
        <pt x="148" y="144" on="1"/>
        <pt x="264" y="315" on="1"/>
        <pt x="96" y="386" on="1"/>
        <pt x="107" y="416" on="1"/>
        <pt x="278" y="355" on="1"/>
        <pt x="284" y="550" on="1"/>
        <pt x="316" y="550" on="1"/>
        <pt x="322" y="355" on="1"/>
        <pt x="493" y="416" on="1"/>
        <pt x="504" y="386" on="1"/>
        <pt x="336" y="315" on="1"/>
        <pt x="452" y="144" on="1"/>
        <pt x="423" y="123" on="1"/>
        <pt x="300" y="292" on="1"/>
        <pt x="177" y="123" on="1"/>
      </contour>
    </TTGlyph>
    <TTGlyph name="asterisk.a" xMin="116" yMin="338" xMax="484" yMax="712">
      <contour>
        <pt x="167" y="358" on="1"/>
        <pt x="264" y="510" on="1"/>
        <pt x="116" y="567" on="1"/>
        <pt x="127" y="597" on="1"/>
        <pt x="278" y="547" on="1"/>
        <pt x="284" y="712" on="1"/>
        <pt x="316" y="712" on="1"/>
        <pt x="322" y="549" on="1"/>
        <pt x="473" y="597" on="1"/>
        <pt x="484" y="567" on="1"/>
        <pt x="336" y="510" on="1"/>
        <pt x="433" y="358" on="1"/>
        <pt x="404" y="338" on="1"/>
        <pt x="300" y="486" on="1"/>
        <pt x="196" y="338" on="1"/>
      </contour>
    </TTGlyph>
    <TTGlyph name="at" xMin="60" yMin="-143" xMax="543" yMax="630">
      <contour>
        <pt x="543" y="100" on="1"/>
        <pt x="511" y="100" on="1"/>
        <pt x="506" y="162" on="1"/>
        <pt x="502" y="162" on="1"/>
        <pt x="490" y="148" on="0"/>
        <pt x="458" y="122" on="0"/>
        <pt x="421" y="101" on="0"/>
        <pt x="381" y="88" on="0"/>
        <pt x="362" y="88" on="1"/>
        <pt x="336" y="88" on="0"/>
        <pt x="289" y="104" on="0"/>
        <pt x="254" y="136" on="0"/>
        <pt x="233" y="183" on="0"/>
        <pt x="233" y="214" on="1"/>
        <pt x="233" y="287" on="0"/>
        <pt x="369" y="368" on="0"/>
        <pt x="506" y="384" on="1"/>
        <pt x="506" y="398" on="1"/>
        <pt x="506" y="438" on="0"/>
        <pt x="488" y="510" on="0"/>
        <pt x="449" y="564" on="0"/>
        <pt x="389" y="595" on="0"/>
        <pt x="346" y="595" on="1"/>
        <pt x="295" y="595" on="0"/>
        <pt x="205" y="548" on="0"/>
        <pt x="138" y="459" on="0"/>
        <pt x="100" y="329" on="0"/>
        <pt x="100" y="246" on="1"/>
        <pt x="100" y="164" on="0"/>
        <pt x="136" y="33" on="0"/>
        <pt x="200" y="-58" on="0"/>
        <pt x="289" y="-107" on="0"/>
        <pt x="342" y="-107" on="1"/>
        <pt x="387" y="-107" on="0"/>
        <pt x="459" y="-82" on="0"/>
        <pt x="488" y="-59" on="1"/>
        <pt x="508" y="-87" on="1"/>
        <pt x="471" y="-115" on="0"/>
        <pt x="390" y="-143" on="0"/>
        <pt x="342" y="-143" on="1"/>
        <pt x="283" y="-143" on="0"/>
        <pt x="181" y="-91" on="0"/>
        <pt x="104" y="9" on="0"/>
        <pt x="60" y="155" on="0"/>
        <pt x="60" y="249" on="1"/>
        <pt x="60" y="340" on="0"/>
        <pt x="104" y="482" on="0"/>
        <pt x="181" y="580" on="0"/>
        <pt x="287" y="630" on="0"/>
        <pt x="349" y="630" on="1"/>
        <pt x="398" y="630" on="0"/>
        <pt x="471" y="594" on="0"/>
        <pt x="519" y="531" on="0"/>
        <pt x="543" y="446" on="0"/>
        <pt x="543" y="396" on="1"/>
      </contour>
      <contour>
        <pt x="274" y="214" on="1"/>
        <pt x="274" y="171" on="0"/>
        <pt x="326" y="124" on="0"/>
        <pt x="370" y="124" on="1"/>
        <pt x="400" y="124" on="0"/>
        <pt x="470" y="164" on="0"/>
        <pt x="504" y="204" on="1"/>
        <pt x="504" y="351" on="1"/>
        <pt x="381" y="334" on="0"/>
        <pt x="274" y="268" on="0"/>
      </contour>
    </TTGlyph>
    <TTGlyph name="at.case" xMin="60" yMin="-14" xMax="543" yMax="671">
      <contour>
        <pt x="543" y="178" on="1"/>
        <pt x="511" y="178" on="1"/>
        <pt x="506" y="240" on="1"/>
        <pt x="502" y="240" on="1"/>
        <pt x="490" y="226" on="0"/>
        <pt x="458" y="200" on="0"/>
        <pt x="421" y="179" on="0"/>
        <pt x="381" y="166" on="0"/>
        <pt x="362" y="166" on="1"/>
        <pt x="336" y="166" on="0"/>
        <pt x="289" y="182" on="0"/>
        <pt x="254" y="214" on="0"/>
        <pt x="233" y="261" on="0"/>
        <pt x="233" y="292" on="1"/>
        <pt x="233" y="365" on="0"/>
        <pt x="369" y="446" on="0"/>
        <pt x="506" y="462" on="1"/>
        <pt x="506" y="474" on="1"/>
        <pt x="506" y="507" on="0"/>
        <pt x="488" y="565" on="0"/>
        <pt x="450" y="610" on="0"/>
        <pt x="389" y="636" on="0"/>
        <pt x="347" y="636" on="1"/>
        <pt x="296" y="636" on="0"/>
        <pt x="206" y="594" on="0"/>
        <pt x="139" y="514" on="0"/>
        <pt x="100" y="398" on="0"/>
        <pt x="100" y="324" on="1"/>
        <pt x="100" y="254" on="0"/>
        <pt x="136" y="142" on="0"/>
        <pt x="200" y="64" on="0"/>
        <pt x="289" y="22" on="0"/>
        <pt x="342" y="22" on="1"/>
        <pt x="387" y="22" on="0"/>
        <pt x="459" y="47" on="0"/>
        <pt x="488" y="70" on="1"/>
        <pt x="508" y="42" on="1"/>
        <pt x="471" y="14" on="0"/>
        <pt x="390" y="-14" on="0"/>
        <pt x="342" y="-14" on="1"/>
        <pt x="283" y="-14" on="0"/>
        <pt x="181" y="31" on="0"/>
        <pt x="104" y="118" on="0"/>
        <pt x="60" y="245" on="0"/>
        <pt x="60" y="327" on="1"/>
        <pt x="60" y="409" on="0"/>
        <pt x="104" y="538" on="0"/>
        <pt x="182" y="625" on="0"/>
        <pt x="288" y="671" on="0"/>
        <pt x="350" y="671" on="1"/>
        <pt x="399" y="671" on="0"/>
        <pt x="472" y="640" on="0"/>
        <pt x="520" y="586" on="0"/>
        <pt x="543" y="513" on="0"/>
        <pt x="543" y="472" on="1"/>
      </contour>
      <contour>
        <pt x="274" y="292" on="1"/>
        <pt x="274" y="249" on="0"/>
        <pt x="326" y="202" on="0"/>
        <pt x="370" y="202" on="1"/>
        <pt x="400" y="202" on="0"/>
        <pt x="470" y="242" on="0"/>
        <pt x="504" y="282" on="1"/>
        <pt x="504" y="429" on="1"/>
        <pt x="381" y="412" on="0"/>
        <pt x="274" y="346" on="0"/>
      </contour>
    </TTGlyph>
    <TTGlyph name="atilde" xMin="92" yMin="-12" xMax="504" yMax="671">
      <component glyphName="a" x="0" y="0" flags="0x204"/>
      <component glyphName="uni0303" x="17" y="0" flags="0x4"/>
    </TTGlyph>
    <TTGlyph name="atilde.a" xMin="67" yMin="-12" xMax="495" yMax="671">
      <component glyphName="uni0251" x="0" y="0" flags="0x204"/>
      <component glyphName="uni0303" x="3" y="0" flags="0x4"/>
    </TTGlyph>
    <TTGlyph name="b" xMin="105" yMin="-12" xMax="533" yMax="719">
      <contour>
        <pt x="105" y="719" on="1"/>
        <pt x="150" y="719" on="1"/>
        <pt x="150" y="511" on="1"/>
        <pt x="147" y="408" on="1"/>
        <pt x="186" y="446" on="0"/>
        <pt x="282" y="492" on="0"/>
        <pt x="329" y="492" on="1"/>
        <pt x="431" y="492" on="0"/>
        <pt x="533" y="359" on="0"/>
        <pt x="533" y="247" on="1"/>
        <pt x="533" y="186" on="0"/>
        <pt x="496" y="90" on="0"/>
        <pt x="435" y="23" on="0"/>
        <pt x="354" y="-12" on="0"/>
        <pt x="310" y="-12" on="1"/>
        <pt x="273" y="-12" on="0"/>
        <pt x="185" y="24" on="0"/>
        <pt x="149" y="54" on="1"/>
        <pt x="147" y="54" on="1"/>
        <pt x="142" y="0" on="1"/>
        <pt x="105" y="0" on="1"/>
      </contour>
      <contour>
        <pt x="150" y="98" on="1"/>
        <pt x="192" y="60" on="0"/>
        <pt x="278" y="27" on="0"/>
        <pt x="308" y="27" on="1"/>
        <pt x="347" y="27" on="0"/>
        <pt x="412" y="59" on="0"/>
        <pt x="459" y="117" on="0"/>
        <pt x="486" y="198" on="0"/>
        <pt x="486" y="247" on="1"/>
        <pt x="486" y="291" on="0"/>
        <pt x="468" y="367" on="0"/>
        <pt x="429" y="422" on="0"/>
        <pt x="366" y="453" on="0"/>
        <pt x="322" y="453" on="1"/>
        <pt x="284" y="453" on="0"/>
        <pt x="195" y="410" on="0"/>
        <pt x="150" y="365" on="1"/>
      </contour>
    </TTGlyph>
    <TTGlyph name="b.sups" xMin="182" yMin="252" xMax="469" yMax="732">
      <contour>
        <pt x="182" y="732" on="1"/>
        <pt x="223" y="732" on="1"/>
        <pt x="223" y="599" on="1"/>
        <pt x="221" y="539" on="1"/>
        <pt x="246" y="559" on="0"/>
        <pt x="304" y="586" on="0"/>
        <pt x="334" y="586" on="1"/>
        <pt x="402" y="586" on="0"/>
        <pt x="469" y="499" on="0"/>
        <pt x="469" y="424" on="1"/>
        <pt x="469" y="383" on="0"/>
        <pt x="445" y="320" on="0"/>
        <pt x="404" y="275" on="0"/>
        <pt x="351" y="252" on="0"/>
        <pt x="322" y="252" on="1"/>
        <pt x="297" y="252" on="0"/>
        <pt x="244" y="273" on="0"/>
        <pt x="221" y="291" on="1"/>
        <pt x="219" y="291" on="1"/>
        <pt x="215" y="260" on="1"/>
        <pt x="182" y="260" on="1"/>
      </contour>
      <contour>
        <pt x="223" y="324" on="1"/>
        <pt x="249" y="304" on="0"/>
        <pt x="297" y="287" on="0"/>
        <pt x="316" y="287" on="1"/>
        <pt x="365" y="287" on="0"/>
        <pt x="426" y="361" on="0"/>
        <pt x="426" y="424" on="1"/>
        <pt x="426" y="452" on="0"/>
        <pt x="415" y="499" on="0"/>
        <pt x="391" y="533" on="0"/>
        <pt x="353" y="552" on="0"/>
        <pt x="325" y="552" on="1"/>
        <pt x="278" y="552" on="0"/>
        <pt x="223" y="503" on="1"/>
      </contour>
    </TTGlyph>
    <TTGlyph name="backslash" xMin="114" yMin="-160" xMax="486" yMax="710">
      <contour>
        <pt x="114" y="710" on="1"/>
        <pt x="159" y="710" on="1"/>
        <pt x="486" y="-160" on="1"/>
        <pt x="441" y="-160" on="1"/>
      </contour>
    </TTGlyph>
    <TTGlyph name="bar" xMin="280" yMin="-250" xMax="320" yMax="750">
      <contour>
        <pt x="280" y="750" on="1"/>
        <pt x="320" y="750" on="1"/>
        <pt x="320" y="-250" on="1"/>
        <pt x="280" y="-250" on="1"/>
      </contour>
    </TTGlyph>
    <TTGlyph name="braceleft" xMin="129" yMin="-152" xMax="505" yMax="708">
      <contour>
        <pt x="269" y="-24" on="1"/>
        <pt x="269" y="32" on="0"/>
        <pt x="278" y="129" on="0"/>
        <pt x="278" y="182" on="1"/>
        <pt x="278" y="197" on="0"/>
        <pt x="266" y="226" on="0"/>
        <pt x="234" y="248" on="0"/>
        <pt x="175" y="262" on="0"/>
        <pt x="129" y="262" on="1"/>
        <pt x="129" y="294" on="1"/>
        <pt x="175" y="294" on="0"/>
        <pt x="234" y="308" on="0"/>
        <pt x="266" y="330" on="0"/>
        <pt x="278" y="359" on="0"/>
        <pt x="278" y="374" on="1"/>
        <pt x="278" y="422" on="0"/>
        <pt x="269" y="529" on="0"/>
        <pt x="269" y="580" on="1"/>
        <pt x="269" y="655" on="0"/>
        <pt x="361" y="708" on="0"/>
        <pt x="453" y="708" on="1"/>
        <pt x="505" y="708" on="1"/>
        <pt x="505" y="678" on="1"/>
        <pt x="447" y="678" on="1"/>
        <pt x="405" y="678" on="0"/>
        <pt x="351" y="666" on="0"/>
        <pt x="321" y="641" on="0"/>
        <pt x="310" y="603" on="0"/>
        <pt x="310" y="576" on="1"/>
        <pt x="310" y="531" on="0"/>
        <pt x="317" y="432" on="0"/>
        <pt x="317" y="384" on="1"/>
        <pt x="317" y="340" on="0"/>
        <pt x="282" y="289" on="0"/>
        <pt x="232" y="280" on="1"/>
        <pt x="232" y="276" on="1"/>
        <pt x="282" y="267" on="0"/>
        <pt x="317" y="216" on="0"/>
        <pt x="317" y="172" on="1"/>
        <pt x="317" y="118" on="0"/>
        <pt x="310" y="30" on="0"/>
        <pt x="310" y="-20" on="1"/>
        <pt x="310" y="-47" on="0"/>
        <pt x="321" y="-85" on="0"/>
        <pt x="351" y="-110" on="0"/>
        <pt x="405" y="-122" on="0"/>
        <pt x="447" y="-122" on="1"/>
        <pt x="505" y="-122" on="1"/>
        <pt x="505" y="-152" on="1"/>
        <pt x="453" y="-152" on="1"/>
        <pt x="361" y="-152" on="0"/>
        <pt x="269" y="-99" on="0"/>
      </contour>
    </TTGlyph>
    <TTGlyph name="braceright" xMin="95" yMin="-152" xMax="470" yMax="708">
      <contour>
        <pt x="153" y="-122" on="1"/>
        <pt x="195" y="-122" on="0"/>
        <pt x="249" y="-110" on="0"/>
        <pt x="280" y="-85" on="0"/>
        <pt x="292" y="-47" on="0"/>
        <pt x="292" y="-20" on="1"/>
        <pt x="292" y="30" on="0"/>
        <pt x="284" y="118" on="0"/>
        <pt x="284" y="172" on="1"/>
        <pt x="284" y="215" on="0"/>
        <pt x="318" y="267" on="0"/>
        <pt x="368" y="276" on="1"/>
        <pt x="368" y="280" on="1"/>
        <pt x="318" y="289" on="0"/>
        <pt x="284" y="340" on="0"/>
        <pt x="284" y="384" on="1"/>
        <pt x="284" y="432" on="0"/>
        <pt x="292" y="531" on="0"/>
        <pt x="292" y="576" on="1"/>
        <pt x="292" y="603" on="0"/>
        <pt x="280" y="641" on="0"/>
        <pt x="249" y="666" on="0"/>
        <pt x="195" y="678" on="0"/>
        <pt x="153" y="678" on="1"/>
        <pt x="95" y="678" on="1"/>
        <pt x="95" y="708" on="1"/>
        <pt x="147" y="708" on="1"/>
        <pt x="240" y="708" on="0"/>
        <pt x="330" y="655" on="0"/>
        <pt x="330" y="580" on="1"/>
        <pt x="330" y="529" on="0"/>
        <pt x="322" y="422" on="0"/>
        <pt x="322" y="374" on="1"/>
        <pt x="322" y="359" on="0"/>
        <pt x="334" y="330" on="0"/>
        <pt x="366" y="308" on="0"/>
        <pt x="424" y="294" on="0"/>
        <pt x="470" y="294" on="1"/>
        <pt x="470" y="262" on="1"/>
        <pt x="424" y="262" on="0"/>
        <pt x="366" y="248" on="0"/>
        <pt x="334" y="226" on="0"/>
        <pt x="322" y="197" on="0"/>
        <pt x="322" y="182" on="1"/>
        <pt x="322" y="129" on="0"/>
        <pt x="330" y="32" on="0"/>
        <pt x="330" y="-24" on="1"/>
        <pt x="330" y="-99" on="0"/>
        <pt x="240" y="-152" on="0"/>
        <pt x="147" y="-152" on="1"/>
        <pt x="95" y="-152" on="1"/>
        <pt x="95" y="-122" on="1"/>
      </contour>
    </TTGlyph>
    <TTGlyph name="bracketleft" xMin="240" yMin="-152" xMax="505" yMax="708">
      <contour>
        <pt x="240" y="708" on="1"/>
        <pt x="505" y="708" on="1"/>
        <pt x="505" y="678" on="1"/>
        <pt x="279" y="678" on="1"/>
        <pt x="279" y="-122" on="1"/>
        <pt x="505" y="-122" on="1"/>
        <pt x="505" y="-152" on="1"/>
        <pt x="240" y="-152" on="1"/>
      </contour>
    </TTGlyph>
    <TTGlyph name="bracketright" xMin="95" yMin="-152" xMax="360" yMax="708">
      <contour>
        <pt x="321" y="-122" on="1"/>
        <pt x="321" y="678" on="1"/>
        <pt x="95" y="678" on="1"/>
        <pt x="95" y="708" on="1"/>
        <pt x="360" y="708" on="1"/>
        <pt x="360" y="-152" on="1"/>
        <pt x="95" y="-152" on="1"/>
        <pt x="95" y="-122" on="1"/>
      </contour>
    </TTGlyph>
    <TTGlyph name="breve" xMin="180" yMin="576" xMax="420" yMax="697">
      <component glyphName="uni0306" x="0" y="0" flags="0x204"/>
    </TTGlyph>
    <TTGlyph name="brokenbar" xMin="280" yMin="-250" xMax="320" yMax="750">
      <contour>
        <pt x="280" y="750" on="1"/>
        <pt x="320" y="750" on="1"/>
        <pt x="320" y="279" on="1"/>
        <pt x="280" y="279" on="1"/>
      </contour>
      <contour>
        <pt x="320" y="220" on="1"/>
        <pt x="320" y="-250" on="1"/>
        <pt x="280" y="-250" on="1"/>
        <pt x="280" y="220" on="1"/>
      </contour>
    </TTGlyph>
    <TTGlyph name="bullet" xMin="161" yMin="123" xMax="439" yMax="401">
      <contour>
        <pt x="300" y="123" on="1"/>
        <pt x="273" y="123" on="0"/>
        <pt x="223" y="143" on="0"/>
        <pt x="184" y="179" on="0"/>
        <pt x="161" y="230" on="0"/>
        <pt x="161" y="262" on="1"/>
        <pt x="161" y="294" on="0"/>
        <pt x="184" y="345" on="0"/>
        <pt x="223" y="381" on="0"/>
        <pt x="273" y="401" on="0"/>
        <pt x="300" y="401" on="1"/>
        <pt x="327" y="401" on="0"/>
        <pt x="377" y="381" on="0"/>
        <pt x="416" y="345" on="0"/>
        <pt x="439" y="294" on="0"/>
        <pt x="439" y="262" on="1"/>
        <pt x="439" y="230" on="0"/>
        <pt x="416" y="179" on="0"/>
        <pt x="377" y="143" on="0"/>
        <pt x="327" y="123" on="0"/>
      </contour>
    </TTGlyph>
    <TTGlyph name="c" xMin="87" yMin="-12" xMax="534" yMax="492">
      <contour>
        <pt x="87" y="239" on="1"/>
        <pt x="87" y="299" on="0"/>
        <pt x="128" y="394" on="0"/>
        <pt x="200" y="458" on="0"/>
        <pt x="295" y="492" on="0"/>
        <pt x="349" y="492" on="1"/>
        <pt x="409" y="492" on="0"/>
        <pt x="492" y="448" on="0"/>
        <pt x="522" y="419" on="1"/>
        <pt x="496" y="389" on="1"/>
        <pt x="465" y="418" on="0"/>
        <pt x="395" y="453" on="0"/>
        <pt x="350" y="453" on="1"/>
        <pt x="302" y="453" on="0"/>
        <pt x="222" y="422" on="0"/>
        <pt x="165" y="365" on="0"/>
        <pt x="134" y="287" on="0"/>
        <pt x="134" y="239" on="1"/>
        <pt x="134" y="192" on="0"/>
        <pt x="165" y="114" on="0"/>
        <pt x="221" y="58" on="0"/>
        <pt x="301" y="27" on="0"/>
        <pt x="349" y="27" on="1"/>
        <pt x="398" y="27" on="0"/>
        <pt x="479" y="66" on="0"/>
        <pt x="511" y="96" on="1"/>
        <pt x="534" y="65" on="1"/>
        <pt x="497" y="30" on="0"/>
        <pt x="404" y="-12" on="0"/>
        <pt x="347" y="-12" on="1"/>
        <pt x="291" y="-12" on="0"/>
        <pt x="196" y="22" on="0"/>
        <pt x="126" y="86" on="0"/>
        <pt x="87" y="179" on="0"/>
      </contour>
    </TTGlyph>
    <TTGlyph name="c.sups" xMin="187" yMin="252" xMax="458" yMax="586">
      <contour>
        <pt x="187" y="419" on="1"/>
        <pt x="187" y="459" on="0"/>
        <pt x="213" y="521" on="0"/>
        <pt x="257" y="564" on="0"/>
        <pt x="316" y="586" on="0"/>
        <pt x="348" y="586" on="1"/>
        <pt x="383" y="586" on="0"/>
        <pt x="432" y="563" on="0"/>
        <pt x="450" y="548" on="1"/>
        <pt x="428" y="520" on="1"/>
        <pt x="411" y="534" on="0"/>
        <pt x="373" y="553" on="0"/>
        <pt x="350" y="553" on="1"/>
        <pt x="297" y="553" on="0"/>
        <pt x="228" y="478" on="0"/>
        <pt x="228" y="419" on="1"/>
        <pt x="228" y="359" on="0"/>
        <pt x="294" y="287" on="0"/>
        <pt x="348" y="287" on="1"/>
        <pt x="376" y="287" on="0"/>
        <pt x="422" y="307" on="0"/>
        <pt x="439" y="321" on="1"/>
        <pt x="458" y="294" on="1"/>
        <pt x="435" y="275" on="0"/>
        <pt x="378" y="252" on="0"/>
        <pt x="346" y="252" on="1"/>
        <pt x="312" y="252" on="0"/>
        <pt x="254" y="274" on="0"/>
        <pt x="211" y="317" on="0"/>
        <pt x="187" y="379" on="0"/>
      </contour>
    </TTGlyph>
    <TTGlyph name="cacute" xMin="87" yMin="-12" xMax="534" yMax="710">
      <component glyphName="c" x="0" y="0" flags="0x204"/>
      <component glyphName="uni0301" x="45" y="0" flags="0x4"/>
    </TTGlyph>
    <TTGlyph name="caron" xMin="185" yMin="572" xMax="415" yMax="710">
      <component glyphName="uni030C" x="0" y="0" flags="0x204"/>
    </TTGlyph>
    <TTGlyph name="ccaron" xMin="87" yMin="-12" xMax="534" yMax="710">
      <component glyphName="c" x="0" y="0" flags="0x204"/>
      <component glyphName="uni030C" x="45" y="0" flags="0x4"/>
    </TTGlyph>
    <TTGlyph name="ccedilla" xMin="87" yMin="-208" xMax="534" yMax="492">
      <component glyphName="c" x="0" y="0" flags="0x204"/>
      <component glyphName="uni0327" x="43" y="0" flags="0x4"/>
    </TTGlyph>
    <TTGlyph name="ccircumflex" xMin="87" yMin="-12" xMax="534" yMax="710">
      <component glyphName="c" x="0" y="0" flags="0x204"/>
      <component glyphName="uni0302" x="45" y="0" flags="0x4"/>
    </TTGlyph>
    <TTGlyph name="cdotaccent" xMin="87" yMin="-12" xMax="534" yMax="692">
      <component glyphName="c" x="0" y="0" flags="0x204"/>
      <component glyphName="uni0307" x="45" y="0" flags="0x4"/>
    </TTGlyph>
    <TTGlyph name="cedilla" xMin="235" yMin="-208" xMax="367" yMax="2">
      <component glyphName="uni0327" x="9" y="0" flags="0x204"/>
    </TTGlyph>
    <TTGlyph name="cent" xMin="122" yMin="-28" xMax="496" yMax="652">
      <contour>
        <pt x="315" y="502" on="1"/>
        <pt x="283" y="497" on="0"/>
        <pt x="229" y="465" on="0"/>
        <pt x="190" y="415" on="0"/>
        <pt x="168" y="350" on="0"/>
        <pt x="168" y="311" on="1"/>
        <pt x="168" y="233" on="0"/>
        <pt x="247" y="131" on="0"/>
        <pt x="315" y="121" on="1"/>
      </contour>
      <contour>
        <pt x="496" y="144" on="1"/>
        <pt x="467" y="118" on="0"/>
        <pt x="394" y="82" on="0"/>
        <pt x="350" y="80" on="1"/>
        <pt x="350" y="-28" on="1"/>
        <pt x="315" y="-28" on="1"/>
        <pt x="315" y="81" on="1"/>
        <pt x="273" y="85" on="0"/>
        <pt x="202" y="119" on="0"/>
        <pt x="151" y="178" on="0"/>
        <pt x="122" y="260" on="0"/>
        <pt x="122" y="311" on="1"/>
        <pt x="122" y="363" on="0"/>
        <pt x="152" y="444" on="0"/>
        <pt x="205" y="502" on="0"/>
        <pt x="275" y="536" on="0"/>
        <pt x="315" y="541" on="1"/>
        <pt x="315" y="652" on="1"/>
        <pt x="350" y="652" on="1"/>
        <pt x="350" y="543" on="1"/>
        <pt x="397" y="541" on="0"/>
        <pt x="461" y="506" on="0"/>
        <pt x="484" y="483" on="1"/>
        <pt x="460" y="455" on="1"/>
        <pt x="437" y="475" on="0"/>
        <pt x="384" y="502" on="0"/>
        <pt x="350" y="504" on="1"/>
        <pt x="350" y="119" on="1"/>
        <pt x="387" y="121" on="0"/>
        <pt x="449" y="151" on="0"/>
        <pt x="473" y="173" on="1"/>
      </contour>
    </TTGlyph>
    <TTGlyph name="circumflex" xMin="185" yMin="572" xMax="415" yMax="710">
      <component glyphName="uni0302" x="0" y="0" flags="0x204"/>
    </TTGlyph>
    <TTGlyph name="colon" xMin="240" yMin="-12" xMax="360" yMax="496">
      <component glyphName="period" x="0" y="378" flags="0x204"/>
      <component glyphName="period" x="0" y="0" flags="0x4"/>
    </TTGlyph>
    <TTGlyph name="colonmonetary" xMin="106" yMin="-110" xMax="536" yMax="749">
      <contour>
        <pt x="275" y="43" on="1"/>
        <pt x="303" y="29" on="0"/>
        <pt x="341" y="26" on="1"/>
        <pt x="410" y="606" on="1"/>
        <pt x="390" y="613" on="0"/>
        <pt x="364" y="613" on="1"/>
        <pt x="359" y="613" on="0"/>
        <pt x="348" y="613" on="0"/>
        <pt x="343" y="612" on="1"/>
      </contour>
      <contour>
        <pt x="311" y="606" on="1"/>
        <pt x="235" y="586" on="0"/>
        <pt x="154" y="437" on="0"/>
        <pt x="154" y="322" on="1"/>
        <pt x="154" y="231" on="0"/>
        <pt x="201" y="98" on="0"/>
        <pt x="246" y="62" on="1"/>
      </contour>
      <contour>
        <pt x="536" y="82" on="1"/>
        <pt x="502" y="41" on="0"/>
        <pt x="423" y="-8" on="0"/>
        <pt x="368" y="-11" on="1"/>
        <pt x="356" y="-110" on="1"/>
        <pt x="325" y="-110" on="1"/>
        <pt x="337" y="-12" on="1"/>
        <pt x="319" y="-10" on="0"/>
        <pt x="286" y="-4" on="0"/>
        <pt x="270" y="2" on="1"/>
        <pt x="257" y="-110" on="1"/>
        <pt x="226" y="-110" on="1"/>
        <pt x="241" y="16" on="1"/>
        <pt x="178" y="53" on="0"/>
        <pt x="106" y="210" on="0"/>
        <pt x="106" y="321" on="1"/>
        <pt x="106" y="457" on="0"/>
        <pt x="218" y="628" on="0"/>
        <pt x="316" y="646" on="1"/>
        <pt x="328" y="749" on="1"/>
        <pt x="359" y="749" on="1"/>
        <pt x="347" y="650" on="1"/>
        <pt x="352" y="651" on="0"/>
        <pt x="361" y="651" on="0"/>
        <pt x="366" y="651" on="1"/>
        <pt x="391" y="651" on="0"/>
        <pt x="415" y="645" on="1"/>
        <pt x="427" y="749" on="1"/>
        <pt x="458" y="749" on="1"/>
        <pt x="444" y="634" on="1"/>
        <pt x="470" y="623" on="0"/>
        <pt x="511" y="591" on="0"/>
        <pt x="526" y="573" on="1"/>
        <pt x="497" y="546" on="1"/>
        <pt x="484" y="560" on="0"/>
        <pt x="456" y="585" on="0"/>
        <pt x="440" y="593" on="1"/>
        <pt x="372" y="27" on="1"/>
        <pt x="413" y="31" on="0"/>
        <pt x="476" y="71" on="0"/>
        <pt x="507" y="107" on="1"/>
      </contour>
    </TTGlyph>
    <TTGlyph name="comma" xMin="205" yMin="-211" xMax="376" yMax="119">
      <contour>
        <pt x="205" y="-178" on="1"/>
        <pt x="265" y="-149" on="0"/>
        <pt x="327" y="-63" on="0"/>
        <pt x="329" y="3" on="1"/>
        <pt x="317" y="0" on="0"/>
        <pt x="306" y="0" on="1"/>
        <pt x="280" y="0" on="0"/>
        <pt x="246" y="29" on="0"/>
        <pt x="246" y="59" on="1"/>
        <pt x="246" y="90" on="0"/>
        <pt x="283" y="119" on="0"/>
        <pt x="306" y="119" on="1"/>
        <pt x="341" y="119" on="0"/>
        <pt x="376" y="64" on="0"/>
        <pt x="376" y="17" on="1"/>
        <pt x="376" y="-67" on="0"/>
        <pt x="291" y="-181" on="0"/>
        <pt x="221" y="-211" on="1"/>
      </contour>
    </TTGlyph>
    <TTGlyph name="comma.dnom" xMin="254" yMin="-107" xMax="346" yMax="67">
      <contour>
        <pt x="254" y="-81" on="1"/>
        <pt x="279" y="-70" on="0"/>
        <pt x="310" y="-30" on="0"/>
        <pt x="311" y="-1" on="1"/>
        <pt x="308" y="-2" on="0"/>
        <pt x="302" y="-2" on="1"/>
        <pt x="288" y="-2" on="0"/>
        <pt x="266" y="13" on="0"/>
        <pt x="266" y="30" on="1"/>
        <pt x="266" y="48" on="0"/>
        <pt x="288" y="67" on="0"/>
        <pt x="302" y="67" on="1"/>
        <pt x="322" y="67" on="0"/>
        <pt x="346" y="37" on="0"/>
        <pt x="346" y="8" on="1"/>
        <pt x="346" y="-29" on="0"/>
        <pt x="302" y="-92" on="0"/>
        <pt x="267" y="-107" on="1"/>
      </contour>
    </TTGlyph>
    <TTGlyph name="comma.numr" xMin="254" yMin="162" xMax="346" yMax="336">
      <component glyphName="comma.dnom" x="0" y="269" flags="0x204"/>
    </TTGlyph>
    <TTGlyph name="comma.subs" xMin="254" yMin="-276" xMax="346" yMax="-102">
      <component glyphName="comma.dnom" x="0" y="-169" flags="0x204"/>
    </TTGlyph>
    <TTGlyph name="comma.sups" xMin="254" yMin="333" xMax="346" yMax="507">
      <component glyphName="comma.dnom" x="0" y="440" flags="0x204"/>
    </TTGlyph>
    <TTGlyph name="copyright" xMin="37" yMin="-12" xMax="563" yMax="652">
      <contour>
        <pt x="37" y="322" on="1"/>
        <pt x="37" y="398" on="0"/>
        <pt x="76" y="520" on="0"/>
        <pt x="146" y="606" on="0"/>
        <pt x="242" y="652" on="0"/>
        <pt x="300" y="652" on="1"/>
        <pt x="358" y="652" on="0"/>
        <pt x="454" y="606" on="0"/>
        <pt x="524" y="520" on="0"/>
        <pt x="563" y="398" on="0"/>
        <pt x="563" y="322" on="1"/>
        <pt x="563" y="246" on="0"/>
        <pt x="524" y="123" on="0"/>
        <pt x="454" y="36" on="0"/>
        <pt x="358" y="-12" on="0"/>
        <pt x="300" y="-12" on="1"/>
        <pt x="242" y="-12" on="0"/>
        <pt x="146" y="36" on="0"/>
        <pt x="76" y="123" on="0"/>
        <pt x="37" y="246" on="0"/>
      </contour>
      <contour>
        <pt x="72" y="322" on="1"/>
        <pt x="72" y="254" on="0"/>
        <pt x="105" y="142" on="0"/>
        <pt x="165" y="63" on="0"/>
        <pt x="249" y="19" on="0"/>
        <pt x="300" y="19" on="1"/>
        <pt x="351" y="19" on="0"/>
        <pt x="435" y="63" on="0"/>
        <pt x="495" y="142" on="0"/>
        <pt x="528" y="254" on="0"/>
        <pt x="528" y="322" on="1"/>
        <pt x="528" y="390" on="0"/>
        <pt x="495" y="501" on="0"/>
        <pt x="435" y="579" on="0"/>
        <pt x="351" y="622" on="0"/>
        <pt x="300" y="622" on="1"/>
        <pt x="249" y="622" on="0"/>
        <pt x="165" y="579" on="0"/>
        <pt x="105" y="501" on="0"/>
        <pt x="72" y="390" on="0"/>
      </contour>
      <contour>
        <pt x="150" y="322" on="1"/>
        <pt x="150" y="365" on="0"/>
        <pt x="176" y="435" on="0"/>
        <pt x="220" y="483" on="0"/>
        <pt x="278" y="509" on="0"/>
        <pt x="310" y="509" on="1"/>
        <pt x="344" y="509" on="0"/>
        <pt x="390" y="484" on="0"/>
        <pt x="410" y="464" on="1"/>
        <pt x="387" y="438" on="1"/>
        <pt x="369" y="455" on="0"/>
        <pt x="334" y="472" on="0"/>
        <pt x="310" y="472" on="1"/>
        <pt x="284" y="472" on="0"/>
        <pt x="242" y="450" on="0"/>
        <pt x="210" y="411" on="0"/>
        <pt x="193" y="356" on="0"/>
        <pt x="193" y="322" on="1"/>
        <pt x="193" y="247" on="0"/>
        <pt x="256" y="161" on="0"/>
        <pt x="307" y="161" on="1"/>
        <pt x="337" y="161" on="0"/>
        <pt x="381" y="184" on="0"/>
        <pt x="401" y="201" on="1"/>
        <pt x="420" y="173" on="1"/>
        <pt x="397" y="153" on="0"/>
        <pt x="346" y="124" on="0"/>
        <pt x="305" y="124" on="1"/>
        <pt x="273" y="124" on="0"/>
        <pt x="217" y="151" on="0"/>
        <pt x="175" y="202" on="0"/>
        <pt x="150" y="275" on="0"/>
      </contour>
    </TTGlyph>
    <TTGlyph name="currency" xMin="71" yMin="94" xMax="529" yMax="566">
      <contour>
        <pt x="71" y="122" on="1"/>
        <pt x="156" y="209" on="1"/>
        <pt x="139" y="233" on="0"/>
        <pt x="119" y="293" on="0"/>
        <pt x="119" y="328" on="1"/>
        <pt x="119" y="364" on="0"/>
        <pt x="139" y="426" on="0"/>
        <pt x="156" y="450" on="1"/>
        <pt x="71" y="538" on="1"/>
        <pt x="98" y="566" on="1"/>
        <pt x="184" y="477" on="1"/>
        <pt x="207" y="498" on="0"/>
        <pt x="267" y="521" on="0"/>
        <pt x="300" y="521" on="1"/>
        <pt x="332" y="521" on="0"/>
        <pt x="392" y="498" on="0"/>
        <pt x="416" y="477" on="1"/>
        <pt x="502" y="566" on="1"/>
        <pt x="529" y="538" on="1"/>
        <pt x="443" y="450" on="1"/>
        <pt x="460" y="426" on="0"/>
        <pt x="481" y="364" on="0"/>
        <pt x="481" y="328" on="1"/>
        <pt x="481" y="293" on="0"/>
        <pt x="460" y="233" on="0"/>
        <pt x="443" y="209" on="1"/>
        <pt x="529" y="122" on="1"/>
        <pt x="502" y="94" on="1"/>
        <pt x="416" y="182" on="1"/>
        <pt x="393" y="160" on="0"/>
        <pt x="332" y="137" on="0"/>
        <pt x="300" y="137" on="1"/>
        <pt x="233" y="137" on="0"/>
        <pt x="183" y="182" on="1"/>
        <pt x="98" y="94" on="1"/>
      </contour>
      <contour>
        <pt x="163" y="328" on="1"/>
        <pt x="163" y="294" on="0"/>
        <pt x="185" y="237" on="0"/>
        <pt x="222" y="197" on="0"/>
        <pt x="272" y="174" on="0"/>
        <pt x="300" y="174" on="1"/>
        <pt x="328" y="174" on="0"/>
        <pt x="377" y="197" on="0"/>
        <pt x="415" y="237" on="0"/>
        <pt x="437" y="294" on="0"/>
        <pt x="437" y="328" on="1"/>
        <pt x="437" y="362" on="0"/>
        <pt x="415" y="420" on="0"/>
        <pt x="377" y="461" on="0"/>
        <pt x="328" y="484" on="0"/>
        <pt x="300" y="484" on="1"/>
        <pt x="272" y="484" on="0"/>
        <pt x="222" y="461" on="0"/>
        <pt x="185" y="420" on="0"/>
        <pt x="163" y="362" on="0"/>
      </contour>
    </TTGlyph>
    <TTGlyph name="d" xMin="67" yMin="-12" xMax="495" yMax="719">
      <contour>
        <pt x="67" y="239" on="1"/>
        <pt x="67" y="297" on="0"/>
        <pt x="104" y="391" on="0"/>
        <pt x="167" y="457" on="0"/>
        <pt x="248" y="492" on="0"/>
        <pt x="293" y="492" on="1"/>
        <pt x="340" y="492" on="0"/>
        <pt x="415" y="456" on="0"/>
        <pt x="453" y="424" on="1"/>
        <pt x="450" y="521" on="1"/>
        <pt x="450" y="719" on="1"/>
        <pt x="495" y="719" on="1"/>
        <pt x="495" y="0" on="1"/>
        <pt x="457" y="0" on="1"/>
        <pt x="452" y="71" on="1"/>
        <pt x="450" y="71" on="1"/>
        <pt x="418" y="38" on="0"/>
        <pt x="330" y="-12" on="0"/>
        <pt x="279" y="-12" on="1"/>
        <pt x="232" y="-12" on="0"/>
        <pt x="154" y="21" on="0"/>
        <pt x="98" y="85" on="0"/>
        <pt x="67" y="178" on="0"/>
      </contour>
      <contour>
        <pt x="114" y="239" on="1"/>
        <pt x="114" y="191" on="0"/>
        <pt x="137" y="113" on="0"/>
        <pt x="181" y="58" on="0"/>
        <pt x="245" y="27" on="0"/>
        <pt x="285" y="27" on="1"/>
        <pt x="327" y="27" on="0"/>
        <pt x="410" y="73" on="0"/>
        <pt x="450" y="115" on="1"/>
        <pt x="450" y="382" on="1"/>
        <pt x="409" y="420" on="0"/>
        <pt x="334" y="453" on="0"/>
        <pt x="296" y="453" on="1"/>
        <pt x="258" y="453" on="0"/>
        <pt x="192" y="420" on="0"/>
        <pt x="142" y="363" on="0"/>
        <pt x="114" y="284" on="0"/>
      </contour>
    </TTGlyph>
    <TTGlyph name="d.sups" xMin="142" yMin="252" xMax="429" yMax="732">
      <contour>
        <pt x="142" y="419" on="1"/>
        <pt x="142" y="458" on="0"/>
        <pt x="166" y="519" on="0"/>
        <pt x="207" y="563" on="0"/>
        <pt x="260" y="586" on="0"/>
        <pt x="290" y="586" on="1"/>
        <pt x="321" y="586" on="0"/>
        <pt x="366" y="566" on="0"/>
        <pt x="391" y="548" on="1"/>
        <pt x="388" y="605" on="1"/>
        <pt x="388" y="732" on="1"/>
        <pt x="429" y="732" on="1"/>
        <pt x="429" y="260" on="1"/>
        <pt x="395" y="260" on="1"/>
        <pt x="391" y="300" on="1"/>
        <pt x="390" y="300" on="1"/>
        <pt x="369" y="280" on="0"/>
        <pt x="314" y="252" on="0"/>
        <pt x="281" y="252" on="1"/>
        <pt x="218" y="252" on="0"/>
        <pt x="142" y="338" on="0"/>
      </contour>
      <contour>
        <pt x="184" y="419" on="1"/>
        <pt x="184" y="358" on="0"/>
        <pt x="238" y="287" on="0"/>
        <pt x="289" y="287" on="1"/>
        <pt x="340" y="287" on="0"/>
        <pt x="388" y="335" on="1"/>
        <pt x="388" y="514" on="1"/>
        <pt x="363" y="534" on="0"/>
        <pt x="318" y="552" on="0"/>
        <pt x="295" y="552" on="1"/>
        <pt x="271" y="552" on="0"/>
        <pt x="231" y="532" on="0"/>
        <pt x="201" y="497" on="0"/>
        <pt x="184" y="448" on="0"/>
      </contour>
    </TTGlyph>
    <TTGlyph name="dagger" xMin="150" yMin="-80" xMax="450" yMax="712">
      <contour>
        <pt x="282" y="522" on="1"/>
        <pt x="150" y="520" on="1"/>
        <pt x="150" y="562" on="1"/>
        <pt x="282" y="559" on="1"/>
        <pt x="279" y="712" on="1"/>
        <pt x="321" y="712" on="1"/>
        <pt x="318" y="559" on="1"/>
        <pt x="450" y="562" on="1"/>
        <pt x="450" y="520" on="1"/>
        <pt x="318" y="522" on="1"/>
        <pt x="321" y="-80" on="1"/>
        <pt x="279" y="-80" on="1"/>
      </contour>
    </TTGlyph>
    <TTGlyph name="daggerdbl" xMin="150" yMin="-80" xMax="450" yMax="712">
      <contour>
        <pt x="150" y="112" on="1"/>
        <pt x="282" y="109" on="1"/>
        <pt x="279" y="316" on="1"/>
        <pt x="282" y="523" on="1"/>
        <pt x="150" y="520" on="1"/>
        <pt x="150" y="562" on="1"/>
        <pt x="282" y="559" on="1"/>
        <pt x="279" y="712" on="1"/>
        <pt x="321" y="712" on="1"/>
        <pt x="318" y="559" on="1"/>
        <pt x="450" y="562" on="1"/>
        <pt x="450" y="520" on="1"/>
        <pt x="318" y="523" on="1"/>
        <pt x="321" y="316" on="1"/>
        <pt x="318" y="109" on="1"/>
        <pt x="450" y="112" on="1"/>
        <pt x="450" y="70" on="1"/>
        <pt x="318" y="73" on="1"/>
        <pt x="321" y="-80" on="1"/>
        <pt x="279" y="-80" on="1"/>
        <pt x="282" y="73" on="1"/>
        <pt x="150" y="70" on="1"/>
      </contour>
    </TTGlyph>
    <TTGlyph name="dcaron" xMin="65" yMin="-12" xMax="575" yMax="754">
      <component glyphName="d" x="-2" y="0" flags="0x204"/>
      <component glyphName="uni030C.a" x="269" y="0" flags="0x4"/>
    </TTGlyph>
    <TTGlyph name="dcroat" xMin="67" yMin="-12" xMax="569" yMax="719">
      <contour>
        <pt x="450" y="362" on="1"/>
        <pt x="409" y="400" on="0"/>
        <pt x="334" y="433" on="0"/>
        <pt x="297" y="433" on="1"/>
        <pt x="259" y="433" on="0"/>
        <pt x="192" y="401" on="0"/>
        <pt x="142" y="346" on="0"/>
        <pt x="114" y="272" on="0"/>
        <pt x="114" y="229" on="1"/>
        <pt x="114" y="138" on="0"/>
        <pt x="204" y="27" on="0"/>
        <pt x="285" y="27" on="1"/>
        <pt x="327" y="27" on="0"/>
        <pt x="410" y="73" on="0"/>
        <pt x="450" y="115" on="1"/>
      </contour>
      <contour>
        <pt x="569" y="585" on="1"/>
        <pt x="495" y="581" on="1"/>
        <pt x="495" y="0" on="1"/>
        <pt x="457" y="0" on="1"/>
        <pt x="452" y="71" on="1"/>
        <pt x="450" y="71" on="1"/>
        <pt x="418" y="38" on="0"/>
        <pt x="330" y="-12" on="0"/>
        <pt x="279" y="-12" on="1"/>
        <pt x="232" y="-12" on="0"/>
        <pt x="154" y="19" on="0"/>
        <pt x="98" y="81" on="0"/>
        <pt x="67" y="170" on="0"/>
        <pt x="67" y="229" on="1"/>
        <pt x="67" y="285" on="0"/>
        <pt x="104" y="375" on="0"/>
        <pt x="167" y="438" on="0"/>
        <pt x="248" y="472" on="0"/>
        <pt x="293" y="472" on="1"/>
        <pt x="340" y="472" on="0"/>
        <pt x="415" y="436" on="0"/>
        <pt x="453" y="404" on="1"/>
        <pt x="450" y="501" on="1"/>
        <pt x="450" y="581" on="1"/>
        <pt x="266" y="581" on="1"/>
        <pt x="266" y="614" on="1"/>
        <pt x="450" y="614" on="1"/>
        <pt x="450" y="719" on="1"/>
        <pt x="495" y="719" on="1"/>
        <pt x="495" y="614" on="1"/>
        <pt x="569" y="614" on="1"/>
      </contour>
    </TTGlyph>
    <TTGlyph name="degree" xMin="186" yMin="447" xMax="414" yMax="684">
      <contour>
        <pt x="300" y="447" on="1"/>
        <pt x="278" y="447" on="0"/>
        <pt x="237" y="463" on="0"/>
        <pt x="205" y="493" on="0"/>
        <pt x="186" y="537" on="0"/>
        <pt x="186" y="565" on="1"/>
        <pt x="186" y="593" on="0"/>
        <pt x="205" y="637" on="0"/>
        <pt x="237" y="668" on="0"/>
        <pt x="278" y="684" on="0"/>
        <pt x="300" y="684" on="1"/>
        <pt x="322" y="684" on="0"/>
        <pt x="363" y="668" on="0"/>
        <pt x="395" y="637" on="0"/>
        <pt x="414" y="593" on="0"/>
        <pt x="414" y="565" on="1"/>
        <pt x="414" y="537" on="0"/>
        <pt x="395" y="493" on="0"/>
        <pt x="363" y="463" on="0"/>
        <pt x="322" y="447" on="0"/>
      </contour>
      <contour>
        <pt x="300" y="479" on="1"/>
        <pt x="335" y="479" on="0"/>
        <pt x="380" y="528" on="0"/>
        <pt x="380" y="565" on="1"/>
        <pt x="380" y="603" on="0"/>
        <pt x="335" y="653" on="0"/>
        <pt x="300" y="653" on="1"/>
        <pt x="265" y="653" on="0"/>
        <pt x="220" y="603" on="0"/>
        <pt x="220" y="565" on="1"/>
        <pt x="220" y="528" on="0"/>
        <pt x="265" y="479" on="0"/>
      </contour>
    </TTGlyph>
    <TTGlyph name="dieresis" xMin="172" yMin="598" xMax="428" yMax="681">
      <component glyphName="uni0308" x="0" y="0" flags="0x204"/>
    </TTGlyph>
    <TTGlyph name="divide" xMin="95" yMin="109" xMax="505" yMax="549">
      <contour>
        <pt x="300" y="469" on="1"/>
        <pt x="284" y="469" on="0"/>
        <pt x="262" y="491" on="0"/>
        <pt x="262" y="510" on="1"/>
        <pt x="262" y="527" on="0"/>
        <pt x="284" y="549" on="0"/>
        <pt x="300" y="549" on="1"/>
        <pt x="316" y="549" on="0"/>
        <pt x="338" y="527" on="0"/>
        <pt x="338" y="510" on="1"/>
        <pt x="338" y="491" on="0"/>
        <pt x="316" y="469" on="0"/>
      </contour>
      <contour>
        <pt x="262" y="150" on="1"/>
        <pt x="262" y="167" on="0"/>
        <pt x="284" y="189" on="0"/>
        <pt x="300" y="189" on="1"/>
        <pt x="316" y="189" on="0"/>
        <pt x="338" y="167" on="0"/>
        <pt x="338" y="150" on="1"/>
        <pt x="338" y="131" on="0"/>
        <pt x="316" y="109" on="0"/>
        <pt x="300" y="109" on="1"/>
        <pt x="284" y="109" on="0"/>
        <pt x="262" y="131" on="0"/>
      </contour>
      <contour>
        <pt x="95" y="349" on="1"/>
        <pt x="505" y="349" on="1"/>
        <pt x="505" y="311" on="1"/>
        <pt x="95" y="311" on="1"/>
      </contour>
    </TTGlyph>
    <TTGlyph name="dollar" xMin="97" yMin="-110" xMax="505" yMax="749">
      <contour>
        <pt x="458" y="518" on="1"/>
        <pt x="441" y="532" on="0"/>
        <pt x="410" y="555" on="0"/>
        <pt x="375" y="571" on="0"/>
        <pt x="333" y="579" on="0"/>
        <pt x="305" y="579" on="1"/>
        <pt x="245" y="579" on="0"/>
        <pt x="172" y="523" on="0"/>
        <pt x="172" y="475" on="1"/>
        <pt x="172" y="442" on="0"/>
        <pt x="221" y="399" on="0"/>
        <pt x="295" y="365" on="0"/>
        <pt x="382" y="335" on="0"/>
        <pt x="456" y="293" on="0"/>
        <pt x="505" y="233" on="0"/>
        <pt x="505" y="187" on="1"/>
        <pt x="505" y="154" on="0"/>
        <pt x="477" y="99" on="0"/>
        <pt x="429" y="60" on="0"/>
        <pt x="364" y="37" on="0"/>
        <pt x="327" y="35" on="1"/>
        <pt x="327" y="-110" on="1"/>
        <pt x="288" y="-110" on="1"/>
        <pt x="288" y="35" on="1"/>
        <pt x="228" y="39" on="0"/>
        <pt x="129" y="85" on="0"/>
        <pt x="97" y="112" on="1"/>
        <pt x="121" y="144" on="1"/>
        <pt x="153" y="118" on="0"/>
        <pt x="248" y="73" on="0"/>
        <pt x="311" y="73" on="1"/>
        <pt x="383" y="73" on="0"/>
        <pt x="459" y="135" on="0"/>
        <pt x="459" y="184" on="1"/>
        <pt x="459" y="221" on="0"/>
        <pt x="410" y="269" on="0"/>
        <pt x="336" y="305" on="0"/>
        <pt x="250" y="336" on="0"/>
        <pt x="176" y="376" on="0"/>
        <pt x="127" y="431" on="0"/>
        <pt x="127" y="473" on="1"/>
        <pt x="127" y="504" on="0"/>
        <pt x="151" y="555" on="0"/>
        <pt x="194" y="592" on="0"/>
        <pt x="253" y="614" on="0"/>
        <pt x="288" y="617" on="1"/>
        <pt x="288" y="749" on="1"/>
        <pt x="327" y="749" on="1"/>
        <pt x="327" y="618" on="1"/>
        <pt x="383" y="614" on="0"/>
        <pt x="455" y="574" on="0"/>
        <pt x="484" y="546" on="1"/>
      </contour>
    </TTGlyph>
    <TTGlyph name="dollar.a" xMin="97" yMin="-112" xMax="506" yMax="752">
      <contour>
        <pt x="278" y="75" on="1"/>
        <pt x="286" y="74" on="0"/>
        <pt x="303" y="73" on="0"/>
        <pt x="312" y="73" on="1"/>
        <pt x="384" y="73" on="0"/>
        <pt x="460" y="135" on="0"/>
        <pt x="460" y="184" on="1"/>
        <pt x="460" y="208" on="0"/>
        <pt x="437" y="245" on="0"/>
        <pt x="399" y="275" on="0"/>
        <pt x="349" y="298" on="0"/>
        <pt x="322" y="309" on="1"/>
      </contour>
      <contour>
        <pt x="333" y="578" on="1"/>
        <pt x="326" y="579" on="0"/>
        <pt x="312" y="579" on="0"/>
        <pt x="304" y="579" on="1"/>
        <pt x="244" y="579" on="0"/>
        <pt x="171" y="523" on="0"/>
        <pt x="171" y="475" on="1"/>
        <pt x="171" y="454" on="0"/>
        <pt x="191" y="423" on="0"/>
        <pt x="225" y="397" on="0"/>
        <pt x="269" y="377" on="0"/>
        <pt x="294" y="367" on="1"/>
      </contour>
      <contour>
        <pt x="330" y="354" on="1"/>
        <pt x="362" y="341" on="0"/>
        <pt x="425" y="313" on="0"/>
        <pt x="475" y="274" on="0"/>
        <pt x="506" y="223" on="0"/>
        <pt x="506" y="187" on="1"/>
        <pt x="506" y="151" on="0"/>
        <pt x="475" y="95" on="0"/>
        <pt x="422" y="55" on="0"/>
        <pt x="350" y="34" on="0"/>
        <pt x="309" y="34" on="1"/>
        <pt x="299" y="34" on="0"/>
        <pt x="281" y="35" on="0"/>
        <pt x="271" y="36" on="1"/>
        <pt x="244" y="-112" on="1"/>
        <pt x="207" y="-108" on="1"/>
        <pt x="235" y="43" on="1"/>
        <pt x="192" y="54" on="0"/>
        <pt x="122" y="91" on="0"/>
        <pt x="97" y="112" on="1"/>
        <pt x="121" y="144" on="1"/>
        <pt x="144" y="126" on="0"/>
        <pt x="204" y="92" on="0"/>
        <pt x="242" y="82" on="1"/>
        <pt x="286" y="323" on="1"/>
        <pt x="256" y="335" on="0"/>
        <pt x="198" y="362" on="0"/>
        <pt x="153" y="397" on="0"/>
        <pt x="126" y="442" on="0"/>
        <pt x="126" y="473" on="1"/>
        <pt x="126" y="507" on="0"/>
        <pt x="154" y="560" on="0"/>
        <pt x="203" y="598" on="0"/>
        <pt x="269" y="618" on="0"/>
        <pt x="308" y="618" on="1"/>
        <pt x="316" y="618" on="0"/>
        <pt x="332" y="617" on="0"/>
        <pt x="340" y="616" on="1"/>
        <pt x="365" y="752" on="1"/>
        <pt x="402" y="747" on="1"/>
        <pt x="377" y="610" on="1"/>
        <pt x="412" y="601" on="0"/>
        <pt x="462" y="567" on="0"/>
        <pt x="484" y="546" on="1"/>
        <pt x="458" y="518" on="1"/>
        <pt x="436" y="537" on="0"/>
        <pt x="396" y="563" on="0"/>
        <pt x="370" y="571" on="1"/>
      </contour>
    </TTGlyph>
    <TTGlyph name="dong" xMin="120" yMin="0" xMax="536" yMax="673">
      <contour>
        <pt x="130" y="34" on="1"/>
        <pt x="485" y="34" on="1"/>
        <pt x="485" y="0" on="1"/>
        <pt x="130" y="0" on="1"/>
      </contour>
      <contour>
        <pt x="414" y="386" on="1"/>
        <pt x="381" y="413" on="0"/>
        <pt x="330" y="437" on="0"/>
        <pt x="294" y="437" on="1"/>
        <pt x="267" y="437" on="0"/>
        <pt x="219" y="415" on="0"/>
        <pt x="183" y="377" on="0"/>
        <pt x="163" y="326" on="0"/>
        <pt x="163" y="297" on="1"/>
        <pt x="163" y="226" on="0"/>
        <pt x="229" y="144" on="0"/>
        <pt x="290" y="144" on="1"/>
        <pt x="322" y="144" on="0"/>
        <pt x="383" y="173" on="0"/>
        <pt x="414" y="206" on="1"/>
      </contour>
      <contour>
        <pt x="536" y="595" on="1"/>
        <pt x="536" y="566" on="1"/>
        <pt x="455" y="561" on="1"/>
        <pt x="455" y="117" on="1"/>
        <pt x="422" y="117" on="1"/>
        <pt x="417" y="164" on="1"/>
        <pt x="413" y="164" on="1"/>
        <pt x="389" y="140" on="0"/>
        <pt x="327" y="107" on="0"/>
        <pt x="285" y="107" on="1"/>
        <pt x="209" y="107" on="0"/>
        <pt x="120" y="203" on="0"/>
        <pt x="120" y="295" on="1"/>
        <pt x="120" y="336" on="0"/>
        <pt x="148" y="402" on="0"/>
        <pt x="196" y="449" on="0"/>
        <pt x="258" y="474" on="0"/>
        <pt x="292" y="474" on="1"/>
        <pt x="334" y="474" on="0"/>
        <pt x="389" y="446" on="0"/>
        <pt x="418" y="423" on="1"/>
        <pt x="414" y="516" on="1"/>
        <pt x="414" y="561" on="1"/>
        <pt x="258" y="561" on="1"/>
        <pt x="258" y="595" on="1"/>
        <pt x="414" y="595" on="1"/>
        <pt x="414" y="673" on="1"/>
        <pt x="455" y="673" on="1"/>
        <pt x="455" y="595" on="1"/>
      </contour>
    </TTGlyph>
    <TTGlyph name="dotaccent" xMin="253" yMin="596" xMax="347" yMax="692">
      <component glyphName="uni0307" x="0" y="0" flags="0x204"/>
    </TTGlyph>
    <TTGlyph name="dotlessi" xMin="97" yMin="0" xMax="382" yMax="480">
      <contour>
        <pt x="97" y="480" on="1"/>
        <pt x="382" y="480" on="1"/>
        <pt x="382" y="0" on="1"/>
        <pt x="338" y="0" on="1"/>
        <pt x="338" y="442" on="1"/>
        <pt x="97" y="442" on="1"/>
      </contour>
    </TTGlyph>
    <TTGlyph name="e" xMin="77" yMin="-12" xMax="532" yMax="492">
      <contour>
        <pt x="77" y="239" on="1"/>
        <pt x="77" y="298" on="0"/>
        <pt x="118" y="392" on="0"/>
        <pt x="185" y="457" on="0"/>
        <pt x="271" y="492" on="0"/>
        <pt x="317" y="492" on="1"/>
        <pt x="366" y="492" on="0"/>
        <pt x="446" y="461" on="0"/>
        <pt x="502" y="404" on="0"/>
        <pt x="532" y="322" on="0"/>
        <pt x="532" y="270" on="1"/>
        <pt x="532" y="261" on="0"/>
        <pt x="532" y="243" on="0"/>
        <pt x="530" y="234" on="1"/>
        <pt x="123" y="234" on="1"/>
        <pt x="124" y="189" on="0"/>
        <pt x="155" y="112" on="0"/>
        <pt x="210" y="57" on="0"/>
        <pt x="287" y="26" on="0"/>
        <pt x="334" y="26" on="1"/>
        <pt x="382" y="26" on="0"/>
        <pt x="460" y="55" on="0"/>
        <pt x="494" y="78" on="1"/>
        <pt x="512" y="44" on="1"/>
        <pt x="479" y="23" on="0"/>
        <pt x="393" y="-12" on="0"/>
        <pt x="330" y="-12" on="1"/>
        <pt x="278" y="-12" on="0"/>
        <pt x="186" y="22" on="0"/>
        <pt x="117" y="87" on="0"/>
        <pt x="77" y="180" on="0"/>
      </contour>
      <contour>
        <pt x="489" y="270" on="1"/>
        <pt x="489" y="361" on="0"/>
        <pt x="396" y="454" on="0"/>
        <pt x="318" y="454" on="1"/>
        <pt x="282" y="454" on="0"/>
        <pt x="216" y="429" on="0"/>
        <pt x="164" y="381" on="0"/>
        <pt x="128" y="313" on="0"/>
        <pt x="123" y="270" on="1"/>
      </contour>
    </TTGlyph>
    <TTGlyph name="e.sups" xMin="167" yMin="252" xMax="453" yMax="586">
      <contour>
        <pt x="167" y="419" on="1"/>
        <pt x="167" y="458" on="0"/>
        <pt x="193" y="520" on="0"/>
        <pt x="235" y="563" on="0"/>
        <pt x="289" y="586" on="0"/>
        <pt x="318" y="586" on="1"/>
        <pt x="381" y="586" on="0"/>
        <pt x="453" y="507" on="0"/>
        <pt x="453" y="438" on="1"/>
        <pt x="453" y="424" on="0"/>
        <pt x="450" y="412" on="1"/>
        <pt x="208" y="412" on="1"/>
        <pt x="210" y="355" on="0"/>
        <pt x="278" y="285" on="0"/>
        <pt x="332" y="285" on="1"/>
        <pt x="359" y="285" on="0"/>
        <pt x="403" y="300" on="0"/>
        <pt x="423" y="312" on="1"/>
        <pt x="439" y="284" on="1"/>
        <pt x="418" y="272" on="0"/>
        <pt x="364" y="252" on="0"/>
        <pt x="327" y="252" on="1"/>
        <pt x="294" y="252" on="0"/>
        <pt x="236" y="275" on="0"/>
        <pt x="192" y="318" on="0"/>
        <pt x="167" y="380" on="0"/>
      </contour>
      <contour>
        <pt x="416" y="441" on="1"/>
        <pt x="416" y="496" on="0"/>
        <pt x="364" y="553" on="0"/>
        <pt x="319" y="553" on="1"/>
        <pt x="299" y="553" on="0"/>
        <pt x="261" y="538" on="0"/>
        <pt x="231" y="509" on="0"/>
        <pt x="211" y="467" on="0"/>
        <pt x="208" y="441" on="1"/>
      </contour>
    </TTGlyph>
    <TTGlyph name="eacute" xMin="77" yMin="-12" xMax="532" yMax="710">
      <component glyphName="e" x="0" y="0" flags="0x204"/>
      <component glyphName="uni0301" x="16" y="0" flags="0x4"/>
    </TTGlyph>
    <TTGlyph name="eacute.sups" xMin="167" yMin="252" xMax="453" yMax="732">
      <contour>
        <pt x="167" y="419" on="1"/>
        <pt x="167" y="458" on="0"/>
        <pt x="193" y="520" on="0"/>
        <pt x="235" y="563" on="0"/>
        <pt x="289" y="586" on="0"/>
        <pt x="318" y="586" on="1"/>
        <pt x="381" y="586" on="0"/>
        <pt x="453" y="507" on="0"/>
        <pt x="453" y="438" on="1"/>
        <pt x="453" y="424" on="0"/>
        <pt x="450" y="412" on="1"/>
        <pt x="208" y="412" on="1"/>
        <pt x="210" y="355" on="0"/>
        <pt x="278" y="285" on="0"/>
        <pt x="332" y="285" on="1"/>
        <pt x="359" y="285" on="0"/>
        <pt x="403" y="300" on="0"/>
        <pt x="423" y="312" on="1"/>
        <pt x="439" y="284" on="1"/>
        <pt x="418" y="272" on="0"/>
        <pt x="364" y="252" on="0"/>
        <pt x="327" y="252" on="1"/>
        <pt x="294" y="252" on="0"/>
        <pt x="236" y="275" on="0"/>
        <pt x="192" y="318" on="0"/>
        <pt x="167" y="380" on="0"/>
      </contour>
      <contour>
        <pt x="416" y="441" on="1"/>
        <pt x="416" y="496" on="0"/>
        <pt x="364" y="553" on="0"/>
        <pt x="319" y="553" on="1"/>
        <pt x="299" y="553" on="0"/>
        <pt x="261" y="538" on="0"/>
        <pt x="231" y="509" on="0"/>
        <pt x="211" y="467" on="0"/>
        <pt x="208" y="441" on="1"/>
      </contour>
      <contour>
        <pt x="310" y="638" on="1"/>
        <pt x="277" y="638" on="1"/>
        <pt x="339" y="732" on="1"/>
        <pt x="384" y="732" on="1"/>
      </contour>
    </TTGlyph>
    <TTGlyph name="ebreve" xMin="77" yMin="-12" xMax="532" yMax="697">
      <component glyphName="e" x="0" y="0" flags="0x204"/>
      <component glyphName="uni0306" x="16" y="0" flags="0x4"/>
    </TTGlyph>
    <TTGlyph name="ecaron" xMin="77" yMin="-12" xMax="532" yMax="710">
      <component glyphName="e" x="0" y="0" flags="0x204"/>
      <component glyphName="uni030C" x="16" y="0" flags="0x4"/>
    </TTGlyph>
    <TTGlyph name="ecircumflex" xMin="77" yMin="-12" xMax="532" yMax="710">
      <component glyphName="e" x="0" y="0" flags="0x204"/>
      <component glyphName="uni0302" x="16" y="0" flags="0x4"/>
    </TTGlyph>
    <TTGlyph name="edieresis" xMin="77" yMin="-12" xMax="532" yMax="681">
      <component glyphName="e" x="0" y="0" flags="0x204"/>
      <component glyphName="uni0308" x="16" y="0" flags="0x4"/>
    </TTGlyph>
    <TTGlyph name="edotaccent" xMin="77" yMin="-12" xMax="532" yMax="692">
      <component glyphName="e" x="0" y="0" flags="0x204"/>
      <component glyphName="uni0307" x="16" y="0" flags="0x4"/>
    </TTGlyph>
    <TTGlyph name="egrave" xMin="77" yMin="-12" xMax="532" yMax="710">
      <component glyphName="e" x="0" y="0" flags="0x204"/>
      <component glyphName="uni0300" x="16" y="0" flags="0x4"/>
    </TTGlyph>
    <TTGlyph name="egrave.sups" xMin="167" yMin="252" xMax="453" yMax="732">
      <contour>
        <pt x="167" y="419" on="1"/>
        <pt x="167" y="458" on="0"/>
        <pt x="193" y="520" on="0"/>
        <pt x="235" y="563" on="0"/>
        <pt x="289" y="586" on="0"/>
        <pt x="318" y="586" on="1"/>
        <pt x="381" y="586" on="0"/>
        <pt x="453" y="507" on="0"/>
        <pt x="453" y="438" on="1"/>
        <pt x="453" y="424" on="0"/>
        <pt x="450" y="412" on="1"/>
        <pt x="208" y="412" on="1"/>
        <pt x="210" y="355" on="0"/>
        <pt x="278" y="285" on="0"/>
        <pt x="332" y="285" on="1"/>
        <pt x="359" y="285" on="0"/>
        <pt x="403" y="300" on="0"/>
        <pt x="423" y="312" on="1"/>
        <pt x="439" y="284" on="1"/>
        <pt x="418" y="272" on="0"/>
        <pt x="364" y="252" on="0"/>
        <pt x="327" y="252" on="1"/>
        <pt x="294" y="252" on="0"/>
        <pt x="236" y="275" on="0"/>
        <pt x="192" y="318" on="0"/>
        <pt x="167" y="380" on="0"/>
      </contour>
      <contour>
        <pt x="416" y="441" on="1"/>
        <pt x="416" y="496" on="0"/>
        <pt x="364" y="553" on="0"/>
        <pt x="319" y="553" on="1"/>
        <pt x="299" y="553" on="0"/>
        <pt x="261" y="538" on="0"/>
        <pt x="231" y="509" on="0"/>
        <pt x="211" y="467" on="0"/>
        <pt x="208" y="441" on="1"/>
      </contour>
      <contour>
        <pt x="251" y="732" on="1"/>
        <pt x="297" y="732" on="1"/>
        <pt x="358" y="638" on="1"/>
        <pt x="325" y="638" on="1"/>
      </contour>
    </TTGlyph>
    <TTGlyph name="eight" xMin="72" yMin="-12" xMax="526" yMax="651">
      <contour>
        <pt x="116" y="166" on="1"/>
        <pt x="116" y="136" on="0"/>
        <pt x="142" y="85" on="0"/>
        <pt x="191" y="47" on="0"/>
        <pt x="261" y="25" on="0"/>
        <pt x="305" y="25" on="1"/>
        <pt x="348" y="25" on="0"/>
        <pt x="414" y="45" on="0"/>
        <pt x="458" y="81" on="0"/>
        <pt x="481" y="129" on="0"/>
        <pt x="481" y="156" on="1"/>
        <pt x="481" y="196" on="0"/>
        <pt x="445" y="248" on="0"/>
        <pt x="382" y="285" on="0"/>
        <pt x="299" y="312" on="0"/>
        <pt x="253" y="327" on="1"/>
        <pt x="224" y="313" on="0"/>
        <pt x="174" y="281" on="0"/>
        <pt x="137" y="243" on="0"/>
        <pt x="116" y="196" on="0"/>
      </contour>
      <contour>
        <pt x="357" y="335" on="1"/>
        <pt x="455" y="401" on="0"/>
        <pt x="455" y="483" on="1"/>
        <pt x="455" y="510" on="0"/>
        <pt x="436" y="557" on="0"/>
        <pt x="398" y="593" on="0"/>
        <pt x="341" y="614" on="0"/>
        <pt x="304" y="614" on="1"/>
        <pt x="241" y="614" on="0"/>
        <pt x="163" y="547" on="0"/>
        <pt x="163" y="495" on="1"/>
        <pt x="163" y="461" on="0"/>
        <pt x="194" y="412" on="0"/>
        <pt x="247" y="375" on="0"/>
        <pt x="317" y="347" on="0"/>
      </contour>
      <contour>
        <pt x="72" y="164" on="1"/>
        <pt x="72" y="199" on="0"/>
        <pt x="98" y="255" on="0"/>
        <pt x="140" y="298" on="0"/>
        <pt x="193" y="331" on="0"/>
        <pt x="220" y="343" on="1"/>
        <pt x="220" y="347" on="1"/>
        <pt x="180" y="370" on="0"/>
        <pt x="120" y="444" on="0"/>
        <pt x="120" y="495" on="1"/>
        <pt x="120" y="529" on="0"/>
        <pt x="148" y="587" on="0"/>
        <pt x="197" y="628" on="0"/>
        <pt x="265" y="651" on="0"/>
        <pt x="305" y="651" on="1"/>
        <pt x="351" y="651" on="0"/>
        <pt x="423" y="626" on="0"/>
        <pt x="473" y="581" on="0"/>
        <pt x="498" y="520" on="0"/>
        <pt x="498" y="484" on="1"/>
        <pt x="498" y="438" on="0"/>
        <pt x="439" y="354" on="0"/>
        <pt x="396" y="324" on="1"/>
        <pt x="396" y="320" on="1"/>
        <pt x="423" y="306" on="0"/>
        <pt x="471" y="278" on="0"/>
        <pt x="506" y="240" on="0"/>
        <pt x="526" y="190" on="0"/>
        <pt x="526" y="155" on="1"/>
        <pt x="526" y="120" on="0"/>
        <pt x="496" y="59" on="0"/>
        <pt x="439" y="14" on="0"/>
        <pt x="357" y="-12" on="0"/>
        <pt x="304" y="-12" on="1"/>
        <pt x="251" y="-12" on="0"/>
        <pt x="165" y="15" on="0"/>
        <pt x="105" y="62" on="0"/>
        <pt x="72" y="126" on="0"/>
      </contour>
    </TTGlyph>
    <TTGlyph name="eight.dnom" xMin="180" yMin="-12" xMax="420" yMax="313">
      <contour>
        <pt x="218" y="76" on="1"/>
        <pt x="218" y="52" on="0"/>
        <pt x="265" y="19" on="0"/>
        <pt x="300" y="19" on="1"/>
        <pt x="331" y="19" on="0"/>
        <pt x="382" y="50" on="0"/>
        <pt x="382" y="74" on="1"/>
        <pt x="382" y="91" on="0"/>
        <pt x="364" y="114" on="0"/>
        <pt x="334" y="130" on="0"/>
        <pt x="296" y="141" on="0"/>
        <pt x="277" y="147" on="1"/>
        <pt x="218" y="120" on="0"/>
      </contour>
      <contour>
        <pt x="324" y="168" on="1"/>
        <pt x="350" y="182" on="0"/>
        <pt x="371" y="214" on="0"/>
        <pt x="371" y="232" on="1"/>
        <pt x="371" y="253" on="0"/>
        <pt x="335" y="282" on="0"/>
        <pt x="300" y="282" on="1"/>
        <pt x="268" y="282" on="0"/>
        <pt x="231" y="254" on="0"/>
        <pt x="231" y="233" on="1"/>
        <pt x="231" y="207" on="0"/>
        <pt x="287" y="178" on="0"/>
      </contour>
      <contour>
        <pt x="180" y="75" on="1"/>
        <pt x="180" y="106" on="0"/>
        <pt x="221" y="145" on="0"/>
        <pt x="247" y="158" on="1"/>
        <pt x="247" y="162" on="1"/>
        <pt x="225" y="175" on="0"/>
        <pt x="193" y="207" on="0"/>
        <pt x="193" y="233" on="1"/>
        <pt x="193" y="268" on="0"/>
        <pt x="256" y="313" on="0"/>
        <pt x="300" y="313" on="1"/>
        <pt x="348" y="313" on="0"/>
        <pt x="408" y="267" on="0"/>
        <pt x="408" y="233" on="1"/>
        <pt x="408" y="204" on="0"/>
        <pt x="372" y="167" on="0"/>
        <pt x="355" y="157" on="1"/>
        <pt x="355" y="153" on="1"/>
        <pt x="381" y="142" on="0"/>
        <pt x="420" y="106" on="0"/>
        <pt x="420" y="75" on="1"/>
        <pt x="420" y="56" on="0"/>
        <pt x="401" y="24" on="0"/>
        <pt x="369" y="1" on="0"/>
        <pt x="325" y="-12" on="0"/>
        <pt x="300" y="-12" on="1"/>
        <pt x="245" y="-12" on="0"/>
        <pt x="180" y="40" on="0"/>
      </contour>
    </TTGlyph>
    <TTGlyph name="eight.numr" xMin="180" yMin="326" xMax="420" yMax="651">
      <component glyphName="eight.dnom" x="0" y="338" flags="0x204"/>
    </TTGlyph>
    <TTGlyph name="eight.onum" xMin="72" yMin="-12" xMax="526" yMax="651">
      <component glyphName="eight" x="0" y="0" flags="0x204"/>
    </TTGlyph>
    <TTGlyph name="eight.subs" xMin="180" yMin="-181" xMax="420" yMax="144">
      <component glyphName="eight.dnom" x="0" y="-169" flags="0x204"/>
    </TTGlyph>
    <TTGlyph name="eight.sups" xMin="180" yMin="428" xMax="420" yMax="753">
      <component glyphName="eight.dnom" x="0" y="440" flags="0x204"/>
    </TTGlyph>
    <TTGlyph name="ellipsis" xMin="51" yMin="-12" xMax="549" yMax="114">
      <contour>
        <pt x="51" y="51" on="1"/>
        <pt x="51" y="81" on="0"/>
        <pt x="86" y="114" on="0"/>
        <pt x="108" y="114" on="1"/>
        <pt x="129" y="114" on="0"/>
        <pt x="165" y="81" on="0"/>
        <pt x="165" y="51" on="1"/>
        <pt x="165" y="22" on="0"/>
        <pt x="129" y="-12" on="0"/>
        <pt x="108" y="-12" on="1"/>
        <pt x="86" y="-12" on="0"/>
        <pt x="51" y="22" on="0"/>
      </contour>
      <contour>
        <pt x="243" y="51" on="1"/>
        <pt x="243" y="81" on="0"/>
        <pt x="278" y="114" on="0"/>
        <pt x="300" y="114" on="1"/>
        <pt x="322" y="114" on="0"/>
        <pt x="357" y="81" on="0"/>
        <pt x="357" y="51" on="1"/>
        <pt x="357" y="22" on="0"/>
        <pt x="322" y="-12" on="0"/>
        <pt x="300" y="-12" on="1"/>
        <pt x="278" y="-12" on="0"/>
        <pt x="243" y="22" on="0"/>
      </contour>
      <contour>
        <pt x="435" y="51" on="1"/>
        <pt x="435" y="81" on="0"/>
        <pt x="471" y="114" on="0"/>
        <pt x="492" y="114" on="1"/>
        <pt x="514" y="114" on="0"/>
        <pt x="549" y="81" on="0"/>
        <pt x="549" y="51" on="1"/>
        <pt x="549" y="22" on="0"/>
        <pt x="514" y="-12" on="0"/>
        <pt x="492" y="-12" on="1"/>
        <pt x="471" y="-12" on="0"/>
        <pt x="435" y="22" on="0"/>
      </contour>
    </TTGlyph>
    <TTGlyph name="emacron" xMin="77" yMin="-12" xMax="532" yMax="642">
      <component glyphName="e" x="0" y="0" flags="0x204"/>
      <component glyphName="uni0304" x="16" y="0" flags="0x4"/>
    </TTGlyph>
    <TTGlyph name="emdash" xMin="20" yMin="226" xMax="580" yMax="275">
      <contour>
        <pt x="20" y="275" on="1"/>
        <pt x="580" y="275" on="1"/>
        <pt x="580" y="226" on="1"/>
        <pt x="20" y="226" on="1"/>
      </contour>
    </TTGlyph>
    <TTGlyph name="endash" xMin="80" yMin="226" xMax="520" yMax="275">
      <contour>
        <pt x="80" y="275" on="1"/>
        <pt x="520" y="275" on="1"/>
        <pt x="520" y="226" on="1"/>
        <pt x="80" y="226" on="1"/>
      </contour>
    </TTGlyph>
    <TTGlyph name="eogonek" xMin="77" yMin="-203" xMax="532" yMax="492">
      <contour>
        <pt x="512" y="44" on="1"/>
        <pt x="442" y="-6" on="0"/>
        <pt x="390" y="-82" on="0"/>
        <pt x="390" y="-116" on="1"/>
        <pt x="390" y="-142" on="0"/>
        <pt x="419" y="-168" on="0"/>
        <pt x="439" y="-168" on="1"/>
        <pt x="462" y="-168" on="0"/>
        <pt x="482" y="-154" on="1"/>
        <pt x="498" y="-180" on="1"/>
        <pt x="486" y="-190" on="0"/>
        <pt x="449" y="-203" on="0"/>
        <pt x="433" y="-203" on="1"/>
        <pt x="398" y="-203" on="0"/>
        <pt x="352" y="-163" on="0"/>
        <pt x="352" y="-122" on="1"/>
        <pt x="352" y="-102" on="0"/>
        <pt x="365" y="-64" on="0"/>
        <pt x="386" y="-32" on="0"/>
        <pt x="412" y="-5" on="0"/>
        <pt x="424" y="4" on="1"/>
        <pt x="398" y="-7" on="0"/>
        <pt x="354" y="-12" on="0"/>
        <pt x="330" y="-12" on="1"/>
        <pt x="278" y="-12" on="0"/>
        <pt x="186" y="22" on="0"/>
        <pt x="117" y="87" on="0"/>
        <pt x="77" y="180" on="0"/>
        <pt x="77" y="239" on="1"/>
        <pt x="77" y="298" on="0"/>
        <pt x="118" y="392" on="0"/>
        <pt x="185" y="457" on="0"/>
        <pt x="271" y="492" on="0"/>
        <pt x="317" y="492" on="1"/>
        <pt x="366" y="492" on="0"/>
        <pt x="446" y="461" on="0"/>
        <pt x="502" y="404" on="0"/>
        <pt x="532" y="322" on="0"/>
        <pt x="532" y="270" on="1"/>
        <pt x="532" y="261" on="0"/>
        <pt x="532" y="243" on="0"/>
        <pt x="530" y="234" on="1"/>
        <pt x="123" y="234" on="1"/>
        <pt x="124" y="189" on="0"/>
        <pt x="155" y="112" on="0"/>
        <pt x="210" y="57" on="0"/>
        <pt x="287" y="26" on="0"/>
        <pt x="334" y="26" on="1"/>
        <pt x="382" y="26" on="0"/>
        <pt x="460" y="55" on="0"/>
        <pt x="494" y="78" on="1"/>
      </contour>
      <contour>
        <pt x="489" y="270" on="1"/>
        <pt x="489" y="361" on="0"/>
        <pt x="396" y="454" on="0"/>
        <pt x="318" y="454" on="1"/>
        <pt x="282" y="454" on="0"/>
        <pt x="216" y="429" on="0"/>
        <pt x="164" y="381" on="0"/>
        <pt x="128" y="313" on="0"/>
        <pt x="123" y="270" on="1"/>
      </contour>
    </TTGlyph>
    <TTGlyph name="equal" xMin="95" yMin="210" xMax="505" yMax="451">
      <component glyphName="minus" x="0" y="102" flags="0x204"/>
      <component glyphName="minus" x="0" y="-101" flags="0x4"/>
    </TTGlyph>
    <TTGlyph name="estimated" xMin="26" yMin="-12" xMax="574" yMax="660">
      <contour>
        <pt x="164" y="68" on="1"/>
        <pt x="190" y="39" on="0"/>
        <pt x="261" y="8" on="0"/>
        <pt x="302" y="8" on="1"/>
        <pt x="355" y="8" on="0"/>
        <pt x="449" y="69" on="0"/>
        <pt x="484" y="120" on="1"/>
        <pt x="522" y="120" on="1"/>
        <pt x="481" y="60" on="0"/>
        <pt x="368" y="-12" on="0"/>
        <pt x="300" y="-12" on="1"/>
        <pt x="243" y="-12" on="0"/>
        <pt x="144" y="41" on="0"/>
        <pt x="69" y="132" on="0"/>
        <pt x="26" y="254" on="0"/>
        <pt x="26" y="324" on="1"/>
        <pt x="26" y="394" on="0"/>
        <pt x="69" y="516" on="0"/>
        <pt x="144" y="607" on="0"/>
        <pt x="243" y="660" on="0"/>
        <pt x="300" y="660" on="1"/>
        <pt x="357" y="660" on="0"/>
        <pt x="456" y="607" on="0"/>
        <pt x="531" y="516" on="0"/>
        <pt x="574" y="394" on="0"/>
        <pt x="574" y="324" on="1"/>
        <pt x="574" y="316" on="1"/>
        <pt x="160" y="316" on="1"/>
        <pt x="156" y="316" on="0"/>
        <pt x="156" y="312" on="1"/>
        <pt x="156" y="88" on="1"/>
        <pt x="156" y="82" on="0"/>
        <pt x="161" y="73" on="0"/>
      </contour>
      <contour>
        <pt x="440" y="334" on="1"/>
        <pt x="446" y="334" on="0"/>
        <pt x="446" y="340" on="1"/>
        <pt x="446" y="564" on="1"/>
        <pt x="446" y="576" on="0"/>
        <pt x="436" y="586" on="1"/>
        <pt x="410" y="612" on="0"/>
        <pt x="340" y="640" on="0"/>
        <pt x="302" y="640" on="1"/>
        <pt x="261" y="640" on="0"/>
        <pt x="190" y="609" on="0"/>
        <pt x="164" y="582" on="1"/>
        <pt x="161" y="577" on="0"/>
        <pt x="156" y="565" on="0"/>
        <pt x="156" y="560" on="1"/>
        <pt x="156" y="340" on="1"/>
        <pt x="156" y="334" on="0"/>
        <pt x="160" y="334" on="1"/>
      </contour>
    </TTGlyph>
    <TTGlyph name="eth" xMin="67" yMin="-12" xMax="527" yMax="724">
      <contour>
        <pt x="300" y="27" on="1"/>
        <pt x="348" y="27" on="0"/>
        <pt x="417" y="62" on="0"/>
        <pt x="461" y="122" on="0"/>
        <pt x="482" y="204" on="0"/>
        <pt x="482" y="251" on="1"/>
        <pt x="482" y="265" on="0"/>
        <pt x="481" y="290" on="0"/>
        <pt x="480" y="303" on="1"/>
        <pt x="460" y="331" on="0"/>
        <pt x="416" y="370" on="0"/>
        <pt x="369" y="394" on="0"/>
        <pt x="323" y="404" on="0"/>
        <pt x="301" y="404" on="1"/>
        <pt x="253" y="404" on="0"/>
        <pt x="182" y="374" on="0"/>
        <pt x="135" y="323" on="0"/>
        <pt x="112" y="256" on="0"/>
        <pt x="112" y="219" on="1"/>
        <pt x="112" y="177" on="0"/>
        <pt x="141" y="106" on="0"/>
        <pt x="192" y="55" on="0"/>
        <pt x="261" y="27" on="0"/>
      </contour>
      <contour>
        <pt x="381" y="612" on="1"/>
        <pt x="447" y="550" on="0"/>
        <pt x="527" y="377" on="0"/>
        <pt x="527" y="252" on="1"/>
        <pt x="527" y="192" on="0"/>
        <pt x="495" y="94" on="0"/>
        <pt x="435" y="25" on="0"/>
        <pt x="351" y="-12" on="0"/>
        <pt x="299" y="-12" on="1"/>
        <pt x="254" y="-12" on="0"/>
        <pt x="170" y="20" on="0"/>
        <pt x="105" y="79" on="0"/>
        <pt x="67" y="165" on="0"/>
        <pt x="67" y="219" on="1"/>
        <pt x="67" y="268" on="0"/>
        <pt x="100" y="351" on="0"/>
        <pt x="161" y="409" on="0"/>
        <pt x="247" y="442" on="0"/>
        <pt x="300" y="442" on="1"/>
        <pt x="351" y="442" on="0"/>
        <pt x="442" y="392" on="0"/>
        <pt x="474" y="353" on="1"/>
        <pt x="461" y="434" on="0"/>
        <pt x="394" y="549" on="0"/>
        <pt x="344" y="592" on="1"/>
        <pt x="194" y="514" on="1"/>
        <pt x="178" y="542" on="1"/>
        <pt x="317" y="614" on="1"/>
        <pt x="288" y="637" on="0"/>
        <pt x="221" y="676" on="0"/>
        <pt x="183" y="694" on="1"/>
        <pt x="205" y="724" on="1"/>
        <pt x="287" y="686" on="0"/>
        <pt x="355" y="634" on="1"/>
        <pt x="489" y="703" on="1"/>
        <pt x="504" y="676" on="1"/>
      </contour>
    </TTGlyph>
    <TTGlyph name="exclam" xMin="242" yMin="-12" xMax="358" yMax="670">
      <contour>
        <pt x="279" y="599" on="1"/>
        <pt x="279" y="670" on="1"/>
        <pt x="321" y="670" on="1"/>
        <pt x="321" y="599" on="1"/>
        <pt x="316" y="219" on="1"/>
        <pt x="284" y="219" on="1"/>
      </contour>
      <contour>
        <pt x="242" y="51" on="1"/>
        <pt x="242" y="82" on="0"/>
        <pt x="277" y="114" on="0"/>
        <pt x="300" y="114" on="1"/>
        <pt x="323" y="114" on="0"/>
        <pt x="358" y="82" on="0"/>
        <pt x="358" y="51" on="1"/>
        <pt x="358" y="21" on="0"/>
        <pt x="323" y="-12" on="0"/>
        <pt x="300" y="-12" on="1"/>
        <pt x="277" y="-12" on="0"/>
        <pt x="242" y="21" on="0"/>
      </contour>
    </TTGlyph>
    <TTGlyph name="exclamdown" xMin="242" yMin="-190" xMax="358" yMax="492">
      <contour>
        <pt x="321" y="-119" on="1"/>
        <pt x="321" y="-190" on="1"/>
        <pt x="279" y="-190" on="1"/>
        <pt x="279" y="-119" on="1"/>
        <pt x="284" y="261" on="1"/>
        <pt x="316" y="261" on="1"/>
      </contour>
      <contour>
        <pt x="358" y="429" on="1"/>
        <pt x="358" y="398" on="0"/>
        <pt x="323" y="366" on="0"/>
        <pt x="300" y="366" on="1"/>
        <pt x="277" y="366" on="0"/>
        <pt x="242" y="398" on="0"/>
        <pt x="242" y="429" on="1"/>
        <pt x="242" y="459" on="0"/>
        <pt x="277" y="492" on="0"/>
        <pt x="300" y="492" on="1"/>
        <pt x="323" y="492" on="0"/>
        <pt x="358" y="459" on="0"/>
      </contour>
    </TTGlyph>
    <TTGlyph name="f" xMin="115" yMin="0" xMax="574" yMax="731">
      <contour>
        <pt x="560" y="668" on="1"/>
        <pt x="526" y="683" on="0"/>
        <pt x="476" y="693" on="0"/>
        <pt x="442" y="693" on="1"/>
        <pt x="404" y="693" on="0"/>
        <pt x="351" y="671" on="0"/>
        <pt x="317" y="631" on="0"/>
        <pt x="302" y="575" on="0"/>
        <pt x="302" y="542" on="1"/>
        <pt x="302" y="480" on="1"/>
        <pt x="525" y="480" on="1"/>
        <pt x="525" y="442" on="1"/>
        <pt x="302" y="442" on="1"/>
        <pt x="302" y="0" on="1"/>
        <pt x="260" y="0" on="1"/>
        <pt x="260" y="442" on="1"/>
        <pt x="115" y="442" on="1"/>
        <pt x="115" y="476" on="1"/>
        <pt x="260" y="480" on="1"/>
        <pt x="260" y="538" on="1"/>
        <pt x="260" y="629" on="0"/>
        <pt x="348" y="731" on="0"/>
        <pt x="439" y="731" on="1"/>
        <pt x="471" y="731" on="0"/>
        <pt x="537" y="719" on="0"/>
        <pt x="574" y="702" on="1"/>
      </contour>
    </TTGlyph>
    <TTGlyph name="f.sups" xMin="207" yMin="260" xMax="500" yMax="740">
      <contour>
        <pt x="490" y="693" on="1"/>
        <pt x="470" y="701" on="0"/>
        <pt x="437" y="707" on="0"/>
        <pt x="417" y="707" on="1"/>
        <pt x="369" y="707" on="0"/>
        <pt x="328" y="657" on="0"/>
        <pt x="328" y="615" on="1"/>
        <pt x="328" y="578" on="1"/>
        <pt x="467" y="578" on="1"/>
        <pt x="467" y="545" on="1"/>
        <pt x="328" y="545" on="1"/>
        <pt x="328" y="260" on="1"/>
        <pt x="289" y="260" on="1"/>
        <pt x="289" y="545" on="1"/>
        <pt x="207" y="545" on="1"/>
        <pt x="207" y="576" on="1"/>
        <pt x="289" y="578" on="1"/>
        <pt x="289" y="612" on="1"/>
        <pt x="289" y="672" on="0"/>
        <pt x="350" y="740" on="0"/>
        <pt x="413" y="740" on="1"/>
        <pt x="436" y="740" on="0"/>
        <pt x="477" y="733" on="0"/>
        <pt x="500" y="724" on="1"/>
      </contour>
    </TTGlyph>
    <TTGlyph name="fi" xMin="78" yMin="0" xMax="488" yMax="731">
      <contour>
        <pt x="144" y="587" on="1"/>
        <pt x="144" y="659" on="0"/>
        <pt x="206" y="731" on="0"/>
        <pt x="263" y="731" on="1"/>
        <pt x="298" y="731" on="0"/>
        <pt x="333" y="715" on="1"/>
        <pt x="321" y="679" on="1"/>
        <pt x="293" y="693" on="0"/>
        <pt x="264" y="693" on="1"/>
        <pt x="225" y="693" on="0"/>
        <pt x="188" y="636" on="0"/>
        <pt x="188" y="584" on="1"/>
        <pt x="188" y="480" on="1"/>
        <pt x="299" y="480" on="1"/>
        <pt x="299" y="442" on="1"/>
        <pt x="188" y="442" on="1"/>
        <pt x="188" y="0" on="1"/>
        <pt x="144" y="0" on="1"/>
        <pt x="144" y="442" on="1"/>
        <pt x="78" y="442" on="1"/>
        <pt x="78" y="476" on="1"/>
        <pt x="144" y="480" on="1"/>
      </contour>
      <contour>
        <pt x="418" y="480" on="1"/>
        <pt x="463" y="480" on="1"/>
        <pt x="463" y="0" on="1"/>
        <pt x="418" y="0" on="1"/>
      </contour>
      <contour>
        <pt x="440" y="692" on="1"/>
        <pt x="460" y="692" on="0"/>
        <pt x="488" y="666" on="0"/>
        <pt x="488" y="643" on="1"/>
        <pt x="488" y="622" on="0"/>
        <pt x="460" y="596" on="0"/>
        <pt x="440" y="596" on="1"/>
        <pt x="421" y="596" on="0"/>
        <pt x="393" y="622" on="0"/>
        <pt x="393" y="643" on="1"/>
        <pt x="393" y="666" on="0"/>
        <pt x="421" y="692" on="0"/>
      </contour>
    </TTGlyph>
    <TTGlyph name="figuredash" xMin="80" yMin="226" xMax="520" yMax="275">
      <contour>
        <pt x="80" y="275" on="1"/>
        <pt x="520" y="275" on="1"/>
        <pt x="520" y="226" on="1"/>
        <pt x="80" y="226" on="1"/>
      </contour>
    </TTGlyph>
    <TTGlyph name="five" xMin="62" yMin="-12" xMax="516" yMax="639">
      <contour>
        <pt x="87" y="105" on="1"/>
        <pt x="103" y="90" on="0"/>
        <pt x="141" y="62" on="0"/>
        <pt x="189" y="40" on="0"/>
        <pt x="249" y="27" on="0"/>
        <pt x="287" y="27" on="1"/>
        <pt x="324" y="27" on="0"/>
        <pt x="391" y="52" on="0"/>
        <pt x="441" y="97" on="0"/>
        <pt x="470" y="160" on="0"/>
        <pt x="470" y="199" on="1"/>
        <pt x="470" y="277" on="0"/>
        <pt x="374" y="364" on="0"/>
        <pt x="289" y="364" on="1"/>
        <pt x="245" y="364" on="0"/>
        <pt x="181" y="340" on="0"/>
        <pt x="146" y="321" on="1"/>
        <pt x="115" y="340" on="1"/>
        <pt x="139" y="639" on="1"/>
        <pt x="483" y="639" on="1"/>
        <pt x="483" y="600" on="1"/>
        <pt x="179" y="600" on="1"/>
        <pt x="158" y="369" on="1"/>
        <pt x="189" y="384" on="0"/>
        <pt x="252" y="403" on="0"/>
        <pt x="296" y="403" on="1"/>
        <pt x="343" y="403" on="0"/>
        <pt x="423" y="379" on="0"/>
        <pt x="482" y="330" on="0"/>
        <pt x="516" y="253" on="0"/>
        <pt x="516" y="201" on="1"/>
        <pt x="516" y="150" on="0"/>
        <pt x="477" y="71" on="0"/>
        <pt x="413" y="16" on="0"/>
        <pt x="331" y="-12" on="0"/>
        <pt x="287" y="-12" on="1"/>
        <pt x="243" y="-12" on="0"/>
        <pt x="176" y="3" on="0"/>
        <pt x="122" y="28" on="0"/>
        <pt x="80" y="59" on="0"/>
        <pt x="62" y="74" on="1"/>
      </contour>
    </TTGlyph>
    <TTGlyph name="five.dnom" xMin="176" yMin="-12" xMax="418" yMax="301">
      <contour>
        <pt x="203" y="73" on="1"/>
        <pt x="220" y="50" on="0"/>
        <pt x="265" y="20" on="0"/>
        <pt x="300" y="20" on="1"/>
        <pt x="335" y="20" on="0"/>
        <pt x="379" y="59" on="0"/>
        <pt x="379" y="91" on="1"/>
        <pt x="379" y="126" on="0"/>
        <pt x="337" y="163" on="0"/>
        <pt x="299" y="163" on="1"/>
        <pt x="277" y="163" on="0"/>
        <pt x="244" y="147" on="0"/>
        <pt x="227" y="134" on="1"/>
        <pt x="204" y="150" on="1"/>
        <pt x="222" y="301" on="1"/>
        <pt x="397" y="301" on="1"/>
        <pt x="397" y="266" on="1"/>
        <pt x="255" y="266" on="1"/>
        <pt x="242" y="176" on="1"/>
        <pt x="270" y="192" on="0"/>
        <pt x="305" y="192" on="1"/>
        <pt x="355" y="192" on="0"/>
        <pt x="418" y="140" on="0"/>
        <pt x="418" y="91" on="1"/>
        <pt x="418" y="43" on="0"/>
        <pt x="351" y="-12" on="0"/>
        <pt x="300" y="-12" on="1"/>
        <pt x="254" y="-12" on="0"/>
        <pt x="198" y="24" on="0"/>
        <pt x="176" y="49" on="1"/>
      </contour>
    </TTGlyph>
    <TTGlyph name="five.numr" xMin="176" yMin="326" xMax="418" yMax="639">
      <component glyphName="five.dnom" x="0" y="338" flags="0x204"/>
    </TTGlyph>
    <TTGlyph name="five.onum" xMin="62" yMin="-83" xMax="516" yMax="571">
      <contour>
        <pt x="87" y="34" on="1"/>
        <pt x="103" y="19" on="0"/>
        <pt x="141" y="-9" on="0"/>
        <pt x="189" y="-31" on="0"/>
        <pt x="249" y="-44" on="0"/>
        <pt x="287" y="-44" on="1"/>
        <pt x="324" y="-44" on="0"/>
        <pt x="391" y="-19" on="0"/>
        <pt x="441" y="27" on="0"/>
        <pt x="470" y="90" on="0"/>
        <pt x="470" y="129" on="1"/>
        <pt x="470" y="207" on="0"/>
        <pt x="374" y="294" on="0"/>
        <pt x="289" y="294" on="1"/>
        <pt x="245" y="294" on="0"/>
        <pt x="181" y="271" on="0"/>
        <pt x="146" y="252" on="1"/>
        <pt x="115" y="271" on="1"/>
        <pt x="139" y="571" on="1"/>
        <pt x="483" y="571" on="1"/>
        <pt x="483" y="531" on="1"/>
        <pt x="179" y="531" on="1"/>
        <pt x="158" y="300" on="1"/>
        <pt x="189" y="315" on="0"/>
        <pt x="252" y="333" on="0"/>
        <pt x="296" y="333" on="1"/>
        <pt x="343" y="333" on="0"/>
        <pt x="423" y="309" on="0"/>
        <pt x="482" y="260" on="0"/>
        <pt x="516" y="183" on="0"/>
        <pt x="516" y="131" on="1"/>
        <pt x="516" y="80" on="0"/>
        <pt x="477" y="0" on="0"/>
        <pt x="413" y="-55" on="0"/>
        <pt x="331" y="-83" on="0"/>
        <pt x="287" y="-83" on="1"/>
        <pt x="243" y="-83" on="0"/>
        <pt x="176" y="-68" on="0"/>
        <pt x="122" y="-43" on="0"/>
        <pt x="80" y="-12" on="0"/>
        <pt x="62" y="3" on="1"/>
      </contour>
    </TTGlyph>
    <TTGlyph name="five.subs" xMin="176" yMin="-181" xMax="418" yMax="132">
      <component glyphName="five.dnom" x="0" y="-169" flags="0x204"/>
    </TTGlyph>
    <TTGlyph name="five.sups" xMin="176" yMin="428" xMax="418" yMax="741">
      <component glyphName="five.dnom" x="0" y="440" flags="0x204"/>
    </TTGlyph>
    <TTGlyph name="fiveeighths" xMin="35" yMin="-12" xMax="565" yMax="639">
      <component glyphName="five.dnom" x="-137" y="338" flags="0x204"/>
      <component glyphName="fraction" x="0" y="0" flags="0x4"/>
      <component glyphName="eight.dnom" x="139" y="0" flags="0x4"/>
    </TTGlyph>
    <TTGlyph name="fl" xMin="83" yMin="-12" xMax="496" yMax="731">
      <contour>
        <pt x="149" y="587" on="1"/>
        <pt x="149" y="659" on="0"/>
        <pt x="211" y="731" on="0"/>
        <pt x="268" y="731" on="1"/>
        <pt x="303" y="731" on="0"/>
        <pt x="338" y="715" on="1"/>
        <pt x="326" y="679" on="1"/>
        <pt x="298" y="693" on="0"/>
        <pt x="269" y="693" on="1"/>
        <pt x="230" y="693" on="0"/>
        <pt x="193" y="636" on="0"/>
        <pt x="193" y="584" on="1"/>
        <pt x="193" y="480" on="1"/>
        <pt x="304" y="480" on="1"/>
        <pt x="304" y="442" on="1"/>
        <pt x="193" y="442" on="1"/>
        <pt x="193" y="0" on="1"/>
        <pt x="149" y="0" on="1"/>
        <pt x="149" y="442" on="1"/>
        <pt x="83" y="442" on="1"/>
        <pt x="83" y="476" on="1"/>
        <pt x="149" y="480" on="1"/>
      </contour>
      <contour>
        <pt x="496" y="-7" on="1"/>
        <pt x="489" y="-9" on="0"/>
        <pt x="475" y="-12" on="0"/>
        <pt x="464" y="-12" on="1"/>
        <pt x="405" y="-12" on="0"/>
        <pt x="405" y="64" on="1"/>
        <pt x="405" y="719" on="1"/>
        <pt x="450" y="719" on="1"/>
        <pt x="450" y="58" on="1"/>
        <pt x="450" y="27" on="0"/>
        <pt x="470" y="27" on="1"/>
        <pt x="474" y="27" on="0"/>
        <pt x="481" y="27" on="0"/>
        <pt x="488" y="29" on="1"/>
      </contour>
    </TTGlyph>
    <TTGlyph name="four" xMin="42" yMin="0" xMax="538" yMax="640">
      <contour>
        <pt x="384" y="230" on="1"/>
        <pt x="384" y="481" on="1"/>
        <pt x="386" y="504" on="0"/>
        <pt x="387" y="554" on="0"/>
        <pt x="389" y="578" on="1"/>
        <pt x="383" y="578" on="1"/>
        <pt x="368" y="557" on="0"/>
        <pt x="337" y="514" on="0"/>
        <pt x="321" y="493" on="1"/>
        <pt x="102" y="230" on="1"/>
      </contour>
      <contour>
        <pt x="538" y="191" on="1"/>
        <pt x="427" y="191" on="1"/>
        <pt x="427" y="0" on="1"/>
        <pt x="384" y="0" on="1"/>
        <pt x="384" y="191" on="1"/>
        <pt x="42" y="191" on="1"/>
        <pt x="42" y="218" on="1"/>
        <pt x="392" y="640" on="1"/>
        <pt x="427" y="640" on="1"/>
        <pt x="427" y="230" on="1"/>
        <pt x="538" y="230" on="1"/>
      </contour>
    </TTGlyph>
    <TTGlyph name="four.dnom" xMin="178" yMin="0" xMax="427" yMax="301">
      <contour>
        <pt x="341" y="109" on="1"/>
        <pt x="341" y="185" on="1"/>
        <pt x="345" y="257" on="1"/>
        <pt x="341" y="257" on="1"/>
        <pt x="291" y="191" on="1"/>
        <pt x="224" y="109" on="1"/>
      </contour>
      <contour>
        <pt x="427" y="80" on="1"/>
        <pt x="377" y="80" on="1"/>
        <pt x="377" y="0" on="1"/>
        <pt x="341" y="0" on="1"/>
        <pt x="341" y="80" on="1"/>
        <pt x="178" y="80" on="1"/>
        <pt x="178" y="100" on="1"/>
        <pt x="343" y="301" on="1"/>
        <pt x="377" y="301" on="1"/>
        <pt x="377" y="109" on="1"/>
        <pt x="427" y="109" on="1"/>
      </contour>
    </TTGlyph>
    <TTGlyph name="four.numr" xMin="178" yMin="338" xMax="427" yMax="639">
      <component glyphName="four.dnom" x="0" y="338" flags="0x204"/>
    </TTGlyph>
    <TTGlyph name="four.onum" xMin="42" yMin="-71" xMax="538" yMax="572">
      <contour>
        <pt x="384" y="141" on="1"/>
        <pt x="384" y="412" on="1"/>
        <pt x="386" y="436" on="0"/>
        <pt x="387" y="486" on="0"/>
        <pt x="389" y="509" on="1"/>
        <pt x="383" y="509" on="1"/>
        <pt x="369" y="486" on="0"/>
        <pt x="337" y="441" on="0"/>
        <pt x="321" y="420" on="1"/>
        <pt x="101" y="141" on="1"/>
      </contour>
      <contour>
        <pt x="538" y="101" on="1"/>
        <pt x="427" y="101" on="1"/>
        <pt x="427" y="-71" on="1"/>
        <pt x="384" y="-71" on="1"/>
        <pt x="384" y="101" on="1"/>
        <pt x="42" y="101" on="1"/>
        <pt x="42" y="129" on="1"/>
        <pt x="392" y="572" on="1"/>
        <pt x="427" y="572" on="1"/>
        <pt x="427" y="141" on="1"/>
        <pt x="538" y="141" on="1"/>
      </contour>
    </TTGlyph>
    <TTGlyph name="four.subs" xMin="178" yMin="-169" xMax="427" yMax="132">
      <component glyphName="four.dnom" x="0" y="-169" flags="0x204"/>
    </TTGlyph>
    <TTGlyph name="four.sups" xMin="178" yMin="440" xMax="427" yMax="741">
      <component glyphName="four.dnom" x="0" y="440" flags="0x204"/>
    </TTGlyph>
    <TTGlyph name="fraction" xMin="35" yMin="35" xMax="565" yMax="624">
      <contour>
        <pt x="35" y="63" on="1"/>
        <pt x="216" y="260" on="1"/>
        <pt x="238" y="240" on="1"/>
        <pt x="67" y="35" on="1"/>
      </contour>
      <contour>
        <pt x="565" y="596" on="1"/>
        <pt x="384" y="399" on="1"/>
        <pt x="362" y="419" on="1"/>
        <pt x="533" y="624" on="1"/>
      </contour>
    </TTGlyph>
    <TTGlyph name="g" xMin="84" yMin="-231" xMax="562" yMax="492">
      <contour>
        <pt x="126" y="-93" on="1"/>
        <pt x="126" y="-137" on="0"/>
        <pt x="214" y="-195" on="0"/>
        <pt x="305" y="-195" on="1"/>
        <pt x="354" y="-195" on="0"/>
        <pt x="433" y="-173" on="0"/>
        <pt x="487" y="-139" on="0"/>
        <pt x="516" y="-95" on="0"/>
        <pt x="516" y="-72" on="1"/>
        <pt x="516" y="-31" on="0"/>
        <pt x="454" y="-1" on="0"/>
        <pt x="391" y="-1" on="1"/>
        <pt x="277" y="-1" on="1"/>
        <pt x="259" y="-1" on="0"/>
        <pt x="221" y="3" on="0"/>
        <pt x="204" y="8" on="1"/>
        <pt x="160" y="-15" on="0"/>
        <pt x="126" y="-67" on="0"/>
      </contour>
      <contour>
        <pt x="84" y="-92" on="1"/>
        <pt x="84" y="-63" on="0"/>
        <pt x="126" y="-3" on="0"/>
        <pt x="165" y="21" on="1"/>
        <pt x="165" y="25" on="1"/>
        <pt x="147" y="34" on="0"/>
        <pt x="115" y="72" on="0"/>
        <pt x="115" y="102" on="1"/>
        <pt x="115" y="125" on="0"/>
        <pt x="144" y="173" on="0"/>
        <pt x="173" y="193" on="1"/>
        <pt x="173" y="197" on="1"/>
        <pt x="150" y="216" on="0"/>
        <pt x="116" y="277" on="0"/>
        <pt x="116" y="321" on="1"/>
        <pt x="116" y="358" on="0"/>
        <pt x="144" y="421" on="0"/>
        <pt x="193" y="466" on="0"/>
        <pt x="258" y="492" on="0"/>
        <pt x="295" y="492" on="1"/>
        <pt x="332" y="492" on="0"/>
        <pt x="361" y="480" on="1"/>
        <pt x="561" y="480" on="1"/>
        <pt x="561" y="443" on="1"/>
        <pt x="415" y="443" on="1"/>
        <pt x="438" y="421" on="0"/>
        <pt x="472" y="359" on="0"/>
        <pt x="472" y="320" on="1"/>
        <pt x="472" y="283" on="0"/>
        <pt x="444" y="222" on="0"/>
        <pt x="396" y="178" on="0"/>
        <pt x="332" y="153" on="0"/>
        <pt x="295" y="153" on="1"/>
        <pt x="273" y="153" on="0"/>
        <pt x="226" y="164" on="0"/>
        <pt x="204" y="175" on="1"/>
        <pt x="183" y="162" on="0"/>
        <pt x="157" y="128" on="0"/>
        <pt x="157" y="108" on="1"/>
        <pt x="157" y="73" on="0"/>
        <pt x="217" y="41" on="0"/>
        <pt x="268" y="41" on="1"/>
        <pt x="387" y="41" on="1"/>
        <pt x="479" y="41" on="0"/>
        <pt x="562" y="-9" on="0"/>
        <pt x="562" y="-67" on="1"/>
        <pt x="562" y="-98" on="0"/>
        <pt x="526" y="-157" on="0"/>
        <pt x="460" y="-203" on="0"/>
        <pt x="366" y="-231" on="0"/>
        <pt x="308" y="-231" on="1"/>
        <pt x="195" y="-231" on="0"/>
        <pt x="84" y="-155" on="0"/>
      </contour>
      <contour>
        <pt x="295" y="188" on="1"/>
        <pt x="322" y="188" on="0"/>
        <pt x="371" y="207" on="0"/>
        <pt x="408" y="242" on="0"/>
        <pt x="429" y="291" on="0"/>
        <pt x="429" y="321" on="1"/>
        <pt x="429" y="350" on="0"/>
        <pt x="408" y="400" on="0"/>
        <pt x="371" y="436" on="0"/>
        <pt x="322" y="456" on="0"/>
        <pt x="295" y="456" on="1"/>
        <pt x="267" y="456" on="0"/>
        <pt x="218" y="436" on="0"/>
        <pt x="182" y="400" on="0"/>
        <pt x="161" y="350" on="0"/>
        <pt x="161" y="321" on="1"/>
        <pt x="161" y="291" on="0"/>
        <pt x="182" y="242" on="0"/>
        <pt x="218" y="207" on="0"/>
        <pt x="267" y="188" on="0"/>
      </contour>
    </TTGlyph>
    <TTGlyph name="g.a" xMin="67" yMin="-229" xMax="495" yMax="492">
      <component glyphName="uni0261" x="0" y="0" flags="0x204"/>
    </TTGlyph>
    <TTGlyph name="g.supa" xMin="142" yMin="113" xMax="429" yMax="586">
      <contour>
        <pt x="183" y="177" on="1"/>
        <pt x="209" y="160" on="0"/>
        <pt x="261" y="145" on="0"/>
        <pt x="287" y="145" on="1"/>
        <pt x="338" y="145" on="0"/>
        <pt x="388" y="196" on="0"/>
        <pt x="388" y="241" on="1"/>
        <pt x="389" y="308" on="1"/>
        <pt x="369" y="289" on="0"/>
        <pt x="313" y="261" on="0"/>
        <pt x="281" y="261" on="1"/>
        <pt x="218" y="261" on="0"/>
        <pt x="142" y="345" on="0"/>
        <pt x="142" y="423" on="1"/>
        <pt x="142" y="461" on="0"/>
        <pt x="166" y="521" on="0"/>
        <pt x="207" y="563" on="0"/>
        <pt x="261" y="586" on="0"/>
        <pt x="290" y="586" on="1"/>
        <pt x="319" y="586" on="0"/>
        <pt x="366" y="567" on="0"/>
        <pt x="389" y="549" on="1"/>
        <pt x="390" y="549" on="1"/>
        <pt x="394" y="578" on="1"/>
        <pt x="429" y="578" on="1"/>
        <pt x="429" y="238" on="1"/>
        <pt x="429" y="180" on="0"/>
        <pt x="355" y="113" on="0"/>
        <pt x="287" y="113" on="1"/>
        <pt x="254" y="113" on="0"/>
        <pt x="193" y="131" on="0"/>
        <pt x="167" y="147" on="1"/>
      </contour>
      <contour>
        <pt x="289" y="296" on="1"/>
        <pt x="340" y="296" on="0"/>
        <pt x="388" y="345" on="1"/>
        <pt x="388" y="514" on="1"/>
        <pt x="363" y="534" on="0"/>
        <pt x="318" y="552" on="0"/>
        <pt x="295" y="552" on="1"/>
        <pt x="271" y="552" on="0"/>
        <pt x="231" y="533" on="0"/>
        <pt x="201" y="498" on="0"/>
        <pt x="184" y="451" on="0"/>
        <pt x="184" y="424" on="1"/>
        <pt x="184" y="366" on="0"/>
        <pt x="238" y="296" on="0"/>
      </contour>
    </TTGlyph>
    <TTGlyph name="g.sups" xMin="158" yMin="110" xMax="481" yMax="586">
      <contour>
        <pt x="195" y="203" on="1"/>
        <pt x="195" y="175" on="0"/>
        <pt x="250" y="139" on="0"/>
        <pt x="307" y="139" on="1"/>
        <pt x="370" y="139" on="0"/>
        <pt x="441" y="186" on="0"/>
        <pt x="441" y="214" on="1"/>
        <pt x="441" y="239" on="0"/>
        <pt x="401" y="257" on="0"/>
        <pt x="361" y="257" on="1"/>
        <pt x="290" y="257" on="1"/>
        <pt x="277" y="257" on="0"/>
        <pt x="253" y="259" on="0"/>
        <pt x="242" y="263" on="1"/>
        <pt x="216" y="249" on="0"/>
        <pt x="195" y="218" on="0"/>
      </contour>
      <contour>
        <pt x="158" y="201" on="1"/>
        <pt x="158" y="219" on="0"/>
        <pt x="186" y="258" on="0"/>
        <pt x="212" y="273" on="1"/>
        <pt x="212" y="276" on="1"/>
        <pt x="200" y="282" on="0"/>
        <pt x="179" y="307" on="0"/>
        <pt x="179" y="327" on="1"/>
        <pt x="179" y="343" on="0"/>
        <pt x="199" y="375" on="0"/>
        <pt x="218" y="387" on="1"/>
        <pt x="218" y="390" on="1"/>
        <pt x="202" y="403" on="0"/>
        <pt x="179" y="444" on="0"/>
        <pt x="179" y="473" on="1"/>
        <pt x="179" y="498" on="0"/>
        <pt x="198" y="540" on="0"/>
        <pt x="231" y="570" on="0"/>
        <pt x="275" y="586" on="0"/>
        <pt x="301" y="586" on="1"/>
        <pt x="329" y="586" on="0"/>
        <pt x="346" y="578" on="1"/>
        <pt x="480" y="578" on="1"/>
        <pt x="480" y="546" on="1"/>
        <pt x="388" y="546" on="1"/>
        <pt x="401" y="533" on="0"/>
        <pt x="420" y="495" on="0"/>
        <pt x="420" y="472" on="1"/>
        <pt x="420" y="421" on="0"/>
        <pt x="352" y="361" on="0"/>
        <pt x="301" y="361" on="1"/>
        <pt x="286" y="361" on="0"/>
        <pt x="258" y="368" on="0"/>
        <pt x="243" y="374" on="1"/>
        <pt x="215" y="358" on="0"/>
        <pt x="215" y="334" on="1"/>
        <pt x="215" y="313" on="0"/>
        <pt x="251" y="293" on="0"/>
        <pt x="284" y="293" on="1"/>
        <pt x="361" y="293" on="1"/>
        <pt x="424" y="293" on="0"/>
        <pt x="481" y="259" on="0"/>
        <pt x="481" y="220" on="1"/>
        <pt x="481" y="198" on="0"/>
        <pt x="457" y="158" on="0"/>
        <pt x="412" y="128" on="0"/>
        <pt x="347" y="110" on="0"/>
        <pt x="307" y="110" on="1"/>
        <pt x="233" y="110" on="0"/>
        <pt x="158" y="158" on="0"/>
      </contour>
      <contour>
        <pt x="301" y="391" on="1"/>
        <pt x="335" y="391" on="0"/>
        <pt x="382" y="436" on="0"/>
        <pt x="382" y="473" on="1"/>
        <pt x="382" y="509" on="0"/>
        <pt x="335" y="556" on="0"/>
        <pt x="301" y="556" on="1"/>
        <pt x="266" y="556" on="0"/>
        <pt x="219" y="509" on="0"/>
        <pt x="219" y="473" on="1"/>
        <pt x="219" y="436" on="0"/>
        <pt x="266" y="391" on="0"/>
      </contour>
    </TTGlyph>
    <TTGlyph name="gbreve" xMin="84" yMin="-231" xMax="562" yMax="697">
      <component glyphName="g" x="0" y="0" flags="0x204"/>
      <component glyphName="uni0306" x="9" y="0" flags="0x4"/>
    </TTGlyph>
    <TTGlyph name="gbreve.a" xMin="67" yMin="-229" xMax="495" yMax="697">
      <component glyphName="uni0261" x="0" y="0" flags="0x204"/>
      <component glyphName="uni0306" x="6" y="0" flags="0x4"/>
    </TTGlyph>
    <TTGlyph name="gcaron" xMin="84" yMin="-231" xMax="562" yMax="710">
      <component glyphName="g" x="0" y="0" flags="0x204"/>
      <component glyphName="uni030C" x="9" y="0" flags="0x4"/>
    </TTGlyph>
    <TTGlyph name="gcaron.a" xMin="67" yMin="-229" xMax="495" yMax="710">
      <component glyphName="uni0261" x="0" y="0" flags="0x204"/>
      <component glyphName="uni030C" x="6" y="0" flags="0x4"/>
    </TTGlyph>
    <TTGlyph name="gcircumflex" xMin="84" yMin="-231" xMax="562" yMax="710">
      <component glyphName="g" x="0" y="0" flags="0x204"/>
      <component glyphName="uni0302" x="9" y="0" flags="0x4"/>
    </TTGlyph>
    <TTGlyph name="gcircumflex.a" xMin="67" yMin="-229" xMax="495" yMax="710">
      <component glyphName="uni0261" x="0" y="0" flags="0x204"/>
      <component glyphName="uni0302" x="6" y="0" flags="0x4"/>
    </TTGlyph>
    <TTGlyph name="gdotaccent" xMin="84" yMin="-231" xMax="562" yMax="692">
      <component glyphName="g" x="0" y="0" flags="0x204"/>
      <component glyphName="uni0307" x="9" y="0" flags="0x4"/>
    </TTGlyph>
    <TTGlyph name="gdotaccent.a" xMin="67" yMin="-229" xMax="495" yMax="692">
      <component glyphName="uni0261" x="0" y="0" flags="0x204"/>
      <component glyphName="uni0307" x="6" y="0" flags="0x4"/>
    </TTGlyph>
    <TTGlyph name="germandbls" xMin="104" yMin="-12" xMax="560" yMax="731">
      <contour>
        <pt x="104" y="533" on="1"/>
        <pt x="104" y="579" on="0"/>
        <pt x="131" y="652" on="0"/>
        <pt x="181" y="703" on="0"/>
        <pt x="249" y="731" on="0"/>
        <pt x="290" y="731" on="1"/>
        <pt x="324" y="731" on="0"/>
        <pt x="380" y="710" on="0"/>
        <pt x="418" y="673" on="0"/>
        <pt x="439" y="623" on="0"/>
        <pt x="439" y="595" on="1"/>
        <pt x="439" y="556" on="0"/>
        <pt x="406" y="501" on="0"/>
        <pt x="365" y="454" on="0"/>
        <pt x="332" y="407" on="0"/>
        <pt x="332" y="377" on="1"/>
        <pt x="332" y="348" on="0"/>
        <pt x="366" y="312" on="0"/>
        <pt x="416" y="284" on="0"/>
        <pt x="476" y="259" on="0"/>
        <pt x="526" y="222" on="0"/>
        <pt x="560" y="169" on="0"/>
        <pt x="560" y="127" on="1"/>
        <pt x="560" y="97" on="0"/>
        <pt x="536" y="47" on="0"/>
        <pt x="494" y="9" on="0"/>
        <pt x="437" y="-12" on="0"/>
        <pt x="403" y="-12" on="1"/>
        <pt x="360" y="-12" on="0"/>
        <pt x="287" y="15" on="0"/>
        <pt x="257" y="38" on="1"/>
        <pt x="280" y="71" on="1"/>
        <pt x="310" y="48" on="0"/>
        <pt x="368" y="26" on="0"/>
        <pt x="403" y="26" on="1"/>
        <pt x="431" y="26" on="0"/>
        <pt x="473" y="43" on="0"/>
        <pt x="501" y="70" on="0"/>
        <pt x="515" y="105" on="0"/>
        <pt x="515" y="124" on="1"/>
        <pt x="515" y="159" on="0"/>
        <pt x="481" y="203" on="0"/>
        <pt x="431" y="234" on="0"/>
        <pt x="371" y="259" on="0"/>
        <pt x="321" y="291" on="0"/>
        <pt x="287" y="337" on="0"/>
        <pt x="287" y="373" on="1"/>
        <pt x="287" y="409" on="0"/>
        <pt x="320" y="462" on="0"/>
        <pt x="361" y="509" on="0"/>
        <pt x="394" y="558" on="0"/>
        <pt x="394" y="592" on="1"/>
        <pt x="394" y="635" on="0"/>
        <pt x="340" y="693" on="0"/>
        <pt x="288" y="693" on="1"/>
        <pt x="225" y="693" on="0"/>
        <pt x="148" y="608" on="0"/>
        <pt x="148" y="519" on="1"/>
        <pt x="148" y="0" on="1"/>
        <pt x="104" y="0" on="1"/>
      </contour>
    </TTGlyph>
    <TTGlyph name="grave" xMin="211" yMin="572" xMax="356" yMax="710">
      <component glyphName="uni0300" x="0" y="0" flags="0x204"/>
    </TTGlyph>
    <TTGlyph name="greater" xMin="112" yMin="58" xMax="477" yMax="606">
      <contour>
        <pt x="477" y="312" on="1"/>
        <pt x="112" y="58" on="1"/>
        <pt x="112" y="106" on="1"/>
        <pt x="434" y="330" on="1"/>
        <pt x="434" y="334" on="1"/>
        <pt x="112" y="558" on="1"/>
        <pt x="112" y="606" on="1"/>
        <pt x="477" y="352" on="1"/>
      </contour>
    </TTGlyph>
    <TTGlyph name="greaterequal" xMin="95" yMin="0" xMax="505" yMax="518">
      <contour>
        <pt x="95" y="37" on="1"/>
        <pt x="505" y="37" on="1"/>
        <pt x="505" y="0" on="1"/>
        <pt x="95" y="0" on="1"/>
      </contour>
      <contour>
        <pt x="505" y="312" on="1"/>
        <pt x="95" y="152" on="1"/>
        <pt x="95" y="195" on="1"/>
        <pt x="326" y="283" on="1"/>
        <pt x="459" y="333" on="1"/>
        <pt x="459" y="337" on="1"/>
        <pt x="326" y="387" on="1"/>
        <pt x="95" y="475" on="1"/>
        <pt x="95" y="518" on="1"/>
        <pt x="505" y="358" on="1"/>
      </contour>
    </TTGlyph>
    <TTGlyph name="guillemotleft" xMin="107" yMin="68" xMax="481" yMax="436">
      <component glyphName="guilsinglleft" x="-103" y="0" flags="0x204"/>
      <component glyphName="guilsinglleft" x="104" y="0" flags="0x4"/>
    </TTGlyph>
    <TTGlyph name="guillemotright" xMin="120" yMin="68" xMax="494" yMax="436">
      <component glyphName="guilsinglright" x="-103" y="0" flags="0x204"/>
      <component glyphName="guilsinglright" x="104" y="0" flags="0x4"/>
    </TTGlyph>
    <TTGlyph name="guilsinglleft" xMin="210" yMin="68" xMax="377" yMax="436">
      <contour>
        <pt x="210" y="231" on="1"/>
        <pt x="210" y="273" on="1"/>
        <pt x="352" y="436" on="1"/>
        <pt x="377" y="413" on="1"/>
        <pt x="251" y="252" on="1"/>
        <pt x="377" y="89" on="1"/>
        <pt x="352" y="68" on="1"/>
      </contour>
    </TTGlyph>
    <TTGlyph name="guilsinglright" xMin="223" yMin="68" xMax="390" yMax="436">
      <contour>
        <pt x="349" y="252" on="1"/>
        <pt x="223" y="413" on="1"/>
        <pt x="248" y="436" on="1"/>
        <pt x="390" y="273" on="1"/>
        <pt x="390" y="231" on="1"/>
        <pt x="248" y="68" on="1"/>
        <pt x="223" y="89" on="1"/>
      </contour>
    </TTGlyph>
    <TTGlyph name="h" xMin="105" yMin="0" xMax="514" yMax="719">
      <contour>
        <pt x="105" y="719" on="1"/>
        <pt x="150" y="719" on="1"/>
        <pt x="150" y="511" on="1"/>
        <pt x="147" y="385" on="1"/>
        <pt x="192" y="432" on="0"/>
        <pt x="283" y="492" on="0"/>
        <pt x="341" y="492" on="1"/>
        <pt x="514" y="492" on="0"/>
        <pt x="514" y="299" on="1"/>
        <pt x="514" y="0" on="1"/>
        <pt x="469" y="0" on="1"/>
        <pt x="469" y="293" on="1"/>
        <pt x="469" y="374" on="0"/>
        <pt x="406" y="452" on="0"/>
        <pt x="334" y="452" on="1"/>
        <pt x="308" y="452" on="0"/>
        <pt x="264" y="439" on="0"/>
        <pt x="221" y="412" on="0"/>
        <pt x="176" y="371" on="0"/>
        <pt x="150" y="344" on="1"/>
        <pt x="150" y="0" on="1"/>
        <pt x="105" y="0" on="1"/>
      </contour>
    </TTGlyph>
    <TTGlyph name="h.sups" xMin="186" yMin="260" xMax="455" yMax="732">
      <contour>
        <pt x="186" y="732" on="1"/>
        <pt x="227" y="732" on="1"/>
        <pt x="227" y="599" on="1"/>
        <pt x="224" y="525" on="1"/>
        <pt x="252" y="551" on="0"/>
        <pt x="308" y="586" on="0"/>
        <pt x="345" y="586" on="1"/>
        <pt x="455" y="586" on="0"/>
        <pt x="455" y="463" on="1"/>
        <pt x="455" y="260" on="1"/>
        <pt x="414" y="260" on="1"/>
        <pt x="414" y="458" on="1"/>
        <pt x="414" y="506" on="0"/>
        <pt x="377" y="551" on="0"/>
        <pt x="335" y="551" on="1"/>
        <pt x="305" y="551" on="0"/>
        <pt x="257" y="521" on="0"/>
        <pt x="227" y="491" on="1"/>
        <pt x="227" y="260" on="1"/>
        <pt x="186" y="260" on="1"/>
      </contour>
    </TTGlyph>
    <TTGlyph name="hbar" xMin="29" yMin="0" xMax="514" yMax="719">
      <contour>
        <pt x="147" y="365" on="1"/>
        <pt x="192" y="412" on="0"/>
        <pt x="283" y="472" on="0"/>
        <pt x="341" y="472" on="1"/>
        <pt x="514" y="472" on="0"/>
        <pt x="514" y="279" on="1"/>
        <pt x="514" y="0" on="1"/>
        <pt x="469" y="0" on="1"/>
        <pt x="469" y="273" on="1"/>
        <pt x="469" y="354" on="0"/>
        <pt x="406" y="432" on="0"/>
        <pt x="334" y="432" on="1"/>
        <pt x="308" y="432" on="0"/>
        <pt x="264" y="419" on="0"/>
        <pt x="221" y="392" on="0"/>
        <pt x="176" y="351" on="0"/>
        <pt x="150" y="324" on="1"/>
        <pt x="150" y="0" on="1"/>
        <pt x="105" y="0" on="1"/>
        <pt x="105" y="581" on="1"/>
        <pt x="29" y="581" on="1"/>
        <pt x="29" y="610" on="1"/>
        <pt x="105" y="614" on="1"/>
        <pt x="105" y="719" on="1"/>
        <pt x="150" y="719" on="1"/>
        <pt x="150" y="614" on="1"/>
        <pt x="379" y="614" on="1"/>
        <pt x="379" y="581" on="1"/>
        <pt x="150" y="581" on="1"/>
        <pt x="150" y="491" on="1"/>
      </contour>
    </TTGlyph>
    <TTGlyph name="hcircumflex" xMin="27" yMin="0" xMax="514" yMax="854">
      <component glyphName="h" x="0" y="0" flags="0x204"/>
      <component glyphName="uni0302.cap" x="-156" y="39" flags="0x4"/>
    </TTGlyph>
    <TTGlyph name="hungarumlaut" xMin="218" yMin="570" xMax="469" yMax="708">
      <component glyphName="uni030B" x="0" y="0" flags="0x204"/>
    </TTGlyph>
    <TTGlyph name="hyphen" xMin="95" yMin="311" xMax="505" yMax="349">
      <component glyphName="minus" x="0" y="0" flags="0x204"/>
    </TTGlyph>
    <TTGlyph name="hyphen.a" xMin="140" yMin="226" xMax="460" yMax="275">
      <contour>
        <pt x="140" y="275" on="1"/>
        <pt x="460" y="275" on="1"/>
        <pt x="460" y="226" on="1"/>
        <pt x="140" y="226" on="1"/>
      </contour>
    </TTGlyph>
    <TTGlyph name="i" xMin="97" yMin="0" xMax="396" yMax="692">
      <contour>
        <pt x="97" y="480" on="1"/>
        <pt x="382" y="480" on="1"/>
        <pt x="382" y="0" on="1"/>
        <pt x="338" y="0" on="1"/>
        <pt x="338" y="442" on="1"/>
        <pt x="97" y="442" on="1"/>
      </contour>
      <contour>
        <pt x="349" y="596" on="1"/>
        <pt x="329" y="596" on="0"/>
        <pt x="302" y="622" on="0"/>
        <pt x="302" y="644" on="1"/>
        <pt x="302" y="666" on="0"/>
        <pt x="329" y="692" on="0"/>
        <pt x="349" y="692" on="1"/>
        <pt x="369" y="692" on="0"/>
        <pt x="396" y="666" on="0"/>
        <pt x="396" y="644" on="1"/>
        <pt x="396" y="622" on="0"/>
        <pt x="369" y="596" on="0"/>
      </contour>
    </TTGlyph>
    <TTGlyph name="i.sups" xMin="179" yMin="260" xMax="385" yMax="723">
      <contour>
        <pt x="179" y="578" on="1"/>
        <pt x="369" y="578" on="1"/>
        <pt x="369" y="260" on="1"/>
        <pt x="329" y="260" on="1"/>
        <pt x="329" y="545" on="1"/>
        <pt x="179" y="545" on="1"/>
      </contour>
      <contour>
        <pt x="348" y="651" on="1"/>
        <pt x="332" y="651" on="0"/>
        <pt x="311" y="669" on="0"/>
        <pt x="311" y="686" on="1"/>
        <pt x="311" y="703" on="0"/>
        <pt x="332" y="723" on="0"/>
        <pt x="348" y="723" on="1"/>
        <pt x="364" y="723" on="0"/>
        <pt x="385" y="703" on="0"/>
        <pt x="385" y="686" on="1"/>
        <pt x="385" y="669" on="0"/>
        <pt x="364" y="651" on="0"/>
      </contour>
    </TTGlyph>
    <TTGlyph name="iacute" xMin="97" yMin="0" xMax="438" yMax="710">
      <component glyphName="dotlessi" x="0" y="0" flags="0x204"/>
      <component glyphName="uni0301" x="49" y="0" flags="0x4"/>
    </TTGlyph>
    <TTGlyph name="icircumflex" xMin="97" yMin="0" xMax="464" yMax="710">
      <component glyphName="dotlessi" x="0" y="0" flags="0x204"/>
      <component glyphName="uni0302" x="49" y="0" flags="0x4"/>
    </TTGlyph>
    <TTGlyph name="idieresis" xMin="97" yMin="0" xMax="477" yMax="681">
      <component glyphName="dotlessi" x="0" y="0" flags="0x204"/>
      <component glyphName="uni0308" x="49" y="0" flags="0x4"/>
    </TTGlyph>
    <TTGlyph name="igrave" xMin="97" yMin="0" xMax="405" yMax="710">
      <component glyphName="dotlessi" x="0" y="0" flags="0x204"/>
      <component glyphName="uni0300" x="49" y="0" flags="0x4"/>
    </TTGlyph>
    <TTGlyph name="imacron" xMin="97" yMin="0" xMax="462" yMax="642">
      <component glyphName="dotlessi" x="0" y="0" flags="0x204"/>
      <component glyphName="uni0304" x="49" y="0" flags="0x4"/>
    </TTGlyph>
    <TTGlyph name="infinity" xMin="2" yMin="168" xMax="598" yMax="493">
      <contour>
        <pt x="130" y="183" on="1"/>
        <pt x="104" y="183" on="0"/>
        <pt x="58" y="205" on="0"/>
        <pt x="23" y="244" on="0"/>
        <pt x="2" y="297" on="0"/>
        <pt x="2" y="328" on="1"/>
        <pt x="2" y="362" on="0"/>
        <pt x="24" y="417" on="0"/>
        <pt x="61" y="456" on="0"/>
        <pt x="110" y="477" on="0"/>
        <pt x="138" y="477" on="1"/>
        <pt x="163" y="477" on="0"/>
        <pt x="206" y="458" on="0"/>
        <pt x="241" y="428" on="0"/>
        <pt x="270" y="388" on="0"/>
        <pt x="281" y="367" on="1"/>
        <pt x="285" y="367" on="1"/>
        <pt x="299" y="393" on="0"/>
        <pt x="334" y="439" on="0"/>
        <pt x="374" y="473" on="0"/>
        <pt x="422" y="493" on="0"/>
        <pt x="450" y="493" on="1"/>
        <pt x="483" y="493" on="0"/>
        <pt x="537" y="469" on="0"/>
        <pt x="576" y="427" on="0"/>
        <pt x="598" y="368" on="0"/>
        <pt x="598" y="333" on="1"/>
        <pt x="598" y="298" on="0"/>
        <pt x="577" y="237" on="0"/>
        <pt x="539" y="193" on="0"/>
        <pt x="486" y="168" on="0"/>
        <pt x="453" y="168" on="1"/>
        <pt x="397" y="168" on="0"/>
        <pt x="320" y="231" on="0"/>
        <pt x="282" y="292" on="1"/>
        <pt x="278" y="292" on="1"/>
        <pt x="267" y="274" on="0"/>
        <pt x="239" y="236" on="0"/>
        <pt x="203" y="204" on="0"/>
        <pt x="157" y="183" on="0"/>
      </contour>
      <contour>
        <pt x="304" y="334" on="1"/>
        <pt x="323" y="299" on="0"/>
        <pt x="360" y="252" on="0"/>
        <pt x="396" y="224" on="0"/>
        <pt x="433" y="212" on="0"/>
        <pt x="453" y="212" on="1"/>
        <pt x="478" y="212" on="0"/>
        <pt x="518" y="231" on="0"/>
        <pt x="545" y="263" on="0"/>
        <pt x="559" y="307" on="0"/>
        <pt x="559" y="331" on="1"/>
        <pt x="559" y="357" on="0"/>
        <pt x="544" y="403" on="0"/>
        <pt x="514" y="437" on="0"/>
        <pt x="472" y="456" on="0"/>
        <pt x="445" y="456" on="1"/>
        <pt x="405" y="456" on="0"/>
        <pt x="338" y="398" on="0"/>
      </contour>
      <contour>
        <pt x="136" y="221" on="1"/>
        <pt x="174" y="221" on="0"/>
        <pt x="236" y="276" on="0"/>
        <pt x="259" y="326" on="1"/>
        <pt x="229" y="382" on="0"/>
        <pt x="170" y="433" on="0"/>
        <pt x="136" y="433" on="1"/>
        <pt x="94" y="433" on="0"/>
        <pt x="41" y="380" on="0"/>
        <pt x="41" y="331" on="1"/>
        <pt x="41" y="306" on="0"/>
        <pt x="56" y="266" on="0"/>
        <pt x="82" y="237" on="0"/>
        <pt x="117" y="221" on="0"/>
      </contour>
    </TTGlyph>
    <TTGlyph name="integral" xMin="208" yMin="-158" xMax="425" yMax="788">
      <contour>
        <pt x="215" y="-116" on="1"/>
        <pt x="222" y="-118" on="0"/>
        <pt x="239" y="-120" on="0"/>
        <pt x="250" y="-120" on="1"/>
        <pt x="272" y="-120" on="0"/>
        <pt x="299" y="-95" on="0"/>
        <pt x="314" y="-50" on="0"/>
        <pt x="319" y="15" on="0"/>
        <pt x="319" y="56" on="1"/>
        <pt x="319" y="109" on="0"/>
        <pt x="305" y="245" on="0"/>
        <pt x="288" y="385" on="0"/>
        <pt x="274" y="519" on="0"/>
        <pt x="274" y="570" on="1"/>
        <pt x="274" y="616" on="0"/>
        <pt x="283" y="696" on="0"/>
        <pt x="307" y="754" on="0"/>
        <pt x="350" y="788" on="0"/>
        <pt x="385" y="788" on="1"/>
        <pt x="398" y="788" on="0"/>
        <pt x="420" y="785" on="0"/>
        <pt x="425" y="782" on="1"/>
        <pt x="418" y="746" on="1"/>
        <pt x="412" y="748" on="0"/>
        <pt x="395" y="750" on="0"/>
        <pt x="384" y="750" on="1"/>
        <pt x="363" y="750" on="0"/>
        <pt x="336" y="725" on="0"/>
        <pt x="321" y="679" on="0"/>
        <pt x="316" y="613" on="0"/>
        <pt x="316" y="573" on="1"/>
        <pt x="316" y="520" on="0"/>
        <pt x="330" y="385" on="0"/>
        <pt x="346" y="245" on="0"/>
        <pt x="360" y="112" on="0"/>
        <pt x="360" y="60" on="1"/>
        <pt x="360" y="13" on="0"/>
        <pt x="351" y="-66" on="0"/>
        <pt x="327" y="-125" on="0"/>
        <pt x="284" y="-158" on="0"/>
        <pt x="251" y="-158" on="1"/>
        <pt x="221" y="-158" on="0"/>
        <pt x="208" y="-152" on="1"/>
        <pt x="215" y="-116" on="1"/>
      </contour>
    </TTGlyph>
    <TTGlyph name="iogonek" xMin="97" yMin="-203" xMax="429" yMax="692">
      <contour>
        <pt x="338" y="442" on="1"/>
        <pt x="97" y="442" on="1"/>
        <pt x="97" y="480" on="1"/>
        <pt x="382" y="480" on="1"/>
        <pt x="382" y="0" on="1"/>
        <pt x="357" y="-26" on="0"/>
        <pt x="321" y="-84" on="0"/>
        <pt x="321" y="-116" on="1"/>
        <pt x="321" y="-142" on="0"/>
        <pt x="350" y="-168" on="0"/>
        <pt x="370" y="-168" on="1"/>
        <pt x="393" y="-168" on="0"/>
        <pt x="413" y="-154" on="1"/>
        <pt x="429" y="-180" on="1"/>
        <pt x="417" y="-190" on="0"/>
        <pt x="380" y="-203" on="0"/>
        <pt x="364" y="-203" on="1"/>
        <pt x="329" y="-203" on="0"/>
        <pt x="282" y="-163" on="0"/>
        <pt x="282" y="-122" on="1"/>
        <pt x="282" y="-84" on="0"/>
        <pt x="322" y="-24" on="0"/>
        <pt x="345" y="0" on="1"/>
        <pt x="338" y="0" on="1"/>
      </contour>
      <contour>
        <pt x="349" y="596" on="1"/>
        <pt x="329" y="596" on="0"/>
        <pt x="302" y="622" on="0"/>
        <pt x="302" y="644" on="1"/>
        <pt x="302" y="666" on="0"/>
        <pt x="329" y="692" on="0"/>
        <pt x="349" y="692" on="1"/>
        <pt x="369" y="692" on="0"/>
        <pt x="396" y="666" on="0"/>
        <pt x="396" y="644" on="1"/>
        <pt x="396" y="622" on="0"/>
        <pt x="369" y="596" on="0"/>
      </contour>
    </TTGlyph>
</ttFont>
